M48
;GenerationSoftware,Autodesk,EAGLE,9.6.2*%
;CreationDate,2021-01-23T08:22:11Z*%
FMAT,2
ICI,OFF
METRIC,TZ,000.000
T7C0.800
T6C1.016
T5C1.092
T4C1.707
T3C1.753
T2C2.997
T1C4.089
%
G90
M71
T1
X41593Y10160
X22542Y29210
X22542Y10160
X79693Y29210
X79693Y10160
X41593Y29210
X60642Y10160
X60642Y29210
T2
X2540Y2540
X2540Y36830
X90170Y36830
X90170Y2540
T3
X56832Y12700
X44132Y15240
X25082Y34290
X37783Y12700
X25082Y15240
X18733Y12700
X75883Y31750
X63182Y34290
X56832Y31750
X44132Y34290
X82233Y34290
X18733Y31750
X37783Y31750
X63182Y15240
X82233Y15240
X75883Y12700
T4
X36513Y10160
X84773Y10160
X74613Y10160
X27622Y10160
X65723Y10160
X17463Y10160
X84773Y29210
X17463Y29210
X27622Y29210
X74613Y29210
X55562Y10160
X46672Y10160
X46672Y29210
X55562Y29210
X65723Y29210
X36513Y29210
T5
X80963Y24130
X21273Y5080
X23812Y5080
X40323Y5080
X42863Y5080
X59372Y5080
X61912Y5080
X80963Y5080
X78423Y5080
X21273Y24130
X23812Y24130
X40323Y24130
X42863Y24130
X59372Y24130
X61912Y24130
X78423Y24130
T6
X5080Y23812
X7620Y18733
X7620Y13652
X5080Y13652
X7620Y16192
X5080Y16192
X5080Y18733
X7620Y21273
X5080Y21273
X7620Y23812
T7
X14605Y8573
X14605Y28892
X4763Y29527
X13335Y33338
X51752Y10478
X51752Y27940
X13335Y21537
X70803Y2857
X50482Y18098
X13017Y6667
X70803Y26035
X32702Y5080
X13335Y14287
X50482Y12700
X32702Y24130
X69533Y24130
X8890Y27305
X50800Y2223
X5080Y11112
X11112Y11112
X69533Y5080
X50800Y7937
X7302Y9525
X12065Y25400
X9472Y25400
X50482Y31750
X50482Y20320
X13335Y18733
X13017Y2223
X31432Y15875
X31432Y37465
X8890Y33973
X4763Y32067
X12065Y9525
M30