G04 EAGLE Gerber RS-274X export*
G75*
%MOMM*%
%FSLAX34Y34*%
%LPD*%
%INTop Copper*%
%IPPOS*%
%AMOC8*
5,1,8,0,0,1.08239X$1,22.5*%
G01*
%ADD10R,1.100000X1.000000*%
%ADD11C,1.879600*%
%ADD12R,1.000000X1.100000*%
%ADD13R,3.000000X5.000000*%
%ADD14R,1.300000X2.500000*%
%ADD15C,0.406400*%
%ADD16C,0.756400*%
%ADD17C,0.806400*%
%ADD18C,1.016000*%


D10*
X287900Y317500D03*
X270900Y317500D03*
D11*
X228600Y107950D03*
X254000Y107950D03*
X279400Y107950D03*
X304800Y107950D03*
X330200Y107950D03*
D10*
X374650Y148200D03*
X374650Y131200D03*
X352425Y148200D03*
X352425Y131200D03*
D12*
X302650Y317500D03*
X319650Y317500D03*
X256150Y317500D03*
X239150Y317500D03*
D13*
X204400Y215900D03*
X354400Y215900D03*
D14*
X279400Y138400D03*
X254400Y138400D03*
X304400Y138400D03*
X254400Y293400D03*
X304400Y293400D03*
D15*
X256150Y295150D02*
X256150Y317500D01*
X256150Y295150D02*
X254400Y293400D01*
X256150Y317500D02*
X256150Y326000D01*
X260350Y330200D01*
X284725Y330200D01*
X287900Y327025D02*
X287900Y317500D01*
X287900Y327025D02*
X284725Y330200D01*
X287900Y317500D02*
X302650Y317500D01*
D16*
X320675Y146050D03*
D15*
X336550Y148200D02*
X352425Y148200D01*
X336550Y148200D02*
X334400Y146050D01*
X320675Y146050D01*
X304800Y146050D01*
X304400Y145650D01*
X304400Y138400D01*
X254400Y138400D02*
X240000Y138400D01*
X228600Y127000D02*
X228600Y107950D01*
X228600Y127000D02*
X240000Y138400D01*
X371475Y165100D02*
X374650Y161925D01*
X371475Y165100D02*
X301625Y165100D01*
X295275Y171450D01*
D17*
X295275Y171450D03*
D15*
X374650Y161925D02*
X374650Y148200D01*
D18*
X352425Y131200D02*
X328050Y131200D01*
X304800Y107950D01*
X352425Y131200D02*
X374650Y131200D01*
X384175Y177800D02*
X333375Y177800D01*
X327025Y184150D01*
X384175Y177800D02*
X393700Y168275D01*
X319650Y299475D02*
X319650Y317500D01*
X327025Y292100D02*
X327025Y184150D01*
X327025Y292100D02*
X319650Y299475D01*
X374650Y131200D02*
X385200Y131200D01*
X387768Y133768D02*
X393700Y142240D01*
X387768Y133768D02*
X385200Y131200D01*
X393700Y142240D02*
X393700Y168275D01*
D15*
X279400Y107950D02*
X266700Y120650D01*
X266700Y168275D01*
X239404Y195571D01*
X239404Y317246D02*
X239150Y317500D01*
X239404Y317246D02*
X239404Y195571D01*
D18*
X279400Y189280D02*
X279400Y138400D01*
X279400Y189280D02*
X281140Y191020D01*
X281140Y246215D01*
X304800Y269875D02*
X304800Y293000D01*
X304800Y269875D02*
X281140Y246215D01*
D17*
X279400Y301625D03*
X279400Y180975D03*
D18*
X289550Y291475D02*
X304400Y291475D01*
X289550Y291475D02*
X279400Y301625D01*
X270900Y310125D02*
X270900Y317500D01*
X270900Y310125D02*
X279400Y301625D01*
X304400Y293400D02*
X304800Y293000D01*
X304400Y293400D02*
X304400Y291475D01*
M02*
