G04 EAGLE Gerber RS-274X export*
G75*
%MOMM*%
%FSLAX34Y34*%
%LPD*%
%INBottom Copper*%
%IPPOS*%
%AMOC8*
5,1,8,0,0,1.08239X$1,22.5*%
G01*
%ADD10C,1.879600*%
%ADD11C,0.406400*%
%ADD12C,0.756400*%
%ADD13C,0.806400*%

G36*
X284792Y74535D02*
X284792Y74535D01*
X285067Y74542D01*
X285138Y74553D01*
X285207Y74556D01*
X305951Y76951D01*
X306012Y76962D01*
X306073Y76967D01*
X306307Y77015D01*
X306579Y77064D01*
X306647Y77085D01*
X306715Y77099D01*
X326851Y82633D01*
X326909Y82653D01*
X326969Y82667D01*
X327194Y82750D01*
X327453Y82840D01*
X327518Y82871D01*
X327583Y82896D01*
X336140Y86732D01*
X336345Y86840D01*
X336555Y86941D01*
X336627Y86988D01*
X336704Y87028D01*
X336894Y87161D01*
X337089Y87288D01*
X337155Y87344D01*
X337226Y87393D01*
X337398Y87549D01*
X337576Y87699D01*
X337635Y87763D01*
X337699Y87821D01*
X337850Y87996D01*
X338007Y88167D01*
X338058Y88238D01*
X338114Y88304D01*
X338242Y88497D01*
X338377Y88686D01*
X338418Y88763D01*
X338466Y88835D01*
X338569Y89044D01*
X338635Y89167D01*
X338882Y89093D01*
X338928Y89086D01*
X338972Y89074D01*
X339241Y89034D01*
X339511Y88989D01*
X339557Y88987D01*
X339602Y88980D01*
X339874Y88974D01*
X340148Y88964D01*
X340193Y88968D01*
X340239Y88967D01*
X340510Y88995D01*
X340782Y89018D01*
X340827Y89028D01*
X340873Y89033D01*
X341139Y89095D01*
X341405Y89152D01*
X341448Y89167D01*
X341493Y89178D01*
X341727Y89265D01*
X342007Y89363D01*
X342056Y89388D01*
X342107Y89407D01*
X346638Y91438D01*
X346692Y91467D01*
X346749Y91489D01*
X346958Y91606D01*
X347202Y91734D01*
X347261Y91776D01*
X347321Y91809D01*
X364849Y103160D01*
X364898Y103197D01*
X364951Y103228D01*
X365140Y103376D01*
X365361Y103539D01*
X365413Y103589D01*
X365467Y103632D01*
X381057Y117525D01*
X381100Y117569D01*
X381148Y117608D01*
X381312Y117783D01*
X381505Y117978D01*
X381549Y118035D01*
X381596Y118086D01*
X394883Y134196D01*
X394918Y134246D01*
X394959Y134292D01*
X395095Y134490D01*
X395256Y134712D01*
X395291Y134775D01*
X395330Y134832D01*
X406001Y152782D01*
X406029Y152836D01*
X406063Y152888D01*
X406166Y153104D01*
X406292Y153349D01*
X406316Y153416D01*
X406346Y153479D01*
X414152Y172847D01*
X414172Y172906D01*
X414197Y172962D01*
X414266Y173191D01*
X414353Y173452D01*
X414367Y173522D01*
X414387Y173589D01*
X419145Y193922D01*
X419155Y193982D01*
X419172Y194041D01*
X419205Y194278D01*
X419251Y194550D01*
X419254Y194622D01*
X419264Y194690D01*
X420862Y215511D01*
X420863Y215573D01*
X420870Y215634D01*
X420867Y215873D01*
X420871Y216148D01*
X420863Y216220D01*
X420862Y216289D01*
X419264Y237110D01*
X419255Y237171D01*
X419253Y237232D01*
X419213Y237469D01*
X419175Y237741D01*
X419157Y237810D01*
X419145Y237878D01*
X414387Y258211D01*
X414369Y258270D01*
X414358Y258331D01*
X414282Y258558D01*
X414203Y258821D01*
X414174Y258887D01*
X414152Y258953D01*
X410872Y267093D01*
X410765Y267317D01*
X410664Y267543D01*
X410628Y267604D01*
X410597Y267668D01*
X410463Y267876D01*
X410335Y268088D01*
X410291Y268144D01*
X410252Y268204D01*
X410093Y268394D01*
X409940Y268588D01*
X409889Y268638D01*
X409843Y268692D01*
X409662Y268860D01*
X409485Y269034D01*
X409428Y269078D01*
X409376Y269126D01*
X409176Y269270D01*
X408979Y269420D01*
X408917Y269456D01*
X408859Y269498D01*
X408642Y269615D01*
X408427Y269740D01*
X408362Y269768D01*
X408299Y269802D01*
X408068Y269892D01*
X407840Y269988D01*
X407772Y270007D01*
X407705Y270033D01*
X407465Y270093D01*
X407227Y270160D01*
X407157Y270171D01*
X407087Y270188D01*
X406842Y270218D01*
X406597Y270255D01*
X406526Y270257D01*
X406455Y270265D01*
X406207Y270264D01*
X405960Y270270D01*
X405889Y270262D01*
X405818Y270262D01*
X405573Y270230D01*
X405326Y270205D01*
X405257Y270189D01*
X405186Y270179D01*
X404947Y270117D01*
X404706Y270061D01*
X404639Y270036D01*
X404570Y270018D01*
X404340Y269926D01*
X404108Y269840D01*
X404045Y269808D01*
X403978Y269781D01*
X403762Y269661D01*
X403542Y269547D01*
X403484Y269506D01*
X403421Y269472D01*
X403221Y269325D01*
X403018Y269185D01*
X402965Y269137D01*
X402907Y269095D01*
X402727Y268925D01*
X402543Y268760D01*
X402497Y268706D01*
X402445Y268657D01*
X402287Y268466D01*
X402125Y268279D01*
X402086Y268221D01*
X402040Y268165D01*
X401895Y267934D01*
X401762Y267734D01*
X401326Y266979D01*
X396596Y262249D01*
X390804Y258905D01*
X384344Y257174D01*
X377656Y257174D01*
X371196Y258905D01*
X365404Y262249D01*
X360674Y266979D01*
X357330Y272771D01*
X355599Y279231D01*
X355599Y285919D01*
X357330Y292379D01*
X360674Y298171D01*
X365404Y302901D01*
X371196Y306245D01*
X376614Y307696D01*
X376649Y307708D01*
X376684Y307716D01*
X376951Y307810D01*
X377218Y307900D01*
X377251Y307916D01*
X377285Y307928D01*
X377537Y308054D01*
X377791Y308177D01*
X377822Y308197D01*
X377855Y308213D01*
X378089Y308370D01*
X378326Y308524D01*
X378354Y308547D01*
X378384Y308568D01*
X378598Y308753D01*
X378813Y308935D01*
X378837Y308962D01*
X378865Y308986D01*
X379053Y309196D01*
X379244Y309403D01*
X379265Y309433D01*
X379290Y309461D01*
X379450Y309692D01*
X379614Y309922D01*
X379631Y309955D01*
X379652Y309985D01*
X379781Y310235D01*
X379915Y310484D01*
X379928Y310518D01*
X379945Y310551D01*
X380043Y310815D01*
X380144Y311078D01*
X380153Y311114D01*
X380166Y311148D01*
X380229Y311423D01*
X380297Y311697D01*
X380301Y311733D01*
X380309Y311769D01*
X380338Y312049D01*
X380371Y312330D01*
X380371Y312366D01*
X380374Y312403D01*
X380368Y312685D01*
X380365Y312967D01*
X380360Y313003D01*
X380359Y313040D01*
X380318Y313320D01*
X380280Y313598D01*
X380270Y313633D01*
X380265Y313670D01*
X380188Y313943D01*
X380116Y314214D01*
X380102Y314248D01*
X380092Y314283D01*
X379982Y314544D01*
X379876Y314804D01*
X379859Y314836D01*
X379844Y314870D01*
X379703Y315114D01*
X379565Y315360D01*
X379543Y315390D01*
X379525Y315421D01*
X379354Y315645D01*
X379186Y315872D01*
X379161Y315899D01*
X379138Y315928D01*
X378962Y316107D01*
X378746Y316333D01*
X378710Y316363D01*
X378678Y316395D01*
X365467Y328168D01*
X365419Y328206D01*
X365375Y328249D01*
X365182Y328392D01*
X364966Y328562D01*
X364904Y328598D01*
X364849Y328640D01*
X347321Y339991D01*
X347268Y340021D01*
X347217Y340056D01*
X347005Y340168D01*
X346765Y340303D01*
X346699Y340330D01*
X346638Y340362D01*
X327583Y348904D01*
X327525Y348926D01*
X327470Y348953D01*
X327244Y349032D01*
X326986Y349128D01*
X326916Y349145D01*
X326851Y349167D01*
X306715Y354701D01*
X306655Y354713D01*
X306596Y354732D01*
X306360Y354775D01*
X306091Y354831D01*
X306020Y354836D01*
X305951Y354849D01*
X285207Y357244D01*
X285145Y357247D01*
X285085Y357256D01*
X284845Y357263D01*
X284571Y357277D01*
X284499Y357272D01*
X284430Y357273D01*
X263563Y356474D01*
X263502Y356467D01*
X263440Y356467D01*
X263203Y356437D01*
X262929Y356409D01*
X262859Y356393D01*
X262790Y356384D01*
X242290Y352409D01*
X242231Y352393D01*
X242170Y352384D01*
X241939Y352317D01*
X241673Y352248D01*
X241607Y352222D01*
X241540Y352203D01*
X221887Y345144D01*
X221831Y345120D01*
X221772Y345101D01*
X221555Y345001D01*
X221302Y344891D01*
X221240Y344855D01*
X221177Y344826D01*
X202832Y334850D01*
X202780Y334817D01*
X202725Y334790D01*
X202526Y334658D01*
X202292Y334511D01*
X202237Y334466D01*
X202179Y334427D01*
X185572Y321768D01*
X185525Y321728D01*
X185475Y321692D01*
X185298Y321531D01*
X185090Y321351D01*
X185042Y321297D01*
X184991Y321250D01*
X170511Y306204D01*
X170471Y306157D01*
X170427Y306115D01*
X170277Y305928D01*
X170099Y305718D01*
X170059Y305658D01*
X170016Y305604D01*
X158002Y288524D01*
X157970Y288472D01*
X157933Y288423D01*
X157813Y288216D01*
X157669Y287981D01*
X157639Y287915D01*
X157605Y287856D01*
X148339Y269142D01*
X148315Y269085D01*
X148286Y269031D01*
X148199Y268808D01*
X148092Y268554D01*
X148073Y268485D01*
X148048Y268420D01*
X141747Y248511D01*
X141733Y248452D01*
X141712Y248394D01*
X141660Y248160D01*
X141594Y247893D01*
X141585Y247822D01*
X141570Y247754D01*
X138382Y227116D01*
X138377Y227055D01*
X138365Y226995D01*
X138350Y226756D01*
X138325Y226482D01*
X138327Y226410D01*
X138323Y226341D01*
X138323Y205459D01*
X138327Y205398D01*
X138324Y205336D01*
X138346Y205097D01*
X138363Y204823D01*
X138376Y204753D01*
X138382Y204683D01*
X141570Y184046D01*
X141583Y183986D01*
X141590Y183925D01*
X141648Y183692D01*
X141707Y183424D01*
X141731Y183356D01*
X141747Y183289D01*
X147613Y164754D01*
X147657Y164639D01*
X147693Y164521D01*
X147772Y164343D01*
X147843Y164160D01*
X147902Y164051D01*
X147952Y163939D01*
X148053Y163772D01*
X148145Y163599D01*
X148217Y163499D01*
X148281Y163393D01*
X148402Y163240D01*
X148516Y163081D01*
X148599Y162990D01*
X148676Y162894D01*
X148816Y162756D01*
X148948Y162613D01*
X149043Y162533D01*
X149131Y162447D01*
X149286Y162329D01*
X149436Y162203D01*
X149539Y162136D01*
X149637Y162061D01*
X149806Y161963D01*
X149971Y161857D01*
X150082Y161803D01*
X150189Y161741D01*
X150369Y161665D01*
X150545Y161581D01*
X150662Y161542D01*
X150776Y161493D01*
X150964Y161440D01*
X151149Y161378D01*
X151270Y161354D01*
X151389Y161321D01*
X151582Y161292D01*
X151774Y161254D01*
X151897Y161245D01*
X152019Y161226D01*
X152214Y161222D01*
X152409Y161208D01*
X152533Y161214D01*
X152656Y161212D01*
X152850Y161231D01*
X153046Y161242D01*
X153167Y161264D01*
X153290Y161277D01*
X153480Y161321D01*
X153672Y161356D01*
X153790Y161393D01*
X153910Y161420D01*
X154093Y161488D01*
X154280Y161547D01*
X154393Y161598D01*
X154508Y161641D01*
X154681Y161731D01*
X154859Y161812D01*
X154964Y161878D01*
X155074Y161934D01*
X155235Y162046D01*
X155401Y162149D01*
X155496Y162226D01*
X155598Y162296D01*
X155744Y162427D01*
X155895Y162550D01*
X155981Y162639D01*
X156073Y162721D01*
X156201Y162869D01*
X156336Y163010D01*
X156410Y163109D01*
X156491Y163202D01*
X156595Y163359D01*
X156716Y163522D01*
X156782Y163640D01*
X156854Y163747D01*
X157474Y164821D01*
X162204Y169551D01*
X167996Y172895D01*
X174456Y174626D01*
X181144Y174626D01*
X187604Y172895D01*
X193396Y169551D01*
X198126Y164821D01*
X201470Y159029D01*
X203201Y152569D01*
X203201Y145881D01*
X201470Y139421D01*
X198126Y133629D01*
X193396Y128899D01*
X187604Y125555D01*
X182359Y124150D01*
X182206Y124098D01*
X182051Y124057D01*
X181905Y123997D01*
X181755Y123947D01*
X181610Y123877D01*
X181461Y123816D01*
X181323Y123738D01*
X181181Y123669D01*
X181046Y123582D01*
X180906Y123503D01*
X180780Y123409D01*
X180647Y123323D01*
X180524Y123219D01*
X180395Y123123D01*
X180281Y123014D01*
X180160Y122912D01*
X180051Y122793D01*
X179935Y122682D01*
X179835Y122559D01*
X179728Y122443D01*
X179635Y122312D01*
X179534Y122187D01*
X179451Y122053D01*
X179359Y121924D01*
X179283Y121782D01*
X179198Y121645D01*
X179132Y121502D01*
X179057Y121363D01*
X178999Y121213D01*
X178932Y121066D01*
X178885Y120915D01*
X178828Y120768D01*
X178790Y120612D01*
X178742Y120458D01*
X178713Y120303D01*
X178676Y120149D01*
X178657Y119990D01*
X178628Y119831D01*
X178620Y119674D01*
X178601Y119517D01*
X178603Y119356D01*
X178594Y119195D01*
X178606Y119037D01*
X178607Y118880D01*
X178629Y118720D01*
X178640Y118560D01*
X178671Y118405D01*
X178693Y118248D01*
X178734Y118092D01*
X178766Y117935D01*
X178816Y117785D01*
X178856Y117632D01*
X178917Y117483D01*
X178968Y117331D01*
X179037Y117188D01*
X179096Y117042D01*
X179175Y116902D01*
X179245Y116757D01*
X179330Y116624D01*
X179408Y116486D01*
X179503Y116357D01*
X179591Y116222D01*
X179690Y116105D01*
X179786Y115974D01*
X179907Y115847D01*
X180014Y115721D01*
X184991Y110550D01*
X185037Y110508D01*
X185077Y110462D01*
X185258Y110305D01*
X185461Y110119D01*
X185519Y110078D01*
X185572Y110032D01*
X202179Y97373D01*
X202230Y97339D01*
X202278Y97300D01*
X202481Y97172D01*
X202709Y97019D01*
X202773Y96987D01*
X202832Y96950D01*
X221177Y86974D01*
X221233Y86948D01*
X221286Y86917D01*
X221506Y86821D01*
X221755Y86705D01*
X221823Y86684D01*
X221887Y86656D01*
X241540Y79597D01*
X241599Y79580D01*
X241656Y79557D01*
X241888Y79497D01*
X242152Y79420D01*
X242223Y79409D01*
X242290Y79391D01*
X262790Y75416D01*
X262851Y75408D01*
X262911Y75394D01*
X263149Y75369D01*
X263422Y75334D01*
X263494Y75333D01*
X263563Y75326D01*
X284430Y74527D01*
X284491Y74528D01*
X284553Y74523D01*
X284792Y74535D01*
G37*
%LPC*%
G36*
X226427Y97027D02*
X226427Y97027D01*
X222413Y98690D01*
X219340Y101763D01*
X217677Y105777D01*
X217677Y110123D01*
X219340Y114137D01*
X222491Y117288D01*
X222575Y117343D01*
X222675Y117398D01*
X222841Y117518D01*
X223012Y117631D01*
X223099Y117705D01*
X223192Y117771D01*
X223341Y117911D01*
X223497Y118044D01*
X223574Y118128D01*
X223657Y118206D01*
X223788Y118364D01*
X223926Y118515D01*
X223992Y118608D01*
X224065Y118696D01*
X224175Y118868D01*
X224293Y119036D01*
X224346Y119137D01*
X224408Y119233D01*
X224495Y119418D01*
X224591Y119599D01*
X224632Y119706D01*
X224681Y119809D01*
X224745Y120003D01*
X224817Y120195D01*
X224844Y120306D01*
X224880Y120414D01*
X224919Y120615D01*
X224967Y120814D01*
X224979Y120927D01*
X225001Y121039D01*
X225014Y121236D01*
X225037Y121447D01*
X225035Y121573D01*
X225043Y121693D01*
X225043Y159457D01*
X225585Y160765D01*
X239285Y174465D01*
X240593Y175007D01*
X288869Y175007D01*
X288942Y175011D01*
X289015Y175009D01*
X289260Y175031D01*
X289505Y175047D01*
X289577Y175060D01*
X289650Y175067D01*
X289890Y175120D01*
X290131Y175166D01*
X290201Y175189D01*
X290272Y175204D01*
X290503Y175287D01*
X290737Y175363D01*
X290803Y175394D01*
X290872Y175418D01*
X291091Y175529D01*
X291314Y175634D01*
X291376Y175673D01*
X291441Y175706D01*
X291644Y175843D01*
X291852Y175975D01*
X291908Y176021D01*
X291969Y176062D01*
X292040Y176125D01*
X294170Y177007D01*
X296380Y177007D01*
X298423Y176161D01*
X299986Y174598D01*
X300832Y172555D01*
X300832Y170345D01*
X299986Y168302D01*
X298423Y166739D01*
X296380Y165893D01*
X294170Y165893D01*
X292043Y166774D01*
X291983Y166827D01*
X291923Y166868D01*
X291867Y166915D01*
X291659Y167047D01*
X291456Y167185D01*
X291391Y167218D01*
X291330Y167258D01*
X291108Y167363D01*
X290889Y167475D01*
X290820Y167499D01*
X290754Y167531D01*
X290520Y167607D01*
X290289Y167691D01*
X290218Y167707D01*
X290149Y167730D01*
X289907Y167776D01*
X289668Y167830D01*
X289595Y167837D01*
X289523Y167851D01*
X289292Y167866D01*
X289033Y167891D01*
X288950Y167888D01*
X288869Y167893D01*
X244877Y167893D01*
X244804Y167889D01*
X244731Y167891D01*
X244486Y167869D01*
X244241Y167853D01*
X244170Y167840D01*
X244097Y167833D01*
X243857Y167780D01*
X243615Y167734D01*
X243546Y167711D01*
X243475Y167696D01*
X243244Y167613D01*
X243009Y167537D01*
X242943Y167506D01*
X242875Y167482D01*
X242656Y167371D01*
X242433Y167266D01*
X242371Y167227D01*
X242306Y167194D01*
X242102Y167057D01*
X241895Y166925D01*
X241838Y166879D01*
X241778Y166838D01*
X241604Y166685D01*
X241403Y166520D01*
X241346Y166459D01*
X241286Y166406D01*
X233644Y158764D01*
X233596Y158710D01*
X233543Y158660D01*
X233385Y158471D01*
X233223Y158287D01*
X233182Y158226D01*
X233135Y158170D01*
X233003Y157963D01*
X232865Y157760D01*
X232832Y157695D01*
X232792Y157633D01*
X232687Y157411D01*
X232575Y157192D01*
X232551Y157123D01*
X232519Y157057D01*
X232443Y156824D01*
X232359Y156593D01*
X232343Y156522D01*
X232320Y156452D01*
X232274Y156211D01*
X232220Y155971D01*
X232213Y155898D01*
X232199Y155827D01*
X232184Y155595D01*
X232159Y155337D01*
X232162Y155253D01*
X232157Y155173D01*
X232157Y121693D01*
X232164Y121579D01*
X232162Y121465D01*
X232184Y121262D01*
X232197Y121057D01*
X232218Y120945D01*
X232230Y120832D01*
X232278Y120633D01*
X232316Y120432D01*
X232351Y120323D01*
X232377Y120212D01*
X232449Y120020D01*
X232513Y119825D01*
X232561Y119722D01*
X232601Y119616D01*
X232696Y119434D01*
X232784Y119249D01*
X232845Y119153D01*
X232898Y119052D01*
X233015Y118884D01*
X233125Y118711D01*
X233197Y118623D01*
X233263Y118529D01*
X233400Y118377D01*
X233530Y118219D01*
X233614Y118141D01*
X233690Y118057D01*
X233845Y117923D01*
X233994Y117783D01*
X234087Y117716D01*
X234173Y117641D01*
X234344Y117528D01*
X234509Y117408D01*
X234609Y117353D01*
X234704Y117290D01*
X234710Y117287D01*
X237708Y114289D01*
X237825Y114186D01*
X237934Y114076D01*
X238063Y113976D01*
X238186Y113867D01*
X238314Y113780D01*
X238437Y113685D01*
X238578Y113601D01*
X238713Y113509D01*
X238851Y113439D01*
X238984Y113360D01*
X239135Y113294D01*
X239281Y113220D01*
X239426Y113167D01*
X239569Y113105D01*
X239726Y113059D01*
X239880Y113003D01*
X240031Y112970D01*
X240180Y112926D01*
X240342Y112900D01*
X240502Y112864D01*
X240656Y112849D01*
X240809Y112825D01*
X240973Y112819D01*
X241136Y112804D01*
X241291Y112808D01*
X241446Y112803D01*
X241609Y112818D01*
X241773Y112823D01*
X241926Y112847D01*
X242080Y112861D01*
X242240Y112897D01*
X242402Y112922D01*
X242551Y112965D01*
X242702Y112998D01*
X242857Y113053D01*
X243014Y113099D01*
X243157Y113160D01*
X243303Y113212D01*
X243449Y113286D01*
X243599Y113351D01*
X243733Y113430D01*
X243871Y113500D01*
X244007Y113591D01*
X244148Y113675D01*
X244271Y113770D01*
X244399Y113856D01*
X244519Y113961D01*
X244652Y114064D01*
X244772Y114184D01*
X244892Y114289D01*
X247891Y117288D01*
X247975Y117343D01*
X248075Y117398D01*
X248241Y117518D01*
X248412Y117631D01*
X248499Y117705D01*
X248592Y117771D01*
X248741Y117911D01*
X248897Y118044D01*
X248974Y118128D01*
X249057Y118206D01*
X249188Y118364D01*
X249326Y118515D01*
X249392Y118608D01*
X249465Y118696D01*
X249575Y118868D01*
X249693Y119036D01*
X249746Y119137D01*
X249808Y119233D01*
X249895Y119418D01*
X249991Y119599D01*
X250032Y119706D01*
X250081Y119809D01*
X250145Y120003D01*
X250217Y120195D01*
X250244Y120306D01*
X250280Y120414D01*
X250319Y120615D01*
X250367Y120814D01*
X250379Y120927D01*
X250401Y121039D01*
X250414Y121236D01*
X250437Y121447D01*
X250435Y121573D01*
X250443Y121693D01*
X250443Y124532D01*
X250985Y125840D01*
X274210Y149065D01*
X275518Y149607D01*
X314623Y149607D01*
X314696Y149611D01*
X314769Y149609D01*
X315014Y149631D01*
X315259Y149647D01*
X315330Y149660D01*
X315403Y149667D01*
X315643Y149720D01*
X315885Y149766D01*
X315954Y149789D01*
X316025Y149804D01*
X316256Y149887D01*
X316491Y149963D01*
X316557Y149994D01*
X316626Y150018D01*
X316845Y150129D01*
X317067Y150234D01*
X317129Y150273D01*
X317194Y150306D01*
X317373Y150426D01*
X319619Y151357D01*
X321731Y151357D01*
X323681Y150549D01*
X325174Y149056D01*
X325982Y147106D01*
X325982Y144994D01*
X325174Y143044D01*
X323681Y141551D01*
X321731Y140743D01*
X319619Y140743D01*
X317375Y141673D01*
X317210Y141785D01*
X317145Y141818D01*
X317083Y141858D01*
X316861Y141963D01*
X316642Y142075D01*
X316574Y142099D01*
X316508Y142131D01*
X316274Y142207D01*
X316043Y142291D01*
X315972Y142307D01*
X315902Y142330D01*
X315661Y142376D01*
X315421Y142430D01*
X315348Y142437D01*
X315277Y142451D01*
X315046Y142466D01*
X314787Y142491D01*
X314703Y142488D01*
X314623Y142493D01*
X279802Y142493D01*
X279729Y142489D01*
X279656Y142491D01*
X279411Y142469D01*
X279166Y142453D01*
X279095Y142440D01*
X279022Y142433D01*
X278781Y142380D01*
X278540Y142334D01*
X278471Y142312D01*
X278400Y142296D01*
X278168Y142213D01*
X277934Y142137D01*
X277868Y142106D01*
X277800Y142082D01*
X277581Y141971D01*
X277358Y141866D01*
X277296Y141827D01*
X277231Y141794D01*
X277027Y141657D01*
X276820Y141525D01*
X276763Y141479D01*
X276703Y141438D01*
X276529Y141285D01*
X276328Y141120D01*
X276271Y141059D01*
X276211Y141006D01*
X259893Y124688D01*
X259790Y124571D01*
X259680Y124462D01*
X259580Y124333D01*
X259471Y124210D01*
X259384Y124082D01*
X259289Y123959D01*
X259205Y123818D01*
X259113Y123683D01*
X259043Y123545D01*
X258963Y123412D01*
X258898Y123261D01*
X258824Y123115D01*
X258771Y122970D01*
X258709Y122827D01*
X258663Y122670D01*
X258607Y122516D01*
X258574Y122365D01*
X258530Y122216D01*
X258504Y122054D01*
X258468Y121894D01*
X258453Y121740D01*
X258429Y121587D01*
X258423Y121423D01*
X258408Y121260D01*
X258412Y121105D01*
X258407Y120950D01*
X258422Y120787D01*
X258427Y120623D01*
X258451Y120470D01*
X258465Y120316D01*
X258500Y120156D01*
X258526Y119994D01*
X258569Y119845D01*
X258602Y119694D01*
X258657Y119540D01*
X258703Y119382D01*
X258764Y119239D01*
X258816Y119093D01*
X258890Y118947D01*
X258955Y118797D01*
X259034Y118663D01*
X259104Y118525D01*
X259195Y118389D01*
X259279Y118248D01*
X259374Y118125D01*
X259460Y117997D01*
X259565Y117877D01*
X259668Y117744D01*
X259788Y117624D01*
X259893Y117504D01*
X263108Y114289D01*
X263225Y114186D01*
X263334Y114076D01*
X263463Y113976D01*
X263586Y113867D01*
X263714Y113780D01*
X263837Y113685D01*
X263978Y113601D01*
X264113Y113509D01*
X264251Y113439D01*
X264384Y113360D01*
X264534Y113294D01*
X264681Y113220D01*
X264827Y113167D01*
X264969Y113105D01*
X265126Y113059D01*
X265280Y113003D01*
X265431Y112970D01*
X265580Y112926D01*
X265742Y112900D01*
X265902Y112864D01*
X266056Y112849D01*
X266209Y112825D01*
X266373Y112819D01*
X266536Y112804D01*
X266691Y112808D01*
X266846Y112803D01*
X267009Y112818D01*
X267173Y112823D01*
X267326Y112847D01*
X267480Y112861D01*
X267640Y112897D01*
X267802Y112922D01*
X267951Y112965D01*
X268102Y112998D01*
X268256Y113053D01*
X268414Y113099D01*
X268557Y113160D01*
X268703Y113212D01*
X268849Y113286D01*
X268999Y113351D01*
X269133Y113430D01*
X269271Y113500D01*
X269407Y113591D01*
X269548Y113675D01*
X269671Y113770D01*
X269799Y113856D01*
X269919Y113961D01*
X270052Y114064D01*
X270172Y114184D01*
X270292Y114289D01*
X273213Y117210D01*
X277227Y118873D01*
X281573Y118873D01*
X285587Y117210D01*
X288508Y114289D01*
X288625Y114186D01*
X288734Y114076D01*
X288863Y113976D01*
X288986Y113867D01*
X289114Y113780D01*
X289237Y113685D01*
X289378Y113601D01*
X289513Y113509D01*
X289651Y113439D01*
X289784Y113360D01*
X289935Y113294D01*
X290081Y113220D01*
X290226Y113167D01*
X290369Y113105D01*
X290526Y113059D01*
X290680Y113003D01*
X290831Y112970D01*
X290980Y112926D01*
X291142Y112900D01*
X291302Y112864D01*
X291456Y112849D01*
X291609Y112825D01*
X291773Y112819D01*
X291936Y112804D01*
X292091Y112808D01*
X292246Y112803D01*
X292409Y112818D01*
X292573Y112823D01*
X292726Y112847D01*
X292880Y112861D01*
X293040Y112897D01*
X293202Y112922D01*
X293351Y112965D01*
X293502Y112998D01*
X293657Y113053D01*
X293814Y113099D01*
X293957Y113160D01*
X294103Y113212D01*
X294249Y113286D01*
X294399Y113351D01*
X294533Y113430D01*
X294671Y113500D01*
X294807Y113591D01*
X294948Y113675D01*
X295071Y113770D01*
X295199Y113856D01*
X295319Y113961D01*
X295452Y114064D01*
X295572Y114184D01*
X295692Y114289D01*
X298613Y117210D01*
X302627Y118873D01*
X306973Y118873D01*
X310987Y117210D01*
X313268Y114929D01*
X313395Y114817D01*
X313515Y114698D01*
X313634Y114606D01*
X313746Y114507D01*
X313886Y114412D01*
X314019Y114310D01*
X314149Y114234D01*
X314273Y114149D01*
X314424Y114072D01*
X314569Y113987D01*
X314707Y113928D01*
X314841Y113860D01*
X314999Y113802D01*
X315154Y113736D01*
X315299Y113694D01*
X315440Y113643D01*
X315605Y113606D01*
X315767Y113560D01*
X315915Y113537D01*
X316062Y113504D01*
X316230Y113488D01*
X316396Y113462D01*
X316547Y113458D01*
X316696Y113444D01*
X316864Y113449D01*
X317033Y113444D01*
X317183Y113458D01*
X317333Y113463D01*
X317499Y113489D01*
X317667Y113505D01*
X317814Y113539D01*
X317962Y113562D01*
X318124Y113609D01*
X318289Y113646D01*
X318430Y113697D01*
X318574Y113739D01*
X318729Y113806D01*
X318888Y113863D01*
X319021Y113932D01*
X319159Y113991D01*
X319305Y114077D01*
X319455Y114154D01*
X319579Y114238D01*
X319708Y114315D01*
X319842Y114418D01*
X319981Y114513D01*
X320094Y114613D01*
X320212Y114704D01*
X320332Y114823D01*
X320458Y114935D01*
X320554Y115045D01*
X320664Y115154D01*
X320777Y115299D01*
X320890Y115428D01*
X321205Y115839D01*
X322311Y116945D01*
X323553Y117898D01*
X324908Y118681D01*
X325121Y118768D01*
X325121Y107950D01*
X325121Y97132D01*
X324908Y97219D01*
X323553Y98002D01*
X322311Y98955D01*
X321205Y100061D01*
X320890Y100472D01*
X320779Y100599D01*
X320676Y100732D01*
X320570Y100839D01*
X320471Y100952D01*
X320345Y101064D01*
X320226Y101184D01*
X320108Y101276D01*
X319995Y101376D01*
X319856Y101472D01*
X319723Y101575D01*
X319594Y101652D01*
X319470Y101737D01*
X319321Y101814D01*
X319176Y101901D01*
X319038Y101961D01*
X318904Y102030D01*
X318746Y102088D01*
X318591Y102155D01*
X318447Y102197D01*
X318306Y102249D01*
X318142Y102287D01*
X317980Y102334D01*
X317832Y102358D01*
X317685Y102392D01*
X317517Y102409D01*
X317351Y102435D01*
X317201Y102440D01*
X317051Y102456D01*
X316883Y102451D01*
X316714Y102457D01*
X316565Y102443D01*
X316414Y102440D01*
X316248Y102414D01*
X316080Y102399D01*
X315933Y102366D01*
X315784Y102344D01*
X315622Y102298D01*
X315458Y102262D01*
X315316Y102211D01*
X315171Y102170D01*
X315016Y102104D01*
X314857Y102048D01*
X314723Y101980D01*
X314585Y101921D01*
X314439Y101836D01*
X314289Y101760D01*
X314164Y101676D01*
X314034Y101601D01*
X313901Y101498D01*
X313761Y101404D01*
X313651Y101307D01*
X313528Y101214D01*
X313398Y101085D01*
X313268Y100971D01*
X310987Y98690D01*
X306973Y97027D01*
X302627Y97027D01*
X298613Y98690D01*
X295692Y101611D01*
X295575Y101714D01*
X295466Y101824D01*
X295337Y101924D01*
X295214Y102033D01*
X295086Y102120D01*
X294963Y102215D01*
X294822Y102299D01*
X294687Y102391D01*
X294549Y102461D01*
X294416Y102541D01*
X294265Y102606D01*
X294119Y102680D01*
X293973Y102733D01*
X293831Y102795D01*
X293674Y102841D01*
X293520Y102897D01*
X293369Y102930D01*
X293220Y102974D01*
X293058Y103000D01*
X292898Y103036D01*
X292744Y103051D01*
X292591Y103075D01*
X292427Y103081D01*
X292264Y103096D01*
X292109Y103092D01*
X291954Y103097D01*
X291791Y103082D01*
X291627Y103077D01*
X291474Y103053D01*
X291320Y103039D01*
X291160Y103003D01*
X290998Y102978D01*
X290849Y102935D01*
X290698Y102902D01*
X290543Y102847D01*
X290386Y102801D01*
X290243Y102740D01*
X290097Y102688D01*
X289951Y102614D01*
X289801Y102549D01*
X289667Y102470D01*
X289529Y102400D01*
X289393Y102309D01*
X289252Y102225D01*
X289129Y102130D01*
X289001Y102044D01*
X288881Y101939D01*
X288748Y101836D01*
X288628Y101717D01*
X288508Y101611D01*
X285587Y98690D01*
X281573Y97027D01*
X277227Y97027D01*
X273213Y98690D01*
X270292Y101611D01*
X270175Y101714D01*
X270066Y101824D01*
X269937Y101924D01*
X269814Y102033D01*
X269686Y102120D01*
X269563Y102215D01*
X269422Y102299D01*
X269287Y102391D01*
X269149Y102461D01*
X269016Y102541D01*
X268865Y102606D01*
X268719Y102680D01*
X268573Y102733D01*
X268431Y102795D01*
X268274Y102841D01*
X268120Y102897D01*
X267969Y102930D01*
X267820Y102974D01*
X267658Y103000D01*
X267498Y103036D01*
X267344Y103051D01*
X267191Y103075D01*
X267027Y103081D01*
X266864Y103096D01*
X266709Y103092D01*
X266554Y103097D01*
X266391Y103082D01*
X266227Y103077D01*
X266074Y103053D01*
X265920Y103039D01*
X265760Y103003D01*
X265598Y102978D01*
X265449Y102935D01*
X265298Y102902D01*
X265143Y102847D01*
X264986Y102801D01*
X264843Y102740D01*
X264697Y102688D01*
X264551Y102614D01*
X264401Y102549D01*
X264267Y102470D01*
X264129Y102400D01*
X263993Y102309D01*
X263852Y102225D01*
X263729Y102130D01*
X263601Y102044D01*
X263481Y101939D01*
X263348Y101836D01*
X263228Y101717D01*
X263108Y101611D01*
X260187Y98690D01*
X256173Y97027D01*
X251827Y97027D01*
X247813Y98690D01*
X244892Y101611D01*
X244775Y101714D01*
X244666Y101824D01*
X244537Y101924D01*
X244414Y102033D01*
X244286Y102120D01*
X244163Y102215D01*
X244022Y102299D01*
X243887Y102391D01*
X243749Y102461D01*
X243616Y102541D01*
X243465Y102606D01*
X243319Y102680D01*
X243173Y102733D01*
X243031Y102795D01*
X242874Y102841D01*
X242720Y102897D01*
X242569Y102930D01*
X242420Y102974D01*
X242258Y103000D01*
X242098Y103036D01*
X241944Y103051D01*
X241791Y103075D01*
X241627Y103081D01*
X241464Y103096D01*
X241309Y103092D01*
X241154Y103097D01*
X240991Y103082D01*
X240827Y103077D01*
X240674Y103053D01*
X240520Y103039D01*
X240360Y103003D01*
X240198Y102978D01*
X240049Y102935D01*
X239898Y102902D01*
X239743Y102847D01*
X239586Y102801D01*
X239443Y102740D01*
X239297Y102688D01*
X239151Y102614D01*
X239001Y102549D01*
X238867Y102470D01*
X238729Y102400D01*
X238593Y102309D01*
X238452Y102225D01*
X238329Y102130D01*
X238201Y102044D01*
X238081Y101939D01*
X237948Y101836D01*
X237828Y101717D01*
X237708Y101611D01*
X234787Y98690D01*
X230773Y97027D01*
X226427Y97027D01*
G37*
%LPD*%
%LPC*%
G36*
X301086Y199239D02*
X301086Y199239D01*
X294962Y201776D01*
X290276Y206462D01*
X287739Y212586D01*
X287739Y219214D01*
X290276Y225338D01*
X294962Y230024D01*
X301086Y232561D01*
X307714Y232561D01*
X313838Y230024D01*
X318524Y225338D01*
X321061Y219214D01*
X321061Y212586D01*
X318524Y206462D01*
X313838Y201776D01*
X307714Y199239D01*
X301086Y199239D01*
G37*
%LPD*%
%LPC*%
G36*
X256086Y199239D02*
X256086Y199239D01*
X249962Y201776D01*
X245276Y206462D01*
X242739Y212586D01*
X242739Y219214D01*
X245276Y225338D01*
X249962Y230024D01*
X256086Y232561D01*
X262714Y232561D01*
X268838Y230024D01*
X273524Y225338D01*
X276061Y219214D01*
X276061Y212586D01*
X273524Y206462D01*
X268838Y201776D01*
X262714Y199239D01*
X256086Y199239D01*
G37*
%LPD*%
%LPC*%
G36*
X335289Y96296D02*
X335289Y96296D01*
X335279Y96297D01*
X335279Y102871D01*
X341018Y102871D01*
X340931Y102658D01*
X340148Y101303D01*
X339195Y100061D01*
X338089Y98955D01*
X336937Y98071D01*
X336903Y98041D01*
X336865Y98015D01*
X336663Y97832D01*
X336457Y97652D01*
X336427Y97618D01*
X336393Y97588D01*
X336215Y97380D01*
X336033Y97177D01*
X336007Y97139D01*
X335977Y97104D01*
X335827Y96877D01*
X335672Y96652D01*
X335651Y96611D01*
X335626Y96573D01*
X335505Y96329D01*
X335460Y96241D01*
X335289Y96296D01*
G37*
%LPD*%
%LPC*%
G36*
X335279Y113029D02*
X335279Y113029D01*
X335279Y118768D01*
X335492Y118681D01*
X336847Y117898D01*
X338089Y116945D01*
X339195Y115839D01*
X340148Y114597D01*
X340931Y113242D01*
X341018Y113029D01*
X335279Y113029D01*
G37*
%LPD*%
D10*
X228600Y107950D03*
X254000Y107950D03*
X279400Y107950D03*
X304800Y107950D03*
X330200Y107950D03*
D11*
X254000Y107950D02*
X254000Y123825D01*
X276225Y146050D02*
X320675Y146050D01*
D12*
X320675Y146050D03*
D11*
X276225Y146050D02*
X254000Y123825D01*
D13*
X295275Y171450D03*
D11*
X241300Y171450D01*
X228600Y158750D01*
X228600Y107950D01*
D13*
X279400Y301625D03*
X279400Y180975D03*
M02*
