G04 EAGLE Gerber RS-274X export*
G75*
%MOMM*%
%FSLAX34Y34*%
%LPD*%
%INSilkscreen Bottom*%
%IPPOS*%
%AMOC8*
5,1,8,0,0,1.08239X$1,22.5*%
G01*
%ADD10C,0.076200*%


D10*
X310769Y136779D02*
X307636Y127381D01*
X304504Y136779D01*
X282236Y127381D02*
X282147Y127383D01*
X282059Y127389D01*
X281971Y127398D01*
X281883Y127411D01*
X281796Y127428D01*
X281710Y127448D01*
X281625Y127473D01*
X281540Y127500D01*
X281457Y127532D01*
X281376Y127566D01*
X281296Y127605D01*
X281218Y127646D01*
X281141Y127691D01*
X281067Y127739D01*
X280994Y127790D01*
X280924Y127844D01*
X280857Y127902D01*
X280791Y127962D01*
X280729Y128024D01*
X280669Y128090D01*
X280611Y128157D01*
X280557Y128227D01*
X280506Y128300D01*
X280458Y128374D01*
X280413Y128451D01*
X280372Y128529D01*
X280333Y128609D01*
X280299Y128690D01*
X280267Y128773D01*
X280240Y128858D01*
X280215Y128943D01*
X280195Y129029D01*
X280178Y129116D01*
X280165Y129204D01*
X280156Y129292D01*
X280150Y129380D01*
X280148Y129469D01*
X282236Y127381D02*
X282365Y127383D01*
X282494Y127389D01*
X282623Y127398D01*
X282751Y127411D01*
X282879Y127428D01*
X283006Y127449D01*
X283133Y127473D01*
X283259Y127501D01*
X283384Y127533D01*
X283508Y127568D01*
X283631Y127607D01*
X283753Y127650D01*
X283873Y127696D01*
X283992Y127746D01*
X284110Y127799D01*
X284226Y127855D01*
X284340Y127915D01*
X284453Y127978D01*
X284563Y128045D01*
X284672Y128114D01*
X284778Y128187D01*
X284883Y128263D01*
X284985Y128342D01*
X285085Y128424D01*
X285182Y128508D01*
X285277Y128596D01*
X285369Y128686D01*
X285108Y134691D02*
X285106Y134780D01*
X285100Y134868D01*
X285091Y134956D01*
X285078Y135044D01*
X285061Y135131D01*
X285041Y135217D01*
X285016Y135302D01*
X284989Y135387D01*
X284957Y135470D01*
X284923Y135551D01*
X284884Y135631D01*
X284843Y135709D01*
X284798Y135786D01*
X284750Y135860D01*
X284699Y135933D01*
X284645Y136003D01*
X284587Y136070D01*
X284527Y136136D01*
X284465Y136198D01*
X284399Y136258D01*
X284332Y136316D01*
X284262Y136370D01*
X284189Y136421D01*
X284115Y136469D01*
X284038Y136514D01*
X283960Y136555D01*
X283880Y136594D01*
X283799Y136628D01*
X283716Y136660D01*
X283631Y136687D01*
X283546Y136712D01*
X283460Y136732D01*
X283373Y136749D01*
X283285Y136762D01*
X283197Y136771D01*
X283109Y136777D01*
X283020Y136779D01*
X282900Y136777D01*
X282780Y136772D01*
X282661Y136762D01*
X282541Y136750D01*
X282422Y136733D01*
X282304Y136713D01*
X282186Y136689D01*
X282070Y136662D01*
X281954Y136631D01*
X281839Y136597D01*
X281725Y136559D01*
X281612Y136517D01*
X281501Y136472D01*
X281391Y136424D01*
X281283Y136373D01*
X281176Y136318D01*
X281071Y136260D01*
X280968Y136198D01*
X280867Y136134D01*
X280767Y136066D01*
X280670Y135996D01*
X284064Y132864D02*
X284142Y132912D01*
X284218Y132964D01*
X284291Y133018D01*
X284362Y133076D01*
X284431Y133137D01*
X284497Y133201D01*
X284560Y133268D01*
X284620Y133337D01*
X284677Y133409D01*
X284731Y133483D01*
X284781Y133560D01*
X284829Y133639D01*
X284872Y133719D01*
X284913Y133802D01*
X284949Y133886D01*
X284982Y133971D01*
X285011Y134058D01*
X285037Y134147D01*
X285059Y134236D01*
X285076Y134326D01*
X285090Y134416D01*
X285100Y134508D01*
X285106Y134599D01*
X285108Y134691D01*
X281192Y131296D02*
X281114Y131248D01*
X281038Y131196D01*
X280965Y131142D01*
X280894Y131084D01*
X280825Y131023D01*
X280759Y130959D01*
X280696Y130892D01*
X280636Y130823D01*
X280579Y130751D01*
X280525Y130677D01*
X280475Y130600D01*
X280427Y130521D01*
X280384Y130441D01*
X280343Y130358D01*
X280307Y130274D01*
X280274Y130189D01*
X280245Y130102D01*
X280219Y130013D01*
X280197Y129924D01*
X280180Y129834D01*
X280166Y129744D01*
X280156Y129652D01*
X280150Y129561D01*
X280148Y129469D01*
X281192Y131297D02*
X284064Y132863D01*
X330948Y132602D02*
X332514Y132602D01*
X330948Y132602D02*
X330948Y127381D01*
X334081Y127381D01*
X334170Y127383D01*
X334258Y127389D01*
X334346Y127398D01*
X334434Y127411D01*
X334521Y127428D01*
X334607Y127448D01*
X334692Y127473D01*
X334777Y127500D01*
X334860Y127532D01*
X334941Y127566D01*
X335021Y127605D01*
X335099Y127646D01*
X335176Y127691D01*
X335250Y127739D01*
X335323Y127790D01*
X335393Y127844D01*
X335460Y127902D01*
X335526Y127962D01*
X335588Y128024D01*
X335648Y128090D01*
X335706Y128157D01*
X335760Y128227D01*
X335811Y128300D01*
X335859Y128374D01*
X335904Y128451D01*
X335945Y128529D01*
X335984Y128609D01*
X336018Y128690D01*
X336050Y128773D01*
X336077Y128858D01*
X336102Y128943D01*
X336122Y129029D01*
X336139Y129116D01*
X336152Y129204D01*
X336161Y129292D01*
X336167Y129380D01*
X336169Y129469D01*
X336169Y134691D01*
X336167Y134780D01*
X336161Y134868D01*
X336152Y134956D01*
X336139Y135044D01*
X336122Y135131D01*
X336102Y135217D01*
X336077Y135302D01*
X336050Y135387D01*
X336018Y135470D01*
X335984Y135551D01*
X335945Y135631D01*
X335904Y135709D01*
X335859Y135786D01*
X335811Y135860D01*
X335760Y135933D01*
X335706Y136003D01*
X335648Y136070D01*
X335588Y136136D01*
X335526Y136198D01*
X335460Y136258D01*
X335393Y136316D01*
X335323Y136370D01*
X335250Y136421D01*
X335176Y136469D01*
X335099Y136514D01*
X335021Y136555D01*
X334941Y136594D01*
X334860Y136628D01*
X334777Y136660D01*
X334692Y136687D01*
X334607Y136712D01*
X334521Y136732D01*
X334434Y136749D01*
X334346Y136762D01*
X334258Y136771D01*
X334170Y136777D01*
X334081Y136779D01*
X330948Y136779D01*
X263144Y136779D02*
X263144Y127381D01*
X263144Y136779D02*
X260533Y136779D01*
X260433Y136777D01*
X260333Y136771D01*
X260234Y136762D01*
X260134Y136748D01*
X260036Y136731D01*
X259938Y136710D01*
X259841Y136686D01*
X259745Y136657D01*
X259650Y136625D01*
X259557Y136590D01*
X259465Y136551D01*
X259374Y136508D01*
X259286Y136462D01*
X259199Y136412D01*
X259114Y136360D01*
X259031Y136304D01*
X258950Y136245D01*
X258872Y136182D01*
X258796Y136117D01*
X258722Y136049D01*
X258652Y135979D01*
X258584Y135905D01*
X258519Y135829D01*
X258456Y135751D01*
X258397Y135670D01*
X258341Y135587D01*
X258289Y135502D01*
X258239Y135415D01*
X258193Y135327D01*
X258150Y135236D01*
X258111Y135144D01*
X258076Y135051D01*
X258044Y134956D01*
X258015Y134860D01*
X257991Y134763D01*
X257970Y134665D01*
X257953Y134567D01*
X257939Y134467D01*
X257930Y134368D01*
X257924Y134268D01*
X257922Y134168D01*
X257923Y134168D02*
X257923Y129992D01*
X257922Y129992D02*
X257924Y129892D01*
X257930Y129792D01*
X257939Y129693D01*
X257953Y129593D01*
X257970Y129495D01*
X257991Y129397D01*
X258015Y129300D01*
X258044Y129204D01*
X258076Y129109D01*
X258111Y129016D01*
X258150Y128924D01*
X258193Y128833D01*
X258239Y128745D01*
X258289Y128658D01*
X258341Y128573D01*
X258397Y128490D01*
X258456Y128409D01*
X258519Y128331D01*
X258584Y128255D01*
X258652Y128181D01*
X258722Y128111D01*
X258796Y128043D01*
X258872Y127978D01*
X258950Y127915D01*
X259031Y127856D01*
X259114Y127800D01*
X259199Y127748D01*
X259286Y127698D01*
X259374Y127652D01*
X259465Y127609D01*
X259557Y127570D01*
X259650Y127535D01*
X259745Y127503D01*
X259841Y127474D01*
X259938Y127450D01*
X260036Y127429D01*
X260134Y127412D01*
X260234Y127398D01*
X260333Y127389D01*
X260433Y127383D01*
X260533Y127381D01*
X263144Y127381D01*
X251694Y127381D02*
X251694Y136779D01*
X249084Y136779D02*
X254305Y136779D01*
X235656Y127381D02*
X233567Y127381D01*
X235656Y127381D02*
X235745Y127383D01*
X235833Y127389D01*
X235921Y127398D01*
X236009Y127411D01*
X236096Y127428D01*
X236182Y127448D01*
X236267Y127473D01*
X236352Y127500D01*
X236435Y127532D01*
X236516Y127566D01*
X236596Y127605D01*
X236674Y127646D01*
X236751Y127691D01*
X236825Y127739D01*
X236898Y127790D01*
X236968Y127844D01*
X237035Y127902D01*
X237101Y127962D01*
X237163Y128024D01*
X237223Y128090D01*
X237281Y128157D01*
X237335Y128227D01*
X237386Y128300D01*
X237434Y128374D01*
X237479Y128451D01*
X237520Y128529D01*
X237559Y128609D01*
X237593Y128690D01*
X237625Y128773D01*
X237652Y128858D01*
X237677Y128943D01*
X237697Y129029D01*
X237714Y129116D01*
X237727Y129204D01*
X237736Y129292D01*
X237742Y129380D01*
X237744Y129469D01*
X237744Y134691D01*
X237742Y134780D01*
X237736Y134868D01*
X237727Y134956D01*
X237714Y135044D01*
X237697Y135131D01*
X237677Y135217D01*
X237652Y135302D01*
X237625Y135387D01*
X237593Y135470D01*
X237559Y135551D01*
X237520Y135631D01*
X237479Y135709D01*
X237434Y135786D01*
X237386Y135860D01*
X237335Y135933D01*
X237281Y136003D01*
X237223Y136070D01*
X237163Y136136D01*
X237101Y136198D01*
X237035Y136258D01*
X236968Y136316D01*
X236898Y136370D01*
X236825Y136421D01*
X236751Y136469D01*
X236674Y136514D01*
X236596Y136555D01*
X236516Y136594D01*
X236435Y136628D01*
X236352Y136660D01*
X236267Y136687D01*
X236182Y136712D01*
X236096Y136732D01*
X236009Y136749D01*
X235921Y136762D01*
X235833Y136771D01*
X235745Y136777D01*
X235656Y136779D01*
X233567Y136779D01*
X229662Y136779D02*
X229662Y127381D01*
X229662Y131036D02*
X224441Y136779D01*
X227574Y133124D02*
X224441Y127381D01*
M02*
