G04 EAGLE Gerber RS-274X export*
G75*
%MOMM*%
%FSLAX34Y34*%
%LPD*%
%INTop Copper*%
%IPPOS*%
%AMOC8*
5,1,8,0,0,1.08239X$1,22.5*%
G01*
%ADD10C,1.879600*%
%ADD11R,1.508000X1.508000*%
%ADD12C,1.508000*%
%ADD13R,0.762000X1.524000*%
%ADD14R,1.080000X1.050000*%
%ADD15R,1.050000X1.080000*%
%ADD16R,1.100000X1.000000*%
%ADD17C,0.406400*%
%ADD18C,1.752600*%


D10*
X381000Y342900D03*
X381000Y317500D03*
X381000Y292100D03*
X381000Y266700D03*
X381000Y241300D03*
X381000Y215900D03*
X381000Y190500D03*
X381000Y165100D03*
X381000Y139700D03*
X381000Y114300D03*
X381000Y88900D03*
X381000Y63500D03*
X228600Y63500D03*
X228600Y88900D03*
X228600Y114300D03*
X228600Y139700D03*
X228600Y165100D03*
X228600Y190500D03*
X228600Y215900D03*
X228600Y241300D03*
X228600Y266700D03*
X228600Y292100D03*
X228600Y317500D03*
X228600Y342900D03*
D11*
X266700Y352425D03*
D12*
X292100Y352425D03*
X317500Y352425D03*
X342900Y352425D03*
D10*
X66294Y205613D03*
X66294Y270637D03*
X111506Y205613D03*
X111506Y270637D03*
D13*
X69850Y299085D03*
X69850Y354965D03*
X107950Y299085D03*
X107950Y354965D03*
D10*
X520700Y123825D03*
X495300Y123825D03*
X520700Y149225D03*
X495300Y149225D03*
X520700Y174625D03*
X495300Y174625D03*
X520700Y200025D03*
X495300Y200025D03*
X520700Y225425D03*
X495300Y225425D03*
X82550Y28575D03*
X107950Y28575D03*
X133350Y28575D03*
X158750Y28575D03*
X184150Y28575D03*
D13*
X69850Y121285D03*
X69850Y177165D03*
X107950Y121285D03*
X107950Y177165D03*
D14*
X158750Y296050D03*
X158750Y313550D03*
D15*
X81775Y82550D03*
X64275Y82550D03*
D14*
X460375Y207150D03*
X460375Y224650D03*
D15*
X288150Y323850D03*
X270650Y323850D03*
D16*
X158750Y265675D03*
X158750Y248675D03*
X98425Y64525D03*
X98425Y81525D03*
X120650Y64525D03*
X120650Y81525D03*
D15*
X81775Y101600D03*
X64275Y101600D03*
D14*
X136525Y296050D03*
X136525Y313550D03*
D17*
X196850Y317500D02*
X228600Y317500D01*
X247650Y317500D01*
X254000Y323850D01*
X270650Y323850D01*
X69850Y177165D02*
X69850Y121285D01*
X69850Y177165D02*
X69850Y187325D01*
X66294Y190881D02*
X66294Y205613D01*
X66294Y190881D02*
X69850Y187325D01*
X66294Y205613D02*
X54737Y205613D01*
X47625Y212725D01*
X47625Y295275D01*
X51435Y299085D02*
X69850Y299085D01*
X51435Y299085D02*
X47625Y295275D01*
X69850Y299085D02*
X69850Y354965D01*
X136525Y313550D02*
X158750Y313550D01*
X136525Y313550D02*
X130950Y313550D01*
X127000Y317500D01*
X127000Y365125D01*
X123417Y368708D01*
X73025Y368708D01*
X69850Y365533D01*
X69850Y354965D01*
X381000Y292100D02*
X381000Y266700D01*
X184150Y28575D02*
X184150Y12700D01*
X180975Y9525D01*
X57150Y9525D01*
X50800Y15875D01*
X50800Y79375D01*
X381000Y266700D02*
X390525Y266700D01*
X431800Y225425D01*
X459600Y225425D01*
X495300Y225425D01*
X266700Y336550D02*
X266700Y352425D01*
X270650Y332600D02*
X270650Y323850D01*
X270650Y332600D02*
X266700Y336550D01*
X64275Y101600D02*
X64275Y82550D01*
X64275Y101600D02*
X64275Y108725D01*
X69850Y114300D01*
X69850Y121285D01*
X158750Y313550D02*
X159525Y314325D01*
X193675Y314325D02*
X196850Y317500D01*
X193675Y314325D02*
X159525Y314325D01*
X459600Y225425D02*
X460375Y224650D01*
X64275Y82550D02*
X53975Y82550D01*
X50800Y79375D01*
X374650Y241300D02*
X381000Y241300D01*
X342900Y273050D02*
X342900Y352425D01*
X342900Y273050D02*
X374650Y241300D01*
X371475Y215900D02*
X381000Y215900D01*
X371475Y215900D02*
X317500Y269875D01*
X317500Y352425D01*
X336550Y165100D02*
X381000Y165100D01*
X336550Y165100D02*
X307975Y193675D01*
X307975Y196850D01*
D18*
X307975Y196850D03*
X307975Y6350D03*
D17*
X234950Y6350D01*
X171450Y69850D01*
X152400Y69850D01*
X133350Y50800D01*
X133350Y28575D01*
X339725Y139700D02*
X381000Y139700D01*
X339725Y139700D02*
X282575Y196850D01*
D18*
X282575Y196850D03*
X282575Y22225D03*
D17*
X231775Y22225D02*
X171450Y82550D01*
X231775Y22225D02*
X282575Y22225D01*
X121675Y82550D02*
X120650Y81525D01*
X121675Y82550D02*
X171450Y82550D01*
X381000Y139700D02*
X409575Y139700D01*
X415925Y146050D01*
X438925Y207150D02*
X460375Y207150D01*
X415925Y184150D02*
X415925Y146050D01*
X415925Y184150D02*
X438925Y207150D01*
X381000Y114300D02*
X339725Y114300D01*
X257175Y196850D01*
D18*
X257175Y196850D03*
X257175Y38100D03*
D17*
X98425Y81525D02*
X98425Y85725D01*
X107950Y95250D01*
X171450Y95250D01*
X228600Y38100D01*
X257175Y38100D01*
X97400Y82550D02*
X81775Y82550D01*
X97400Y82550D02*
X98425Y81525D01*
X193675Y292100D02*
X228600Y292100D01*
X189725Y296050D02*
X158750Y296050D01*
X189725Y296050D02*
X193675Y292100D01*
X158750Y296050D02*
X158750Y265675D01*
X145025Y265675D01*
X130175Y250825D02*
X130175Y212725D01*
X123063Y205613D01*
X111506Y205613D01*
X130175Y250825D02*
X145025Y265675D01*
X158750Y248675D02*
X188350Y248675D01*
X206375Y266700D01*
X228600Y266700D01*
X260350Y266700D01*
X288150Y294500D02*
X288150Y323850D01*
X288150Y294500D02*
X260350Y266700D01*
X288150Y323850D02*
X288150Y332600D01*
X292100Y336550D01*
X292100Y352425D01*
X520700Y123825D02*
X520700Y111125D01*
X517525Y107950D01*
X472336Y107950D02*
X471932Y108354D01*
D18*
X471932Y108354D03*
X471488Y280988D03*
D17*
X452438Y280988D01*
X431800Y301625D01*
X472336Y107950D02*
X517525Y107950D01*
X292100Y352425D02*
X292100Y362358D01*
X298450Y368708D01*
X412750Y368708D01*
X431800Y349658D01*
X431800Y301625D01*
D18*
X158750Y53975D03*
X158750Y222250D03*
D17*
X158750Y248675D01*
X158750Y53975D02*
X158750Y28575D01*
X98425Y57150D02*
X98425Y64525D01*
X98425Y57150D02*
X82550Y41275D01*
X82550Y28575D01*
X120650Y57150D02*
X120650Y64525D01*
X120650Y57150D02*
X107950Y44450D01*
X107950Y28575D01*
X107950Y177165D02*
X161290Y177165D01*
X200025Y215900D01*
X228600Y215900D01*
X107950Y177165D02*
X107950Y121285D01*
X98425Y101600D02*
X81775Y101600D01*
X98425Y101600D02*
X107950Y111125D01*
X107950Y121285D01*
X206375Y241300D02*
X228600Y241300D01*
X155575Y190500D02*
X92075Y190500D01*
X85725Y196850D01*
X85725Y295275D01*
X89535Y299085D02*
X107950Y299085D01*
X206375Y241300D02*
X155575Y190500D01*
X85725Y295275D02*
X89535Y299085D01*
X107950Y299085D02*
X107950Y354965D01*
X107950Y299085D02*
X120015Y299085D01*
X123050Y296050D02*
X136525Y296050D01*
X123050Y296050D02*
X120015Y299085D01*
X228600Y139700D02*
X250825Y139700D01*
X361950Y28575D01*
X523875Y95250D02*
X536575Y107950D01*
X536575Y146050D01*
X533400Y149225D01*
X520700Y149225D01*
X409575Y28575D02*
X361950Y28575D01*
X409575Y28575D02*
X454025Y73025D01*
X488950Y95250D02*
X523875Y95250D01*
X466725Y73025D02*
X454025Y73025D01*
X466725Y73025D02*
X488950Y95250D01*
X263525Y114300D02*
X228600Y114300D01*
X358775Y19050D02*
X412750Y19050D01*
X457200Y63500D01*
X546100Y104775D02*
X546100Y171450D01*
X542925Y174625D01*
X520700Y174625D01*
X358775Y19050D02*
X263525Y114300D01*
X492125Y85725D02*
X527050Y85725D01*
X546100Y104775D01*
X469900Y63500D02*
X457200Y63500D01*
X469900Y63500D02*
X492125Y85725D01*
X276225Y88900D02*
X228600Y88900D01*
X276225Y88900D02*
X355600Y9525D01*
X415925Y9525D01*
X460375Y53975D01*
X495300Y76200D02*
X530225Y76200D01*
X555625Y101600D01*
X555625Y196850D02*
X552450Y200025D01*
X520700Y200025D01*
X555625Y196850D02*
X555625Y101600D01*
X473075Y53975D02*
X460375Y53975D01*
X473075Y53975D02*
X495300Y76200D01*
X288925Y63500D02*
X228600Y63500D01*
X288925Y63500D02*
X352933Y-508D01*
X421767Y-508D02*
X466725Y44450D01*
X498475Y66675D02*
X533400Y66675D01*
X565150Y98425D01*
X565150Y219075D01*
X558800Y225425D01*
X520700Y225425D01*
X421767Y-508D02*
X352933Y-508D01*
X466725Y44450D02*
X476250Y44450D01*
X498475Y66675D01*
X419100Y85725D02*
X396875Y85725D01*
X393700Y88900D01*
X381000Y88900D01*
X419100Y85725D02*
X428625Y95250D01*
X428625Y146050D01*
X482600Y200025D01*
X495300Y200025D01*
X495300Y174625D02*
X482600Y174625D01*
X438150Y130175D01*
X438150Y92075D01*
X409575Y63500D01*
X381000Y63500D01*
X234950Y190500D02*
X228600Y190500D01*
X234950Y190500D02*
X361950Y63500D01*
X361950Y53975D01*
X368300Y47625D01*
X406400Y47625D01*
X447675Y88900D01*
X447675Y120650D01*
X476250Y149225D01*
X495300Y149225D01*
X495300Y123825D02*
X463550Y123825D01*
X456438Y116713D02*
X456438Y86585D01*
X407953Y38100D01*
X365125Y38100D01*
X238125Y165100D01*
X228600Y165100D01*
X456438Y116713D02*
X463550Y123825D01*
M02*
