G04 EAGLE Gerber RS-274X export*
G75*
%MOMM*%
%FSLAX34Y34*%
%LPD*%
%INSilkscreen Top*%
%IPPOS*%
%AMOC8*
5,1,8,0,0,1.08239X$1,22.5*%
G01*
%ADD10C,0.127000*%
%ADD11C,0.076200*%
%ADD12C,0.101600*%
%ADD13C,0.203200*%
%ADD14C,0.152400*%


D10*
X167640Y365125D02*
X441960Y365125D01*
X441960Y85725D01*
X381000Y85725D01*
X228600Y85725D01*
X167640Y85725D01*
X167640Y365125D01*
X254000Y358775D02*
X260350Y365125D01*
X273050Y365125D02*
X279400Y358775D01*
X285750Y365125D01*
X298450Y365125D02*
X304800Y358775D01*
X311150Y365125D01*
X323850Y365125D02*
X330200Y358775D01*
X336550Y365125D01*
X349250Y365125D02*
X355600Y358775D01*
X355600Y346075D02*
X349250Y339725D01*
X336550Y339725D01*
X330200Y346075D01*
X323850Y339725D01*
X311150Y339725D01*
X304800Y346075D01*
X298450Y339725D01*
X285750Y339725D01*
X279400Y346075D01*
X273050Y339725D01*
X260350Y339725D01*
X254000Y346075D01*
X254000Y358775D01*
X190500Y306705D02*
X419100Y306705D01*
X419100Y169545D01*
X190500Y169545D01*
X190500Y306705D01*
X355600Y346075D02*
X355600Y358775D01*
D11*
X259557Y330087D02*
X257991Y330087D01*
X259557Y330087D02*
X259557Y324866D01*
X256424Y324866D01*
X256335Y324868D01*
X256247Y324874D01*
X256159Y324883D01*
X256071Y324896D01*
X255984Y324913D01*
X255898Y324933D01*
X255813Y324958D01*
X255728Y324985D01*
X255645Y325017D01*
X255564Y325051D01*
X255484Y325090D01*
X255406Y325131D01*
X255329Y325176D01*
X255255Y325224D01*
X255182Y325275D01*
X255112Y325329D01*
X255045Y325387D01*
X254979Y325447D01*
X254917Y325509D01*
X254857Y325575D01*
X254799Y325642D01*
X254745Y325712D01*
X254694Y325785D01*
X254646Y325859D01*
X254601Y325936D01*
X254560Y326014D01*
X254521Y326094D01*
X254487Y326175D01*
X254455Y326258D01*
X254428Y326343D01*
X254403Y326428D01*
X254383Y326514D01*
X254366Y326601D01*
X254353Y326689D01*
X254344Y326777D01*
X254338Y326865D01*
X254336Y326954D01*
X254336Y332176D01*
X254338Y332267D01*
X254344Y332358D01*
X254354Y332449D01*
X254368Y332539D01*
X254385Y332628D01*
X254407Y332716D01*
X254433Y332804D01*
X254462Y332890D01*
X254495Y332975D01*
X254532Y333058D01*
X254572Y333140D01*
X254616Y333220D01*
X254663Y333298D01*
X254714Y333374D01*
X254767Y333447D01*
X254824Y333518D01*
X254885Y333587D01*
X254948Y333652D01*
X255013Y333715D01*
X255082Y333775D01*
X255153Y333833D01*
X255226Y333886D01*
X255302Y333937D01*
X255380Y333984D01*
X255460Y334028D01*
X255542Y334068D01*
X255625Y334105D01*
X255710Y334138D01*
X255796Y334167D01*
X255884Y334193D01*
X255972Y334215D01*
X256061Y334232D01*
X256151Y334246D01*
X256242Y334256D01*
X256333Y334262D01*
X256424Y334264D01*
X259557Y334264D01*
X264089Y334264D02*
X264089Y324866D01*
X269311Y324866D02*
X264089Y334264D01*
X269311Y334264D02*
X269311Y324866D01*
X273843Y324866D02*
X273843Y334264D01*
X276454Y334264D01*
X276554Y334262D01*
X276654Y334256D01*
X276753Y334247D01*
X276853Y334233D01*
X276951Y334216D01*
X277049Y334195D01*
X277146Y334171D01*
X277242Y334142D01*
X277337Y334110D01*
X277430Y334075D01*
X277522Y334036D01*
X277613Y333993D01*
X277701Y333947D01*
X277788Y333897D01*
X277873Y333845D01*
X277956Y333789D01*
X278037Y333730D01*
X278115Y333667D01*
X278191Y333602D01*
X278265Y333534D01*
X278335Y333464D01*
X278403Y333390D01*
X278468Y333314D01*
X278531Y333236D01*
X278590Y333155D01*
X278646Y333072D01*
X278698Y332987D01*
X278748Y332900D01*
X278794Y332812D01*
X278837Y332721D01*
X278876Y332629D01*
X278911Y332536D01*
X278943Y332441D01*
X278972Y332345D01*
X278996Y332248D01*
X279017Y332150D01*
X279034Y332052D01*
X279048Y331952D01*
X279057Y331853D01*
X279063Y331753D01*
X279065Y331653D01*
X279064Y331653D02*
X279064Y327477D01*
X279065Y327477D02*
X279063Y327377D01*
X279057Y327277D01*
X279048Y327178D01*
X279034Y327078D01*
X279017Y326980D01*
X278996Y326882D01*
X278972Y326785D01*
X278943Y326689D01*
X278911Y326594D01*
X278876Y326501D01*
X278837Y326409D01*
X278794Y326318D01*
X278748Y326230D01*
X278698Y326143D01*
X278646Y326058D01*
X278590Y325975D01*
X278531Y325894D01*
X278468Y325816D01*
X278403Y325740D01*
X278335Y325666D01*
X278265Y325596D01*
X278191Y325528D01*
X278115Y325463D01*
X278037Y325400D01*
X277956Y325341D01*
X277873Y325285D01*
X277788Y325233D01*
X277701Y325183D01*
X277613Y325137D01*
X277522Y325094D01*
X277430Y325055D01*
X277337Y325020D01*
X277242Y324988D01*
X277146Y324959D01*
X277049Y324935D01*
X276951Y324914D01*
X276853Y324897D01*
X276753Y324883D01*
X276654Y324874D01*
X276554Y324868D01*
X276454Y324866D01*
X273843Y324866D01*
X281381Y321564D02*
X284514Y312166D01*
X287647Y321564D01*
X293110Y312166D02*
X295199Y312166D01*
X293110Y312166D02*
X293021Y312168D01*
X292933Y312174D01*
X292845Y312183D01*
X292757Y312196D01*
X292670Y312213D01*
X292584Y312233D01*
X292499Y312258D01*
X292414Y312285D01*
X292331Y312317D01*
X292250Y312351D01*
X292170Y312390D01*
X292092Y312431D01*
X292015Y312476D01*
X291941Y312524D01*
X291868Y312575D01*
X291798Y312629D01*
X291731Y312687D01*
X291665Y312747D01*
X291603Y312809D01*
X291543Y312875D01*
X291485Y312942D01*
X291431Y313012D01*
X291380Y313085D01*
X291332Y313159D01*
X291287Y313236D01*
X291246Y313314D01*
X291207Y313394D01*
X291173Y313475D01*
X291141Y313558D01*
X291114Y313643D01*
X291089Y313728D01*
X291069Y313814D01*
X291052Y313901D01*
X291039Y313989D01*
X291030Y314077D01*
X291024Y314165D01*
X291022Y314254D01*
X291022Y319476D01*
X291024Y319567D01*
X291030Y319658D01*
X291040Y319749D01*
X291054Y319839D01*
X291071Y319928D01*
X291093Y320016D01*
X291119Y320104D01*
X291148Y320190D01*
X291181Y320275D01*
X291218Y320358D01*
X291258Y320440D01*
X291302Y320520D01*
X291349Y320598D01*
X291400Y320674D01*
X291453Y320747D01*
X291510Y320818D01*
X291571Y320887D01*
X291634Y320952D01*
X291699Y321015D01*
X291768Y321075D01*
X291839Y321133D01*
X291912Y321186D01*
X291988Y321237D01*
X292066Y321284D01*
X292146Y321328D01*
X292228Y321368D01*
X292311Y321405D01*
X292396Y321438D01*
X292482Y321467D01*
X292570Y321493D01*
X292658Y321515D01*
X292747Y321532D01*
X292837Y321546D01*
X292928Y321556D01*
X293019Y321562D01*
X293110Y321564D01*
X295199Y321564D01*
X300730Y312166D02*
X302819Y312166D01*
X300730Y312166D02*
X300641Y312168D01*
X300553Y312174D01*
X300465Y312183D01*
X300377Y312196D01*
X300290Y312213D01*
X300204Y312233D01*
X300119Y312258D01*
X300034Y312285D01*
X299951Y312317D01*
X299870Y312351D01*
X299790Y312390D01*
X299712Y312431D01*
X299635Y312476D01*
X299561Y312524D01*
X299488Y312575D01*
X299418Y312629D01*
X299351Y312687D01*
X299285Y312747D01*
X299223Y312809D01*
X299163Y312875D01*
X299105Y312942D01*
X299051Y313012D01*
X299000Y313085D01*
X298952Y313159D01*
X298907Y313236D01*
X298866Y313314D01*
X298827Y313394D01*
X298793Y313475D01*
X298761Y313558D01*
X298734Y313643D01*
X298709Y313728D01*
X298689Y313814D01*
X298672Y313901D01*
X298659Y313989D01*
X298650Y314077D01*
X298644Y314165D01*
X298642Y314254D01*
X298642Y319476D01*
X298644Y319567D01*
X298650Y319658D01*
X298660Y319749D01*
X298674Y319839D01*
X298691Y319928D01*
X298713Y320016D01*
X298739Y320104D01*
X298768Y320190D01*
X298801Y320275D01*
X298838Y320358D01*
X298878Y320440D01*
X298922Y320520D01*
X298969Y320598D01*
X299020Y320674D01*
X299073Y320747D01*
X299130Y320818D01*
X299191Y320887D01*
X299254Y320952D01*
X299319Y321015D01*
X299388Y321075D01*
X299459Y321133D01*
X299532Y321186D01*
X299608Y321237D01*
X299686Y321284D01*
X299766Y321328D01*
X299848Y321368D01*
X299931Y321405D01*
X300016Y321438D01*
X300102Y321467D01*
X300190Y321493D01*
X300278Y321515D01*
X300367Y321532D01*
X300457Y321546D01*
X300548Y321556D01*
X300639Y321562D01*
X300730Y321564D01*
X302819Y321564D01*
X310154Y324866D02*
X310243Y324868D01*
X310331Y324874D01*
X310419Y324883D01*
X310507Y324896D01*
X310594Y324913D01*
X310680Y324933D01*
X310765Y324958D01*
X310850Y324985D01*
X310933Y325017D01*
X311014Y325051D01*
X311094Y325090D01*
X311172Y325131D01*
X311249Y325176D01*
X311323Y325224D01*
X311396Y325275D01*
X311466Y325329D01*
X311533Y325387D01*
X311599Y325447D01*
X311661Y325509D01*
X311721Y325575D01*
X311779Y325642D01*
X311833Y325712D01*
X311884Y325785D01*
X311932Y325859D01*
X311977Y325936D01*
X312018Y326014D01*
X312057Y326094D01*
X312091Y326175D01*
X312123Y326258D01*
X312150Y326343D01*
X312175Y326428D01*
X312195Y326514D01*
X312212Y326601D01*
X312225Y326689D01*
X312234Y326777D01*
X312240Y326865D01*
X312242Y326954D01*
X310154Y324866D02*
X310025Y324868D01*
X309896Y324874D01*
X309767Y324883D01*
X309639Y324896D01*
X309511Y324913D01*
X309384Y324934D01*
X309257Y324958D01*
X309131Y324986D01*
X309006Y325018D01*
X308882Y325053D01*
X308759Y325092D01*
X308637Y325135D01*
X308517Y325181D01*
X308398Y325231D01*
X308280Y325284D01*
X308164Y325340D01*
X308050Y325400D01*
X307937Y325463D01*
X307827Y325530D01*
X307718Y325599D01*
X307612Y325672D01*
X307507Y325748D01*
X307405Y325827D01*
X307306Y325909D01*
X307208Y325993D01*
X307113Y326081D01*
X307021Y326171D01*
X307282Y332176D02*
X307284Y332265D01*
X307290Y332353D01*
X307299Y332441D01*
X307312Y332529D01*
X307329Y332616D01*
X307349Y332702D01*
X307374Y332787D01*
X307401Y332872D01*
X307433Y332955D01*
X307467Y333036D01*
X307506Y333116D01*
X307547Y333194D01*
X307592Y333271D01*
X307640Y333345D01*
X307691Y333418D01*
X307745Y333488D01*
X307803Y333555D01*
X307863Y333621D01*
X307925Y333683D01*
X307991Y333743D01*
X308058Y333801D01*
X308128Y333855D01*
X308201Y333906D01*
X308275Y333954D01*
X308352Y333999D01*
X308430Y334040D01*
X308510Y334079D01*
X308591Y334113D01*
X308674Y334145D01*
X308759Y334172D01*
X308844Y334197D01*
X308930Y334217D01*
X309017Y334234D01*
X309105Y334247D01*
X309193Y334256D01*
X309281Y334262D01*
X309370Y334264D01*
X309490Y334262D01*
X309610Y334257D01*
X309730Y334247D01*
X309849Y334235D01*
X309968Y334218D01*
X310086Y334198D01*
X310204Y334174D01*
X310320Y334147D01*
X310436Y334116D01*
X310551Y334082D01*
X310665Y334044D01*
X310778Y334002D01*
X310889Y333957D01*
X310999Y333909D01*
X311107Y333858D01*
X311214Y333803D01*
X311319Y333745D01*
X311422Y333683D01*
X311523Y333619D01*
X311623Y333551D01*
X311720Y333481D01*
X308326Y330349D02*
X308248Y330397D01*
X308172Y330449D01*
X308099Y330503D01*
X308028Y330561D01*
X307959Y330622D01*
X307893Y330686D01*
X307830Y330753D01*
X307770Y330822D01*
X307713Y330894D01*
X307659Y330968D01*
X307609Y331045D01*
X307561Y331124D01*
X307518Y331204D01*
X307477Y331287D01*
X307441Y331371D01*
X307408Y331456D01*
X307379Y331543D01*
X307353Y331632D01*
X307331Y331721D01*
X307314Y331811D01*
X307300Y331901D01*
X307290Y331993D01*
X307284Y332084D01*
X307282Y332176D01*
X311198Y328781D02*
X311276Y328733D01*
X311352Y328681D01*
X311425Y328627D01*
X311496Y328569D01*
X311565Y328508D01*
X311631Y328444D01*
X311694Y328377D01*
X311754Y328308D01*
X311811Y328236D01*
X311865Y328162D01*
X311915Y328085D01*
X311963Y328006D01*
X312006Y327926D01*
X312047Y327843D01*
X312083Y327759D01*
X312116Y327674D01*
X312145Y327587D01*
X312171Y327498D01*
X312193Y327409D01*
X312210Y327319D01*
X312224Y327229D01*
X312234Y327137D01*
X312240Y327046D01*
X312242Y326954D01*
X311198Y328782D02*
X308326Y330348D01*
X317923Y324866D02*
X320011Y324866D01*
X317923Y324866D02*
X317834Y324868D01*
X317746Y324874D01*
X317658Y324883D01*
X317570Y324896D01*
X317483Y324913D01*
X317397Y324933D01*
X317312Y324958D01*
X317227Y324985D01*
X317144Y325017D01*
X317063Y325051D01*
X316983Y325090D01*
X316905Y325131D01*
X316828Y325176D01*
X316754Y325224D01*
X316681Y325275D01*
X316611Y325329D01*
X316544Y325387D01*
X316478Y325447D01*
X316416Y325509D01*
X316356Y325575D01*
X316298Y325642D01*
X316244Y325712D01*
X316193Y325785D01*
X316145Y325859D01*
X316100Y325936D01*
X316059Y326014D01*
X316020Y326094D01*
X315986Y326175D01*
X315954Y326258D01*
X315927Y326343D01*
X315902Y326428D01*
X315882Y326514D01*
X315865Y326601D01*
X315852Y326689D01*
X315843Y326777D01*
X315837Y326865D01*
X315835Y326954D01*
X315834Y326954D02*
X315834Y332176D01*
X315835Y332176D02*
X315837Y332267D01*
X315843Y332358D01*
X315853Y332449D01*
X315867Y332539D01*
X315884Y332628D01*
X315906Y332716D01*
X315932Y332804D01*
X315961Y332890D01*
X315994Y332975D01*
X316031Y333058D01*
X316071Y333140D01*
X316115Y333220D01*
X316162Y333298D01*
X316213Y333374D01*
X316266Y333447D01*
X316323Y333518D01*
X316384Y333587D01*
X316447Y333652D01*
X316512Y333715D01*
X316581Y333775D01*
X316652Y333833D01*
X316725Y333886D01*
X316801Y333937D01*
X316879Y333984D01*
X316959Y334028D01*
X317041Y334068D01*
X317124Y334105D01*
X317209Y334138D01*
X317295Y334167D01*
X317383Y334193D01*
X317471Y334215D01*
X317560Y334232D01*
X317650Y334246D01*
X317741Y334256D01*
X317832Y334262D01*
X317923Y334264D01*
X320011Y334264D01*
X323802Y334264D02*
X323802Y324866D01*
X327979Y324866D01*
X335953Y314254D02*
X335951Y314165D01*
X335945Y314077D01*
X335936Y313989D01*
X335923Y313901D01*
X335906Y313814D01*
X335886Y313728D01*
X335861Y313643D01*
X335834Y313558D01*
X335802Y313475D01*
X335768Y313394D01*
X335729Y313314D01*
X335688Y313236D01*
X335643Y313159D01*
X335595Y313085D01*
X335544Y313012D01*
X335490Y312942D01*
X335432Y312875D01*
X335372Y312809D01*
X335310Y312747D01*
X335244Y312687D01*
X335177Y312629D01*
X335107Y312575D01*
X335034Y312524D01*
X334960Y312476D01*
X334883Y312431D01*
X334805Y312390D01*
X334725Y312351D01*
X334644Y312317D01*
X334561Y312285D01*
X334476Y312258D01*
X334391Y312233D01*
X334305Y312213D01*
X334218Y312196D01*
X334130Y312183D01*
X334042Y312174D01*
X333954Y312168D01*
X333865Y312166D01*
X333736Y312168D01*
X333607Y312174D01*
X333478Y312183D01*
X333350Y312196D01*
X333222Y312213D01*
X333095Y312234D01*
X332968Y312258D01*
X332842Y312286D01*
X332717Y312318D01*
X332593Y312353D01*
X332470Y312392D01*
X332348Y312435D01*
X332228Y312481D01*
X332109Y312531D01*
X331991Y312584D01*
X331875Y312640D01*
X331761Y312700D01*
X331648Y312763D01*
X331538Y312830D01*
X331429Y312899D01*
X331323Y312972D01*
X331218Y313048D01*
X331116Y313127D01*
X331017Y313209D01*
X330919Y313293D01*
X330824Y313381D01*
X330732Y313471D01*
X330994Y319476D02*
X330996Y319565D01*
X331002Y319653D01*
X331011Y319741D01*
X331024Y319829D01*
X331041Y319916D01*
X331061Y320002D01*
X331086Y320087D01*
X331113Y320172D01*
X331145Y320255D01*
X331179Y320336D01*
X331218Y320416D01*
X331259Y320494D01*
X331304Y320571D01*
X331352Y320645D01*
X331403Y320718D01*
X331457Y320788D01*
X331515Y320855D01*
X331575Y320921D01*
X331637Y320983D01*
X331703Y321043D01*
X331770Y321101D01*
X331840Y321155D01*
X331913Y321206D01*
X331987Y321254D01*
X332064Y321299D01*
X332142Y321340D01*
X332222Y321379D01*
X332303Y321413D01*
X332386Y321445D01*
X332471Y321472D01*
X332556Y321497D01*
X332642Y321517D01*
X332729Y321534D01*
X332817Y321547D01*
X332905Y321556D01*
X332993Y321562D01*
X333082Y321564D01*
X333081Y321564D02*
X333201Y321562D01*
X333321Y321557D01*
X333441Y321547D01*
X333560Y321535D01*
X333679Y321518D01*
X333797Y321498D01*
X333915Y321474D01*
X334031Y321447D01*
X334147Y321416D01*
X334262Y321382D01*
X334376Y321344D01*
X334489Y321302D01*
X334600Y321257D01*
X334710Y321209D01*
X334818Y321158D01*
X334925Y321103D01*
X335030Y321045D01*
X335133Y320983D01*
X335234Y320919D01*
X335334Y320851D01*
X335431Y320781D01*
X332037Y317649D02*
X331959Y317697D01*
X331883Y317749D01*
X331810Y317803D01*
X331739Y317861D01*
X331670Y317922D01*
X331604Y317986D01*
X331541Y318053D01*
X331481Y318122D01*
X331424Y318194D01*
X331370Y318268D01*
X331320Y318345D01*
X331272Y318424D01*
X331229Y318504D01*
X331188Y318587D01*
X331152Y318671D01*
X331119Y318756D01*
X331090Y318843D01*
X331064Y318932D01*
X331042Y319021D01*
X331025Y319111D01*
X331011Y319201D01*
X331001Y319293D01*
X330995Y319384D01*
X330993Y319476D01*
X334909Y316081D02*
X334987Y316033D01*
X335063Y315981D01*
X335136Y315927D01*
X335207Y315869D01*
X335276Y315808D01*
X335342Y315744D01*
X335405Y315677D01*
X335465Y315608D01*
X335522Y315536D01*
X335576Y315462D01*
X335626Y315385D01*
X335674Y315306D01*
X335717Y315226D01*
X335758Y315143D01*
X335794Y315059D01*
X335827Y314974D01*
X335856Y314887D01*
X335882Y314798D01*
X335904Y314709D01*
X335921Y314619D01*
X335935Y314529D01*
X335945Y314437D01*
X335951Y314346D01*
X335953Y314254D01*
X334909Y316082D02*
X332037Y317648D01*
X339876Y321564D02*
X339876Y312166D01*
X339876Y321564D02*
X342487Y321564D01*
X342587Y321562D01*
X342687Y321556D01*
X342786Y321547D01*
X342886Y321533D01*
X342984Y321516D01*
X343082Y321495D01*
X343179Y321471D01*
X343275Y321442D01*
X343370Y321410D01*
X343463Y321375D01*
X343555Y321336D01*
X343646Y321293D01*
X343734Y321247D01*
X343821Y321197D01*
X343906Y321145D01*
X343989Y321089D01*
X344070Y321030D01*
X344148Y320967D01*
X344224Y320902D01*
X344298Y320834D01*
X344368Y320764D01*
X344436Y320690D01*
X344501Y320614D01*
X344564Y320536D01*
X344623Y320455D01*
X344679Y320372D01*
X344731Y320287D01*
X344781Y320200D01*
X344827Y320112D01*
X344870Y320021D01*
X344909Y319929D01*
X344944Y319836D01*
X344976Y319741D01*
X345005Y319645D01*
X345029Y319548D01*
X345050Y319450D01*
X345067Y319352D01*
X345081Y319252D01*
X345090Y319153D01*
X345096Y319053D01*
X345098Y318953D01*
X345097Y318953D02*
X345097Y314777D01*
X345098Y314777D02*
X345096Y314677D01*
X345090Y314577D01*
X345081Y314478D01*
X345067Y314378D01*
X345050Y314280D01*
X345029Y314182D01*
X345005Y314085D01*
X344976Y313989D01*
X344944Y313894D01*
X344909Y313801D01*
X344870Y313709D01*
X344827Y313618D01*
X344781Y313530D01*
X344731Y313443D01*
X344679Y313358D01*
X344623Y313275D01*
X344564Y313194D01*
X344501Y313116D01*
X344436Y313040D01*
X344368Y312966D01*
X344298Y312896D01*
X344224Y312828D01*
X344148Y312763D01*
X344070Y312700D01*
X343989Y312641D01*
X343906Y312585D01*
X343821Y312533D01*
X343734Y312483D01*
X343646Y312437D01*
X343555Y312394D01*
X343463Y312355D01*
X343370Y312320D01*
X343275Y312288D01*
X343179Y312259D01*
X343082Y312235D01*
X342984Y312214D01*
X342886Y312197D01*
X342786Y312183D01*
X342687Y312174D01*
X342587Y312168D01*
X342487Y312166D01*
X339876Y312166D01*
X348803Y312166D02*
X351935Y321564D01*
X355068Y312166D01*
X354285Y314516D02*
X349586Y314516D01*
D10*
X292100Y325755D02*
X292100Y335915D01*
X342900Y335915D02*
X342900Y325755D01*
X241300Y104775D02*
X228600Y85725D01*
X241300Y104775D02*
X368300Y104775D01*
X381000Y85725D01*
D12*
X290696Y381579D02*
X290696Y390017D01*
X290696Y381579D02*
X290698Y381466D01*
X290704Y381353D01*
X290714Y381240D01*
X290728Y381127D01*
X290745Y381015D01*
X290767Y380904D01*
X290792Y380794D01*
X290822Y380684D01*
X290855Y380576D01*
X290892Y380469D01*
X290932Y380363D01*
X290977Y380259D01*
X291025Y380156D01*
X291076Y380055D01*
X291131Y379956D01*
X291189Y379859D01*
X291251Y379764D01*
X291316Y379671D01*
X291384Y379581D01*
X291455Y379493D01*
X291530Y379407D01*
X291607Y379324D01*
X291687Y379244D01*
X291770Y379167D01*
X291856Y379092D01*
X291944Y379021D01*
X292034Y378953D01*
X292127Y378888D01*
X292222Y378826D01*
X292319Y378768D01*
X292418Y378713D01*
X292519Y378662D01*
X292622Y378614D01*
X292726Y378569D01*
X292832Y378529D01*
X292939Y378492D01*
X293047Y378459D01*
X293157Y378429D01*
X293267Y378404D01*
X293378Y378382D01*
X293490Y378365D01*
X293603Y378351D01*
X293716Y378341D01*
X293829Y378335D01*
X293942Y378333D01*
X294055Y378335D01*
X294168Y378341D01*
X294281Y378351D01*
X294394Y378365D01*
X294506Y378382D01*
X294617Y378404D01*
X294727Y378429D01*
X294837Y378459D01*
X294945Y378492D01*
X295052Y378529D01*
X295158Y378569D01*
X295262Y378614D01*
X295365Y378662D01*
X295466Y378713D01*
X295565Y378768D01*
X295662Y378826D01*
X295757Y378888D01*
X295850Y378953D01*
X295940Y379021D01*
X296028Y379092D01*
X296114Y379167D01*
X296197Y379244D01*
X296277Y379324D01*
X296354Y379407D01*
X296429Y379493D01*
X296500Y379581D01*
X296568Y379671D01*
X296633Y379764D01*
X296695Y379859D01*
X296753Y379956D01*
X296808Y380055D01*
X296859Y380156D01*
X296907Y380259D01*
X296952Y380363D01*
X296992Y380469D01*
X297029Y380576D01*
X297062Y380684D01*
X297092Y380794D01*
X297117Y380904D01*
X297139Y381015D01*
X297156Y381127D01*
X297170Y381240D01*
X297180Y381353D01*
X297186Y381466D01*
X297188Y381579D01*
X297187Y381579D02*
X297187Y390017D01*
X304991Y390017D02*
X304991Y378333D01*
X304991Y384175D02*
X303368Y385149D01*
X303367Y385148D02*
X303294Y385195D01*
X303223Y385244D01*
X303153Y385297D01*
X303087Y385353D01*
X303023Y385412D01*
X302961Y385473D01*
X302903Y385537D01*
X302847Y385604D01*
X302795Y385673D01*
X302745Y385745D01*
X302699Y385819D01*
X302656Y385894D01*
X302617Y385972D01*
X302581Y386051D01*
X302549Y386132D01*
X302520Y386214D01*
X302495Y386297D01*
X302474Y386381D01*
X302457Y386466D01*
X302443Y386552D01*
X302434Y386638D01*
X302428Y386725D01*
X302426Y386812D01*
X302428Y386899D01*
X302434Y386986D01*
X302444Y387072D01*
X302457Y387158D01*
X302475Y387243D01*
X302496Y387327D01*
X302521Y387410D01*
X302550Y387493D01*
X302582Y387573D01*
X302618Y387652D01*
X302657Y387730D01*
X302700Y387805D01*
X302747Y387879D01*
X302796Y387950D01*
X302849Y388020D01*
X302904Y388086D01*
X302963Y388150D01*
X303024Y388212D01*
X303089Y388271D01*
X303155Y388326D01*
X303224Y388379D01*
X303296Y388429D01*
X303369Y388475D01*
X303445Y388518D01*
X303522Y388557D01*
X303601Y388593D01*
X303682Y388626D01*
X303764Y388654D01*
X303847Y388680D01*
X303931Y388701D01*
X304017Y388718D01*
X304017Y388719D02*
X304157Y388743D01*
X304299Y388763D01*
X304440Y388779D01*
X304582Y388790D01*
X304725Y388798D01*
X304867Y388802D01*
X305010Y388803D01*
X305153Y388799D01*
X305295Y388791D01*
X305437Y388779D01*
X305579Y388763D01*
X305720Y388744D01*
X305861Y388720D01*
X306001Y388693D01*
X306140Y388661D01*
X306278Y388626D01*
X306416Y388587D01*
X306552Y388544D01*
X306686Y388498D01*
X306820Y388447D01*
X306952Y388394D01*
X307082Y388336D01*
X307211Y388275D01*
X307338Y388210D01*
X307464Y388142D01*
X307587Y388070D01*
X304991Y384175D02*
X306613Y383201D01*
X306614Y383202D02*
X306687Y383155D01*
X306758Y383106D01*
X306828Y383053D01*
X306894Y382997D01*
X306958Y382938D01*
X307020Y382877D01*
X307078Y382813D01*
X307134Y382746D01*
X307186Y382677D01*
X307236Y382605D01*
X307282Y382531D01*
X307325Y382456D01*
X307364Y382378D01*
X307400Y382299D01*
X307432Y382218D01*
X307461Y382136D01*
X307486Y382053D01*
X307507Y381969D01*
X307524Y381884D01*
X307538Y381798D01*
X307547Y381712D01*
X307553Y381625D01*
X307555Y381538D01*
X307553Y381451D01*
X307547Y381364D01*
X307537Y381278D01*
X307524Y381192D01*
X307506Y381107D01*
X307485Y381023D01*
X307460Y380940D01*
X307431Y380857D01*
X307399Y380777D01*
X307363Y380698D01*
X307324Y380620D01*
X307281Y380545D01*
X307234Y380471D01*
X307185Y380400D01*
X307132Y380330D01*
X307077Y380264D01*
X307018Y380200D01*
X306957Y380138D01*
X306892Y380079D01*
X306826Y380024D01*
X306757Y379971D01*
X306685Y379921D01*
X306612Y379875D01*
X306536Y379832D01*
X306459Y379793D01*
X306380Y379757D01*
X306299Y379724D01*
X306217Y379696D01*
X306134Y379670D01*
X306050Y379649D01*
X305965Y379632D01*
X305964Y379631D02*
X305824Y379607D01*
X305682Y379587D01*
X305541Y379571D01*
X305399Y379560D01*
X305256Y379552D01*
X305114Y379548D01*
X304971Y379547D01*
X304828Y379551D01*
X304686Y379559D01*
X304544Y379571D01*
X304402Y379587D01*
X304261Y379606D01*
X304120Y379630D01*
X303980Y379657D01*
X303841Y379689D01*
X303703Y379724D01*
X303565Y379763D01*
X303429Y379806D01*
X303295Y379852D01*
X303161Y379903D01*
X303029Y379956D01*
X302899Y380014D01*
X302770Y380075D01*
X302643Y380140D01*
X302517Y380208D01*
X302394Y380280D01*
X312413Y387421D02*
X315658Y390017D01*
X315658Y378333D01*
X312413Y378333D02*
X318904Y378333D01*
D13*
X58420Y259715D02*
X58420Y216535D01*
X119380Y216535D02*
X119380Y259715D01*
X99060Y268605D02*
X78920Y268605D01*
X78620Y207645D02*
X99060Y207645D01*
X71120Y238125D02*
X71125Y238561D01*
X71141Y238997D01*
X71168Y239433D01*
X71206Y239868D01*
X71254Y240301D01*
X71312Y240734D01*
X71382Y241165D01*
X71462Y241594D01*
X71552Y242021D01*
X71653Y242445D01*
X71764Y242867D01*
X71886Y243286D01*
X72017Y243702D01*
X72159Y244115D01*
X72311Y244524D01*
X72473Y244929D01*
X72645Y245330D01*
X72827Y245727D01*
X73018Y246119D01*
X73219Y246506D01*
X73430Y246889D01*
X73650Y247266D01*
X73879Y247637D01*
X74116Y248003D01*
X74363Y248363D01*
X74619Y248717D01*
X74883Y249064D01*
X75156Y249405D01*
X75437Y249738D01*
X75726Y250065D01*
X76023Y250385D01*
X76328Y250697D01*
X76640Y251002D01*
X76960Y251299D01*
X77287Y251588D01*
X77620Y251869D01*
X77961Y252142D01*
X78308Y252406D01*
X78662Y252662D01*
X79022Y252909D01*
X79388Y253146D01*
X79759Y253375D01*
X80136Y253595D01*
X80519Y253806D01*
X80906Y254007D01*
X81298Y254198D01*
X81695Y254380D01*
X82096Y254552D01*
X82501Y254714D01*
X82910Y254866D01*
X83323Y255008D01*
X83739Y255139D01*
X84158Y255261D01*
X84580Y255372D01*
X85004Y255473D01*
X85431Y255563D01*
X85860Y255643D01*
X86291Y255713D01*
X86724Y255771D01*
X87157Y255819D01*
X87592Y255857D01*
X88028Y255884D01*
X88464Y255900D01*
X88900Y255905D01*
X89336Y255900D01*
X89772Y255884D01*
X90208Y255857D01*
X90643Y255819D01*
X91076Y255771D01*
X91509Y255713D01*
X91940Y255643D01*
X92369Y255563D01*
X92796Y255473D01*
X93220Y255372D01*
X93642Y255261D01*
X94061Y255139D01*
X94477Y255008D01*
X94890Y254866D01*
X95299Y254714D01*
X95704Y254552D01*
X96105Y254380D01*
X96502Y254198D01*
X96894Y254007D01*
X97281Y253806D01*
X97664Y253595D01*
X98041Y253375D01*
X98412Y253146D01*
X98778Y252909D01*
X99138Y252662D01*
X99492Y252406D01*
X99839Y252142D01*
X100180Y251869D01*
X100513Y251588D01*
X100840Y251299D01*
X101160Y251002D01*
X101472Y250697D01*
X101777Y250385D01*
X102074Y250065D01*
X102363Y249738D01*
X102644Y249405D01*
X102917Y249064D01*
X103181Y248717D01*
X103437Y248363D01*
X103684Y248003D01*
X103921Y247637D01*
X104150Y247266D01*
X104370Y246889D01*
X104581Y246506D01*
X104782Y246119D01*
X104973Y245727D01*
X105155Y245330D01*
X105327Y244929D01*
X105489Y244524D01*
X105641Y244115D01*
X105783Y243702D01*
X105914Y243286D01*
X106036Y242867D01*
X106147Y242445D01*
X106248Y242021D01*
X106338Y241594D01*
X106418Y241165D01*
X106488Y240734D01*
X106546Y240301D01*
X106594Y239868D01*
X106632Y239433D01*
X106659Y238997D01*
X106675Y238561D01*
X106680Y238125D01*
X106675Y237689D01*
X106659Y237253D01*
X106632Y236817D01*
X106594Y236382D01*
X106546Y235949D01*
X106488Y235516D01*
X106418Y235085D01*
X106338Y234656D01*
X106248Y234229D01*
X106147Y233805D01*
X106036Y233383D01*
X105914Y232964D01*
X105783Y232548D01*
X105641Y232135D01*
X105489Y231726D01*
X105327Y231321D01*
X105155Y230920D01*
X104973Y230523D01*
X104782Y230131D01*
X104581Y229744D01*
X104370Y229361D01*
X104150Y228984D01*
X103921Y228613D01*
X103684Y228247D01*
X103437Y227887D01*
X103181Y227533D01*
X102917Y227186D01*
X102644Y226845D01*
X102363Y226512D01*
X102074Y226185D01*
X101777Y225865D01*
X101472Y225553D01*
X101160Y225248D01*
X100840Y224951D01*
X100513Y224662D01*
X100180Y224381D01*
X99839Y224108D01*
X99492Y223844D01*
X99138Y223588D01*
X98778Y223341D01*
X98412Y223104D01*
X98041Y222875D01*
X97664Y222655D01*
X97281Y222444D01*
X96894Y222243D01*
X96502Y222052D01*
X96105Y221870D01*
X95704Y221698D01*
X95299Y221536D01*
X94890Y221384D01*
X94477Y221242D01*
X94061Y221111D01*
X93642Y220989D01*
X93220Y220878D01*
X92796Y220777D01*
X92369Y220687D01*
X91940Y220607D01*
X91509Y220537D01*
X91076Y220479D01*
X90643Y220431D01*
X90208Y220393D01*
X89772Y220366D01*
X89336Y220350D01*
X88900Y220345D01*
X88464Y220350D01*
X88028Y220366D01*
X87592Y220393D01*
X87157Y220431D01*
X86724Y220479D01*
X86291Y220537D01*
X85860Y220607D01*
X85431Y220687D01*
X85004Y220777D01*
X84580Y220878D01*
X84158Y220989D01*
X83739Y221111D01*
X83323Y221242D01*
X82910Y221384D01*
X82501Y221536D01*
X82096Y221698D01*
X81695Y221870D01*
X81298Y222052D01*
X80906Y222243D01*
X80519Y222444D01*
X80136Y222655D01*
X79759Y222875D01*
X79388Y223104D01*
X79022Y223341D01*
X78662Y223588D01*
X78308Y223844D01*
X77961Y224108D01*
X77620Y224381D01*
X77287Y224662D01*
X76960Y224951D01*
X76640Y225248D01*
X76328Y225553D01*
X76023Y225865D01*
X75726Y226185D01*
X75437Y226512D01*
X75156Y226845D01*
X74883Y227186D01*
X74619Y227533D01*
X74363Y227887D01*
X74116Y228247D01*
X73879Y228613D01*
X73650Y228984D01*
X73430Y229361D01*
X73219Y229744D01*
X73018Y230131D01*
X72827Y230523D01*
X72645Y230920D01*
X72473Y231321D01*
X72311Y231726D01*
X72159Y232135D01*
X72017Y232548D01*
X71886Y232964D01*
X71764Y233383D01*
X71653Y233805D01*
X71552Y234229D01*
X71462Y234656D01*
X71382Y235085D01*
X71312Y235516D01*
X71254Y235949D01*
X71206Y236382D01*
X71168Y236817D01*
X71141Y237253D01*
X71125Y237689D01*
X71120Y238125D01*
D10*
X55245Y226941D02*
X50419Y226941D01*
X50419Y228281D01*
X50421Y228352D01*
X50427Y228424D01*
X50436Y228494D01*
X50449Y228564D01*
X50466Y228634D01*
X50487Y228702D01*
X50511Y228769D01*
X50539Y228835D01*
X50570Y228899D01*
X50605Y228962D01*
X50643Y229022D01*
X50684Y229081D01*
X50728Y229137D01*
X50775Y229191D01*
X50824Y229242D01*
X50877Y229290D01*
X50932Y229336D01*
X50989Y229378D01*
X51049Y229418D01*
X51110Y229454D01*
X51174Y229487D01*
X51239Y229516D01*
X51305Y229542D01*
X51373Y229565D01*
X51442Y229584D01*
X51512Y229599D01*
X51582Y229610D01*
X51653Y229618D01*
X51724Y229622D01*
X51796Y229622D01*
X51867Y229618D01*
X51938Y229610D01*
X52008Y229599D01*
X52078Y229584D01*
X52147Y229565D01*
X52215Y229542D01*
X52281Y229516D01*
X52346Y229487D01*
X52410Y229454D01*
X52471Y229418D01*
X52531Y229378D01*
X52588Y229336D01*
X52643Y229290D01*
X52696Y229242D01*
X52745Y229191D01*
X52792Y229137D01*
X52836Y229081D01*
X52877Y229022D01*
X52915Y228962D01*
X52950Y228899D01*
X52981Y228835D01*
X53009Y228769D01*
X53033Y228702D01*
X53054Y228634D01*
X53071Y228564D01*
X53084Y228494D01*
X53093Y228424D01*
X53099Y228352D01*
X53101Y228281D01*
X53100Y228281D02*
X53100Y226941D01*
X53100Y228550D02*
X55245Y229622D01*
X55245Y232566D02*
X55245Y234711D01*
X55245Y232566D02*
X50419Y232566D01*
X50419Y234711D01*
X52564Y234175D02*
X52564Y232566D01*
X55245Y238544D02*
X55243Y238609D01*
X55237Y238673D01*
X55227Y238737D01*
X55214Y238801D01*
X55196Y238863D01*
X55175Y238924D01*
X55151Y238984D01*
X55122Y239042D01*
X55090Y239099D01*
X55055Y239153D01*
X55017Y239205D01*
X54975Y239255D01*
X54931Y239302D01*
X54884Y239346D01*
X54834Y239388D01*
X54782Y239426D01*
X54728Y239461D01*
X54671Y239493D01*
X54613Y239522D01*
X54553Y239546D01*
X54492Y239567D01*
X54430Y239585D01*
X54366Y239598D01*
X54302Y239608D01*
X54238Y239614D01*
X54173Y239616D01*
X55245Y238544D02*
X55243Y238450D01*
X55237Y238356D01*
X55227Y238262D01*
X55214Y238169D01*
X55196Y238077D01*
X55175Y237985D01*
X55150Y237894D01*
X55121Y237804D01*
X55088Y237716D01*
X55052Y237629D01*
X55012Y237544D01*
X54969Y237460D01*
X54922Y237379D01*
X54872Y237299D01*
X54819Y237221D01*
X54762Y237146D01*
X54703Y237073D01*
X54640Y237003D01*
X54575Y236935D01*
X51491Y237070D02*
X51426Y237072D01*
X51362Y237078D01*
X51298Y237088D01*
X51234Y237101D01*
X51172Y237119D01*
X51111Y237140D01*
X51051Y237164D01*
X50993Y237193D01*
X50936Y237225D01*
X50882Y237260D01*
X50830Y237298D01*
X50780Y237340D01*
X50733Y237384D01*
X50689Y237431D01*
X50647Y237481D01*
X50609Y237533D01*
X50574Y237587D01*
X50542Y237644D01*
X50513Y237702D01*
X50489Y237762D01*
X50468Y237823D01*
X50450Y237885D01*
X50437Y237949D01*
X50427Y238013D01*
X50421Y238077D01*
X50419Y238142D01*
X50421Y238228D01*
X50426Y238314D01*
X50436Y238400D01*
X50449Y238485D01*
X50465Y238570D01*
X50485Y238654D01*
X50509Y238737D01*
X50536Y238819D01*
X50567Y238899D01*
X50601Y238979D01*
X50639Y239056D01*
X50680Y239132D01*
X50724Y239206D01*
X50771Y239279D01*
X50821Y239349D01*
X52429Y237606D02*
X52396Y237553D01*
X52359Y237502D01*
X52320Y237453D01*
X52278Y237406D01*
X52233Y237362D01*
X52186Y237321D01*
X52137Y237282D01*
X52085Y237246D01*
X52031Y237213D01*
X51976Y237184D01*
X51919Y237158D01*
X51860Y237135D01*
X51801Y237115D01*
X51740Y237099D01*
X51679Y237086D01*
X51616Y237077D01*
X51554Y237072D01*
X51491Y237070D01*
X53235Y239080D02*
X53268Y239133D01*
X53305Y239184D01*
X53344Y239233D01*
X53386Y239280D01*
X53431Y239324D01*
X53478Y239365D01*
X53527Y239404D01*
X53579Y239440D01*
X53633Y239473D01*
X53688Y239502D01*
X53745Y239528D01*
X53804Y239551D01*
X53863Y239571D01*
X53924Y239587D01*
X53985Y239600D01*
X54048Y239609D01*
X54110Y239614D01*
X54173Y239616D01*
X53234Y239080D02*
X52430Y237606D01*
X55245Y242441D02*
X55245Y244586D01*
X55245Y242441D02*
X50419Y242441D01*
X50419Y244586D01*
X52564Y244050D02*
X52564Y242441D01*
X50419Y247969D02*
X55245Y247969D01*
X50419Y246628D02*
X50419Y249309D01*
D13*
X76200Y301625D02*
X101300Y301625D01*
X63500Y311625D02*
X63500Y342425D01*
X76500Y352425D02*
X101300Y352425D01*
X114300Y342425D02*
X114300Y311625D01*
X76200Y327025D02*
X76204Y327337D01*
X76215Y327648D01*
X76234Y327959D01*
X76261Y328270D01*
X76296Y328580D01*
X76337Y328888D01*
X76387Y329196D01*
X76444Y329503D01*
X76509Y329808D01*
X76581Y330111D01*
X76660Y330412D01*
X76747Y330712D01*
X76841Y331009D01*
X76942Y331304D01*
X77051Y331596D01*
X77167Y331885D01*
X77290Y332172D01*
X77419Y332455D01*
X77556Y332735D01*
X77700Y333012D01*
X77850Y333285D01*
X78007Y333554D01*
X78170Y333819D01*
X78340Y334081D01*
X78517Y334338D01*
X78699Y334590D01*
X78888Y334838D01*
X79083Y335082D01*
X79283Y335320D01*
X79490Y335554D01*
X79702Y335782D01*
X79920Y336005D01*
X80143Y336223D01*
X80371Y336435D01*
X80605Y336642D01*
X80843Y336842D01*
X81087Y337037D01*
X81335Y337226D01*
X81587Y337408D01*
X81844Y337585D01*
X82106Y337755D01*
X82371Y337918D01*
X82640Y338075D01*
X82913Y338225D01*
X83190Y338369D01*
X83470Y338506D01*
X83753Y338635D01*
X84040Y338758D01*
X84329Y338874D01*
X84621Y338983D01*
X84916Y339084D01*
X85213Y339178D01*
X85513Y339265D01*
X85814Y339344D01*
X86117Y339416D01*
X86422Y339481D01*
X86729Y339538D01*
X87037Y339588D01*
X87345Y339629D01*
X87655Y339664D01*
X87966Y339691D01*
X88277Y339710D01*
X88588Y339721D01*
X88900Y339725D01*
X89212Y339721D01*
X89523Y339710D01*
X89834Y339691D01*
X90145Y339664D01*
X90455Y339629D01*
X90763Y339588D01*
X91071Y339538D01*
X91378Y339481D01*
X91683Y339416D01*
X91986Y339344D01*
X92287Y339265D01*
X92587Y339178D01*
X92884Y339084D01*
X93179Y338983D01*
X93471Y338874D01*
X93760Y338758D01*
X94047Y338635D01*
X94330Y338506D01*
X94610Y338369D01*
X94887Y338225D01*
X95160Y338075D01*
X95429Y337918D01*
X95694Y337755D01*
X95956Y337585D01*
X96213Y337408D01*
X96465Y337226D01*
X96713Y337037D01*
X96957Y336842D01*
X97195Y336642D01*
X97429Y336435D01*
X97657Y336223D01*
X97880Y336005D01*
X98098Y335782D01*
X98310Y335554D01*
X98517Y335320D01*
X98717Y335082D01*
X98912Y334838D01*
X99101Y334590D01*
X99283Y334338D01*
X99460Y334081D01*
X99630Y333819D01*
X99793Y333554D01*
X99950Y333285D01*
X100100Y333012D01*
X100244Y332735D01*
X100381Y332455D01*
X100510Y332172D01*
X100633Y331885D01*
X100749Y331596D01*
X100858Y331304D01*
X100959Y331009D01*
X101053Y330712D01*
X101140Y330412D01*
X101219Y330111D01*
X101291Y329808D01*
X101356Y329503D01*
X101413Y329196D01*
X101463Y328888D01*
X101504Y328580D01*
X101539Y328270D01*
X101566Y327959D01*
X101585Y327648D01*
X101596Y327337D01*
X101600Y327025D01*
X101596Y326713D01*
X101585Y326402D01*
X101566Y326091D01*
X101539Y325780D01*
X101504Y325470D01*
X101463Y325162D01*
X101413Y324854D01*
X101356Y324547D01*
X101291Y324242D01*
X101219Y323939D01*
X101140Y323638D01*
X101053Y323338D01*
X100959Y323041D01*
X100858Y322746D01*
X100749Y322454D01*
X100633Y322165D01*
X100510Y321878D01*
X100381Y321595D01*
X100244Y321315D01*
X100100Y321038D01*
X99950Y320765D01*
X99793Y320496D01*
X99630Y320231D01*
X99460Y319969D01*
X99283Y319712D01*
X99101Y319460D01*
X98912Y319212D01*
X98717Y318968D01*
X98517Y318730D01*
X98310Y318496D01*
X98098Y318268D01*
X97880Y318045D01*
X97657Y317827D01*
X97429Y317615D01*
X97195Y317408D01*
X96957Y317208D01*
X96713Y317013D01*
X96465Y316824D01*
X96213Y316642D01*
X95956Y316465D01*
X95694Y316295D01*
X95429Y316132D01*
X95160Y315975D01*
X94887Y315825D01*
X94610Y315681D01*
X94330Y315544D01*
X94047Y315415D01*
X93760Y315292D01*
X93471Y315176D01*
X93179Y315067D01*
X92884Y314966D01*
X92587Y314872D01*
X92287Y314785D01*
X91986Y314706D01*
X91683Y314634D01*
X91378Y314569D01*
X91071Y314512D01*
X90763Y314462D01*
X90455Y314421D01*
X90145Y314386D01*
X89834Y314359D01*
X89523Y314340D01*
X89212Y314329D01*
X88900Y314325D01*
X88588Y314329D01*
X88277Y314340D01*
X87966Y314359D01*
X87655Y314386D01*
X87345Y314421D01*
X87037Y314462D01*
X86729Y314512D01*
X86422Y314569D01*
X86117Y314634D01*
X85814Y314706D01*
X85513Y314785D01*
X85213Y314872D01*
X84916Y314966D01*
X84621Y315067D01*
X84329Y315176D01*
X84040Y315292D01*
X83753Y315415D01*
X83470Y315544D01*
X83190Y315681D01*
X82913Y315825D01*
X82640Y315975D01*
X82371Y316132D01*
X82106Y316295D01*
X81844Y316465D01*
X81587Y316642D01*
X81335Y316824D01*
X81087Y317013D01*
X80843Y317208D01*
X80605Y317408D01*
X80371Y317615D01*
X80143Y317827D01*
X79920Y318045D01*
X79702Y318268D01*
X79490Y318496D01*
X79283Y318730D01*
X79083Y318968D01*
X78888Y319212D01*
X78699Y319460D01*
X78517Y319712D01*
X78340Y319969D01*
X78170Y320231D01*
X78007Y320496D01*
X77850Y320765D01*
X77700Y321038D01*
X77556Y321315D01*
X77419Y321595D01*
X77290Y321878D01*
X77167Y322165D01*
X77051Y322454D01*
X76942Y322746D01*
X76841Y323041D01*
X76747Y323338D01*
X76660Y323638D01*
X76581Y323939D01*
X76509Y324242D01*
X76444Y324547D01*
X76387Y324854D01*
X76337Y325162D01*
X76296Y325470D01*
X76261Y325780D01*
X76234Y326091D01*
X76215Y326402D01*
X76204Y326713D01*
X76200Y327025D01*
D10*
X61595Y321551D02*
X61593Y321616D01*
X61587Y321680D01*
X61577Y321744D01*
X61564Y321808D01*
X61546Y321870D01*
X61525Y321931D01*
X61501Y321991D01*
X61472Y322049D01*
X61440Y322106D01*
X61405Y322160D01*
X61367Y322212D01*
X61325Y322262D01*
X61281Y322309D01*
X61234Y322353D01*
X61184Y322395D01*
X61132Y322433D01*
X61078Y322468D01*
X61021Y322500D01*
X60963Y322529D01*
X60903Y322553D01*
X60842Y322574D01*
X60780Y322592D01*
X60716Y322605D01*
X60652Y322615D01*
X60588Y322621D01*
X60523Y322623D01*
X61595Y321551D02*
X61593Y321457D01*
X61587Y321363D01*
X61577Y321269D01*
X61564Y321176D01*
X61546Y321084D01*
X61525Y320992D01*
X61500Y320901D01*
X61471Y320811D01*
X61438Y320723D01*
X61402Y320636D01*
X61362Y320551D01*
X61319Y320467D01*
X61272Y320386D01*
X61222Y320306D01*
X61169Y320228D01*
X61112Y320153D01*
X61053Y320080D01*
X60990Y320010D01*
X60925Y319942D01*
X57841Y320076D02*
X57776Y320078D01*
X57712Y320084D01*
X57648Y320094D01*
X57584Y320107D01*
X57522Y320125D01*
X57461Y320146D01*
X57401Y320170D01*
X57343Y320199D01*
X57286Y320231D01*
X57232Y320266D01*
X57180Y320304D01*
X57130Y320346D01*
X57083Y320390D01*
X57039Y320437D01*
X56997Y320487D01*
X56959Y320539D01*
X56924Y320593D01*
X56892Y320650D01*
X56863Y320708D01*
X56839Y320768D01*
X56818Y320829D01*
X56800Y320891D01*
X56787Y320955D01*
X56777Y321019D01*
X56771Y321083D01*
X56769Y321148D01*
X56771Y321234D01*
X56776Y321320D01*
X56786Y321406D01*
X56799Y321491D01*
X56815Y321576D01*
X56835Y321660D01*
X56859Y321743D01*
X56886Y321825D01*
X56917Y321905D01*
X56951Y321985D01*
X56989Y322062D01*
X57030Y322138D01*
X57074Y322212D01*
X57121Y322285D01*
X57171Y322355D01*
X58779Y320612D02*
X58746Y320559D01*
X58709Y320508D01*
X58670Y320459D01*
X58628Y320412D01*
X58583Y320368D01*
X58536Y320327D01*
X58487Y320288D01*
X58435Y320252D01*
X58381Y320219D01*
X58326Y320190D01*
X58269Y320164D01*
X58210Y320141D01*
X58151Y320121D01*
X58090Y320105D01*
X58029Y320092D01*
X57966Y320083D01*
X57904Y320078D01*
X57841Y320076D01*
X59585Y322087D02*
X59618Y322140D01*
X59655Y322191D01*
X59694Y322240D01*
X59736Y322287D01*
X59781Y322331D01*
X59828Y322372D01*
X59877Y322411D01*
X59929Y322447D01*
X59983Y322480D01*
X60038Y322509D01*
X60095Y322535D01*
X60154Y322558D01*
X60213Y322578D01*
X60274Y322594D01*
X60335Y322607D01*
X60398Y322616D01*
X60460Y322621D01*
X60523Y322623D01*
X59584Y322087D02*
X58780Y320612D01*
X60254Y325428D02*
X56769Y325428D01*
X60254Y325428D02*
X60325Y325430D01*
X60397Y325436D01*
X60467Y325445D01*
X60537Y325458D01*
X60607Y325475D01*
X60675Y325496D01*
X60742Y325520D01*
X60808Y325548D01*
X60872Y325579D01*
X60935Y325614D01*
X60995Y325652D01*
X61054Y325693D01*
X61110Y325737D01*
X61164Y325784D01*
X61215Y325833D01*
X61263Y325886D01*
X61309Y325941D01*
X61351Y325998D01*
X61391Y326058D01*
X61427Y326119D01*
X61460Y326183D01*
X61489Y326248D01*
X61515Y326314D01*
X61538Y326382D01*
X61557Y326451D01*
X61572Y326521D01*
X61583Y326591D01*
X61591Y326662D01*
X61595Y326733D01*
X61595Y326805D01*
X61591Y326876D01*
X61583Y326947D01*
X61572Y327017D01*
X61557Y327087D01*
X61538Y327156D01*
X61515Y327224D01*
X61489Y327290D01*
X61460Y327355D01*
X61427Y327419D01*
X61391Y327480D01*
X61351Y327540D01*
X61309Y327597D01*
X61263Y327652D01*
X61215Y327705D01*
X61164Y327754D01*
X61110Y327801D01*
X61054Y327845D01*
X60995Y327886D01*
X60935Y327924D01*
X60872Y327959D01*
X60808Y327990D01*
X60742Y328018D01*
X60675Y328042D01*
X60607Y328063D01*
X60537Y328080D01*
X60467Y328093D01*
X60397Y328102D01*
X60325Y328108D01*
X60254Y328110D01*
X60254Y328109D02*
X56769Y328109D01*
X56769Y331427D02*
X61595Y331427D01*
X56769Y331427D02*
X56769Y332768D01*
X56771Y332839D01*
X56777Y332911D01*
X56786Y332981D01*
X56799Y333051D01*
X56816Y333121D01*
X56837Y333189D01*
X56861Y333256D01*
X56889Y333322D01*
X56920Y333386D01*
X56955Y333449D01*
X56993Y333509D01*
X57034Y333568D01*
X57078Y333624D01*
X57125Y333678D01*
X57174Y333729D01*
X57227Y333777D01*
X57282Y333823D01*
X57339Y333865D01*
X57399Y333905D01*
X57460Y333941D01*
X57524Y333974D01*
X57589Y334003D01*
X57655Y334029D01*
X57723Y334052D01*
X57792Y334071D01*
X57862Y334086D01*
X57932Y334097D01*
X58003Y334105D01*
X58074Y334109D01*
X58146Y334109D01*
X58217Y334105D01*
X58288Y334097D01*
X58358Y334086D01*
X58428Y334071D01*
X58497Y334052D01*
X58565Y334029D01*
X58631Y334003D01*
X58696Y333974D01*
X58760Y333941D01*
X58821Y333905D01*
X58881Y333865D01*
X58938Y333823D01*
X58993Y333777D01*
X59046Y333729D01*
X59095Y333678D01*
X59142Y333624D01*
X59186Y333568D01*
X59227Y333509D01*
X59265Y333449D01*
X59300Y333386D01*
X59331Y333322D01*
X59359Y333256D01*
X59383Y333189D01*
X59404Y333121D01*
X59421Y333051D01*
X59434Y332981D01*
X59443Y332911D01*
X59449Y332839D01*
X59451Y332768D01*
X59450Y332768D02*
X59450Y331427D01*
D14*
X527050Y111125D02*
X533400Y117475D01*
X533400Y130175D02*
X527050Y136525D01*
X533400Y142875D01*
X533400Y155575D02*
X527050Y161925D01*
X533400Y168275D01*
X533400Y180975D02*
X527050Y187325D01*
X533400Y193675D01*
X533400Y206375D02*
X527050Y212725D01*
X527050Y111125D02*
X488950Y111125D01*
X482600Y117475D01*
X482600Y130175D01*
X488950Y136525D01*
X482600Y142875D01*
X482600Y155575D01*
X488950Y161925D01*
X482600Y168275D01*
X482600Y180975D01*
X488950Y187325D01*
X482600Y193675D01*
X482600Y206375D01*
X488950Y212725D01*
X488950Y136525D02*
X527050Y136525D01*
X527050Y161925D02*
X488950Y161925D01*
X488950Y187325D02*
X527050Y187325D01*
X527050Y212725D02*
X488950Y212725D01*
X533400Y206375D02*
X533400Y193675D01*
X533400Y180975D02*
X533400Y168275D01*
X533400Y155575D02*
X533400Y142875D01*
X533400Y130175D02*
X533400Y117475D01*
X527050Y212725D02*
X533400Y219075D01*
X533400Y231775D02*
X527050Y238125D01*
X488950Y212725D02*
X482600Y219075D01*
X482600Y231775D01*
X488950Y238125D01*
X527050Y238125D01*
X533400Y231775D02*
X533400Y219075D01*
D13*
X537210Y130175D02*
X537210Y117475D01*
D10*
X479623Y113369D02*
X475869Y113369D01*
X479623Y113368D02*
X479688Y113366D01*
X479752Y113360D01*
X479816Y113350D01*
X479880Y113337D01*
X479942Y113319D01*
X480003Y113298D01*
X480063Y113274D01*
X480121Y113245D01*
X480178Y113213D01*
X480232Y113178D01*
X480284Y113140D01*
X480334Y113098D01*
X480381Y113054D01*
X480425Y113007D01*
X480467Y112957D01*
X480505Y112905D01*
X480540Y112851D01*
X480572Y112794D01*
X480601Y112736D01*
X480625Y112676D01*
X480646Y112615D01*
X480664Y112553D01*
X480677Y112489D01*
X480687Y112425D01*
X480693Y112361D01*
X480695Y112296D01*
X480695Y111760D01*
X476941Y116317D02*
X475869Y117657D01*
X480695Y117657D01*
X480695Y116317D02*
X480695Y118998D01*
D13*
X165100Y41275D02*
X152400Y41275D01*
X165100Y41275D02*
X171450Y34925D01*
X171450Y22225D02*
X165100Y15875D01*
X171450Y34925D02*
X177800Y41275D01*
X190500Y41275D01*
X196850Y34925D01*
X196850Y22225D02*
X190500Y15875D01*
X177800Y15875D01*
X171450Y22225D01*
X127000Y41275D02*
X120650Y34925D01*
X127000Y41275D02*
X139700Y41275D01*
X146050Y34925D01*
X146050Y22225D02*
X139700Y15875D01*
X127000Y15875D01*
X120650Y22225D01*
X146050Y34925D02*
X152400Y41275D01*
X146050Y22225D02*
X152400Y15875D01*
X165100Y15875D01*
X88900Y41275D02*
X76200Y41275D01*
X88900Y41275D02*
X95250Y34925D01*
X95250Y22225D02*
X88900Y15875D01*
X95250Y34925D02*
X101600Y41275D01*
X114300Y41275D01*
X120650Y34925D01*
X120650Y22225D02*
X114300Y15875D01*
X101600Y15875D01*
X95250Y22225D01*
X69850Y22225D02*
X69850Y34925D01*
X76200Y41275D01*
X69850Y22225D02*
X76200Y15875D01*
X88900Y15875D01*
X196850Y22225D02*
X196850Y34925D01*
D10*
X72094Y44252D02*
X72094Y48006D01*
X72093Y44252D02*
X72091Y44187D01*
X72085Y44123D01*
X72075Y44059D01*
X72062Y43995D01*
X72044Y43933D01*
X72023Y43872D01*
X71999Y43812D01*
X71970Y43754D01*
X71938Y43697D01*
X71903Y43643D01*
X71865Y43591D01*
X71823Y43541D01*
X71779Y43494D01*
X71732Y43450D01*
X71682Y43408D01*
X71630Y43370D01*
X71576Y43335D01*
X71519Y43303D01*
X71461Y43274D01*
X71401Y43250D01*
X71340Y43229D01*
X71278Y43211D01*
X71214Y43198D01*
X71150Y43188D01*
X71086Y43182D01*
X71021Y43180D01*
X70485Y43180D01*
X76516Y48006D02*
X76584Y48004D01*
X76651Y47998D01*
X76718Y47989D01*
X76785Y47976D01*
X76850Y47959D01*
X76915Y47938D01*
X76978Y47914D01*
X77040Y47886D01*
X77100Y47855D01*
X77158Y47821D01*
X77214Y47783D01*
X77269Y47743D01*
X77320Y47699D01*
X77369Y47652D01*
X77416Y47603D01*
X77460Y47552D01*
X77500Y47497D01*
X77538Y47441D01*
X77572Y47383D01*
X77603Y47323D01*
X77631Y47261D01*
X77655Y47198D01*
X77676Y47133D01*
X77693Y47068D01*
X77706Y47001D01*
X77715Y46934D01*
X77721Y46867D01*
X77723Y46799D01*
X76516Y48006D02*
X76438Y48004D01*
X76360Y47998D01*
X76283Y47988D01*
X76206Y47975D01*
X76130Y47957D01*
X76055Y47936D01*
X75981Y47911D01*
X75909Y47882D01*
X75838Y47850D01*
X75769Y47814D01*
X75701Y47775D01*
X75636Y47732D01*
X75573Y47686D01*
X75512Y47637D01*
X75454Y47585D01*
X75399Y47530D01*
X75346Y47473D01*
X75297Y47413D01*
X75250Y47350D01*
X75207Y47286D01*
X75167Y47219D01*
X75130Y47150D01*
X75097Y47079D01*
X75067Y47007D01*
X75041Y46934D01*
X77321Y45861D02*
X77370Y45910D01*
X77417Y45962D01*
X77460Y46017D01*
X77501Y46074D01*
X77539Y46133D01*
X77573Y46194D01*
X77604Y46257D01*
X77632Y46321D01*
X77656Y46387D01*
X77676Y46453D01*
X77693Y46521D01*
X77706Y46590D01*
X77715Y46659D01*
X77721Y46729D01*
X77723Y46799D01*
X77321Y45861D02*
X75042Y43180D01*
X77723Y43180D01*
D13*
X76200Y123825D02*
X101300Y123825D01*
X63500Y133825D02*
X63500Y164625D01*
X76500Y174625D02*
X101300Y174625D01*
X114300Y164625D02*
X114300Y133825D01*
X76200Y149225D02*
X76204Y149537D01*
X76215Y149848D01*
X76234Y150159D01*
X76261Y150470D01*
X76296Y150780D01*
X76337Y151088D01*
X76387Y151396D01*
X76444Y151703D01*
X76509Y152008D01*
X76581Y152311D01*
X76660Y152612D01*
X76747Y152912D01*
X76841Y153209D01*
X76942Y153504D01*
X77051Y153796D01*
X77167Y154085D01*
X77290Y154372D01*
X77419Y154655D01*
X77556Y154935D01*
X77700Y155212D01*
X77850Y155485D01*
X78007Y155754D01*
X78170Y156019D01*
X78340Y156281D01*
X78517Y156538D01*
X78699Y156790D01*
X78888Y157038D01*
X79083Y157282D01*
X79283Y157520D01*
X79490Y157754D01*
X79702Y157982D01*
X79920Y158205D01*
X80143Y158423D01*
X80371Y158635D01*
X80605Y158842D01*
X80843Y159042D01*
X81087Y159237D01*
X81335Y159426D01*
X81587Y159608D01*
X81844Y159785D01*
X82106Y159955D01*
X82371Y160118D01*
X82640Y160275D01*
X82913Y160425D01*
X83190Y160569D01*
X83470Y160706D01*
X83753Y160835D01*
X84040Y160958D01*
X84329Y161074D01*
X84621Y161183D01*
X84916Y161284D01*
X85213Y161378D01*
X85513Y161465D01*
X85814Y161544D01*
X86117Y161616D01*
X86422Y161681D01*
X86729Y161738D01*
X87037Y161788D01*
X87345Y161829D01*
X87655Y161864D01*
X87966Y161891D01*
X88277Y161910D01*
X88588Y161921D01*
X88900Y161925D01*
X89212Y161921D01*
X89523Y161910D01*
X89834Y161891D01*
X90145Y161864D01*
X90455Y161829D01*
X90763Y161788D01*
X91071Y161738D01*
X91378Y161681D01*
X91683Y161616D01*
X91986Y161544D01*
X92287Y161465D01*
X92587Y161378D01*
X92884Y161284D01*
X93179Y161183D01*
X93471Y161074D01*
X93760Y160958D01*
X94047Y160835D01*
X94330Y160706D01*
X94610Y160569D01*
X94887Y160425D01*
X95160Y160275D01*
X95429Y160118D01*
X95694Y159955D01*
X95956Y159785D01*
X96213Y159608D01*
X96465Y159426D01*
X96713Y159237D01*
X96957Y159042D01*
X97195Y158842D01*
X97429Y158635D01*
X97657Y158423D01*
X97880Y158205D01*
X98098Y157982D01*
X98310Y157754D01*
X98517Y157520D01*
X98717Y157282D01*
X98912Y157038D01*
X99101Y156790D01*
X99283Y156538D01*
X99460Y156281D01*
X99630Y156019D01*
X99793Y155754D01*
X99950Y155485D01*
X100100Y155212D01*
X100244Y154935D01*
X100381Y154655D01*
X100510Y154372D01*
X100633Y154085D01*
X100749Y153796D01*
X100858Y153504D01*
X100959Y153209D01*
X101053Y152912D01*
X101140Y152612D01*
X101219Y152311D01*
X101291Y152008D01*
X101356Y151703D01*
X101413Y151396D01*
X101463Y151088D01*
X101504Y150780D01*
X101539Y150470D01*
X101566Y150159D01*
X101585Y149848D01*
X101596Y149537D01*
X101600Y149225D01*
X101596Y148913D01*
X101585Y148602D01*
X101566Y148291D01*
X101539Y147980D01*
X101504Y147670D01*
X101463Y147362D01*
X101413Y147054D01*
X101356Y146747D01*
X101291Y146442D01*
X101219Y146139D01*
X101140Y145838D01*
X101053Y145538D01*
X100959Y145241D01*
X100858Y144946D01*
X100749Y144654D01*
X100633Y144365D01*
X100510Y144078D01*
X100381Y143795D01*
X100244Y143515D01*
X100100Y143238D01*
X99950Y142965D01*
X99793Y142696D01*
X99630Y142431D01*
X99460Y142169D01*
X99283Y141912D01*
X99101Y141660D01*
X98912Y141412D01*
X98717Y141168D01*
X98517Y140930D01*
X98310Y140696D01*
X98098Y140468D01*
X97880Y140245D01*
X97657Y140027D01*
X97429Y139815D01*
X97195Y139608D01*
X96957Y139408D01*
X96713Y139213D01*
X96465Y139024D01*
X96213Y138842D01*
X95956Y138665D01*
X95694Y138495D01*
X95429Y138332D01*
X95160Y138175D01*
X94887Y138025D01*
X94610Y137881D01*
X94330Y137744D01*
X94047Y137615D01*
X93760Y137492D01*
X93471Y137376D01*
X93179Y137267D01*
X92884Y137166D01*
X92587Y137072D01*
X92287Y136985D01*
X91986Y136906D01*
X91683Y136834D01*
X91378Y136769D01*
X91071Y136712D01*
X90763Y136662D01*
X90455Y136621D01*
X90145Y136586D01*
X89834Y136559D01*
X89523Y136540D01*
X89212Y136529D01*
X88900Y136525D01*
X88588Y136529D01*
X88277Y136540D01*
X87966Y136559D01*
X87655Y136586D01*
X87345Y136621D01*
X87037Y136662D01*
X86729Y136712D01*
X86422Y136769D01*
X86117Y136834D01*
X85814Y136906D01*
X85513Y136985D01*
X85213Y137072D01*
X84916Y137166D01*
X84621Y137267D01*
X84329Y137376D01*
X84040Y137492D01*
X83753Y137615D01*
X83470Y137744D01*
X83190Y137881D01*
X82913Y138025D01*
X82640Y138175D01*
X82371Y138332D01*
X82106Y138495D01*
X81844Y138665D01*
X81587Y138842D01*
X81335Y139024D01*
X81087Y139213D01*
X80843Y139408D01*
X80605Y139608D01*
X80371Y139815D01*
X80143Y140027D01*
X79920Y140245D01*
X79702Y140468D01*
X79490Y140696D01*
X79283Y140930D01*
X79083Y141168D01*
X78888Y141412D01*
X78699Y141660D01*
X78517Y141912D01*
X78340Y142169D01*
X78170Y142431D01*
X78007Y142696D01*
X77850Y142965D01*
X77700Y143238D01*
X77556Y143515D01*
X77419Y143795D01*
X77290Y144078D01*
X77167Y144365D01*
X77051Y144654D01*
X76942Y144946D01*
X76841Y145241D01*
X76747Y145538D01*
X76660Y145838D01*
X76581Y146139D01*
X76509Y146442D01*
X76444Y146747D01*
X76387Y147054D01*
X76337Y147362D01*
X76296Y147670D01*
X76261Y147980D01*
X76234Y148291D01*
X76215Y148602D01*
X76204Y148913D01*
X76200Y149225D01*
D10*
X61595Y143147D02*
X61593Y143212D01*
X61587Y143276D01*
X61577Y143340D01*
X61564Y143404D01*
X61546Y143466D01*
X61525Y143527D01*
X61501Y143587D01*
X61472Y143645D01*
X61440Y143702D01*
X61405Y143756D01*
X61367Y143808D01*
X61325Y143858D01*
X61281Y143905D01*
X61234Y143949D01*
X61184Y143991D01*
X61132Y144029D01*
X61078Y144064D01*
X61021Y144096D01*
X60963Y144125D01*
X60903Y144149D01*
X60842Y144170D01*
X60780Y144188D01*
X60716Y144201D01*
X60652Y144211D01*
X60588Y144217D01*
X60523Y144219D01*
X61595Y143147D02*
X61593Y143053D01*
X61587Y142959D01*
X61577Y142865D01*
X61564Y142772D01*
X61546Y142680D01*
X61525Y142588D01*
X61500Y142497D01*
X61471Y142407D01*
X61438Y142319D01*
X61402Y142232D01*
X61362Y142147D01*
X61319Y142063D01*
X61272Y141982D01*
X61222Y141902D01*
X61169Y141824D01*
X61112Y141749D01*
X61053Y141676D01*
X60990Y141606D01*
X60925Y141538D01*
X57841Y141673D02*
X57776Y141675D01*
X57712Y141681D01*
X57648Y141691D01*
X57584Y141704D01*
X57522Y141722D01*
X57461Y141743D01*
X57401Y141767D01*
X57343Y141796D01*
X57286Y141828D01*
X57232Y141863D01*
X57180Y141901D01*
X57130Y141943D01*
X57083Y141987D01*
X57039Y142034D01*
X56997Y142084D01*
X56959Y142136D01*
X56924Y142190D01*
X56892Y142247D01*
X56863Y142305D01*
X56839Y142365D01*
X56818Y142426D01*
X56800Y142488D01*
X56787Y142552D01*
X56777Y142616D01*
X56771Y142680D01*
X56769Y142745D01*
X56771Y142831D01*
X56776Y142917D01*
X56786Y143003D01*
X56799Y143088D01*
X56815Y143173D01*
X56835Y143257D01*
X56859Y143340D01*
X56886Y143422D01*
X56917Y143502D01*
X56951Y143582D01*
X56989Y143659D01*
X57030Y143735D01*
X57074Y143809D01*
X57121Y143882D01*
X57171Y143952D01*
X58779Y142209D02*
X58746Y142156D01*
X58709Y142105D01*
X58670Y142056D01*
X58628Y142009D01*
X58583Y141965D01*
X58536Y141924D01*
X58487Y141885D01*
X58435Y141849D01*
X58381Y141816D01*
X58326Y141787D01*
X58269Y141761D01*
X58210Y141738D01*
X58151Y141718D01*
X58090Y141702D01*
X58029Y141689D01*
X57966Y141680D01*
X57904Y141675D01*
X57841Y141673D01*
X59585Y143684D02*
X59618Y143737D01*
X59655Y143788D01*
X59694Y143837D01*
X59736Y143884D01*
X59781Y143928D01*
X59828Y143969D01*
X59877Y144008D01*
X59929Y144044D01*
X59983Y144077D01*
X60038Y144106D01*
X60095Y144132D01*
X60154Y144155D01*
X60213Y144175D01*
X60274Y144191D01*
X60335Y144204D01*
X60398Y144213D01*
X60460Y144218D01*
X60523Y144220D01*
X59584Y143684D02*
X58780Y142209D01*
X56769Y147025D02*
X61595Y147025D01*
X56769Y147025D02*
X56769Y148366D01*
X56771Y148436D01*
X56776Y148506D01*
X56786Y148576D01*
X56798Y148645D01*
X56815Y148713D01*
X56835Y148780D01*
X56858Y148847D01*
X56885Y148911D01*
X56915Y148975D01*
X56949Y149037D01*
X56985Y149096D01*
X57025Y149154D01*
X57068Y149210D01*
X57113Y149263D01*
X57162Y149314D01*
X57213Y149363D01*
X57266Y149408D01*
X57322Y149451D01*
X57380Y149491D01*
X57440Y149527D01*
X57501Y149561D01*
X57565Y149591D01*
X57629Y149618D01*
X57696Y149641D01*
X57763Y149661D01*
X57831Y149678D01*
X57900Y149690D01*
X57970Y149700D01*
X58040Y149705D01*
X58110Y149707D01*
X58110Y149706D02*
X60254Y149706D01*
X60254Y149707D02*
X60324Y149705D01*
X60394Y149700D01*
X60464Y149690D01*
X60533Y149678D01*
X60601Y149661D01*
X60668Y149641D01*
X60735Y149618D01*
X60799Y149591D01*
X60863Y149561D01*
X60925Y149527D01*
X60984Y149491D01*
X61042Y149451D01*
X61098Y149408D01*
X61151Y149363D01*
X61202Y149314D01*
X61251Y149263D01*
X61296Y149210D01*
X61339Y149154D01*
X61379Y149096D01*
X61415Y149036D01*
X61449Y148975D01*
X61479Y148911D01*
X61506Y148847D01*
X61529Y148780D01*
X61549Y148713D01*
X61566Y148645D01*
X61578Y148576D01*
X61588Y148506D01*
X61593Y148436D01*
X61595Y148366D01*
X61595Y147025D01*
X61595Y153694D02*
X56769Y152622D01*
X58378Y154766D02*
X61595Y153694D01*
X61595Y155839D02*
X58378Y154766D01*
X56769Y156911D02*
X61595Y155839D01*
D11*
X151869Y299269D02*
X151869Y301358D01*
X151869Y299269D02*
X151867Y299180D01*
X151861Y299092D01*
X151852Y299004D01*
X151839Y298916D01*
X151822Y298829D01*
X151802Y298743D01*
X151777Y298658D01*
X151750Y298573D01*
X151718Y298490D01*
X151684Y298409D01*
X151645Y298329D01*
X151604Y298251D01*
X151559Y298174D01*
X151511Y298100D01*
X151460Y298027D01*
X151406Y297957D01*
X151348Y297890D01*
X151288Y297824D01*
X151226Y297762D01*
X151160Y297702D01*
X151093Y297644D01*
X151023Y297590D01*
X150950Y297539D01*
X150876Y297491D01*
X150799Y297446D01*
X150721Y297405D01*
X150641Y297366D01*
X150560Y297332D01*
X150477Y297300D01*
X150392Y297273D01*
X150307Y297248D01*
X150221Y297228D01*
X150134Y297211D01*
X150046Y297198D01*
X149958Y297189D01*
X149870Y297183D01*
X149781Y297181D01*
X144559Y297181D01*
X144468Y297183D01*
X144377Y297189D01*
X144286Y297199D01*
X144196Y297213D01*
X144107Y297231D01*
X144018Y297252D01*
X143931Y297278D01*
X143845Y297307D01*
X143760Y297340D01*
X143676Y297377D01*
X143594Y297417D01*
X143515Y297461D01*
X143437Y297508D01*
X143361Y297559D01*
X143287Y297613D01*
X143216Y297670D01*
X143148Y297730D01*
X143082Y297793D01*
X143019Y297859D01*
X142959Y297927D01*
X142902Y297998D01*
X142848Y298072D01*
X142797Y298148D01*
X142750Y298225D01*
X142706Y298305D01*
X142666Y298387D01*
X142629Y298471D01*
X142596Y298555D01*
X142567Y298642D01*
X142541Y298729D01*
X142520Y298818D01*
X142502Y298907D01*
X142488Y298997D01*
X142478Y299088D01*
X142472Y299179D01*
X142470Y299270D01*
X142471Y299269D02*
X142471Y301358D01*
X144559Y304827D02*
X142471Y307437D01*
X151869Y307437D01*
X151869Y304827D02*
X151869Y310048D01*
X71954Y66271D02*
X69866Y66271D01*
X69777Y66273D01*
X69689Y66279D01*
X69601Y66288D01*
X69513Y66301D01*
X69426Y66318D01*
X69340Y66338D01*
X69255Y66363D01*
X69170Y66390D01*
X69087Y66422D01*
X69006Y66456D01*
X68926Y66495D01*
X68848Y66536D01*
X68771Y66581D01*
X68697Y66629D01*
X68624Y66680D01*
X68554Y66734D01*
X68487Y66792D01*
X68421Y66852D01*
X68359Y66914D01*
X68299Y66980D01*
X68241Y67047D01*
X68187Y67117D01*
X68136Y67190D01*
X68088Y67264D01*
X68043Y67341D01*
X68002Y67419D01*
X67963Y67499D01*
X67929Y67580D01*
X67897Y67663D01*
X67870Y67748D01*
X67845Y67833D01*
X67825Y67919D01*
X67808Y68006D01*
X67795Y68094D01*
X67786Y68182D01*
X67780Y68270D01*
X67778Y68359D01*
X67777Y68359D02*
X67777Y73581D01*
X67778Y73581D02*
X67780Y73672D01*
X67786Y73763D01*
X67796Y73854D01*
X67810Y73944D01*
X67827Y74033D01*
X67849Y74121D01*
X67875Y74209D01*
X67904Y74295D01*
X67937Y74380D01*
X67974Y74463D01*
X68014Y74545D01*
X68058Y74625D01*
X68105Y74703D01*
X68156Y74779D01*
X68209Y74852D01*
X68266Y74923D01*
X68327Y74992D01*
X68390Y75057D01*
X68455Y75120D01*
X68524Y75180D01*
X68595Y75238D01*
X68668Y75291D01*
X68744Y75342D01*
X68822Y75389D01*
X68902Y75433D01*
X68984Y75473D01*
X69067Y75510D01*
X69152Y75543D01*
X69238Y75572D01*
X69326Y75598D01*
X69414Y75620D01*
X69503Y75637D01*
X69593Y75651D01*
X69684Y75661D01*
X69775Y75667D01*
X69866Y75669D01*
X71954Y75669D01*
X78295Y75670D02*
X78390Y75668D01*
X78484Y75662D01*
X78578Y75653D01*
X78672Y75640D01*
X78765Y75623D01*
X78857Y75602D01*
X78949Y75577D01*
X79039Y75549D01*
X79128Y75517D01*
X79216Y75482D01*
X79302Y75443D01*
X79387Y75401D01*
X79470Y75355D01*
X79551Y75306D01*
X79630Y75254D01*
X79707Y75199D01*
X79781Y75140D01*
X79853Y75079D01*
X79923Y75015D01*
X79990Y74948D01*
X80054Y74878D01*
X80115Y74806D01*
X80174Y74732D01*
X80229Y74655D01*
X80281Y74576D01*
X80330Y74495D01*
X80376Y74412D01*
X80418Y74327D01*
X80457Y74241D01*
X80492Y74153D01*
X80524Y74064D01*
X80552Y73974D01*
X80577Y73882D01*
X80598Y73790D01*
X80615Y73697D01*
X80628Y73603D01*
X80637Y73509D01*
X80643Y73415D01*
X80645Y73320D01*
X78295Y75669D02*
X78187Y75667D01*
X78078Y75661D01*
X77970Y75651D01*
X77863Y75638D01*
X77756Y75620D01*
X77649Y75599D01*
X77544Y75574D01*
X77439Y75545D01*
X77336Y75513D01*
X77234Y75476D01*
X77133Y75436D01*
X77034Y75393D01*
X76936Y75346D01*
X76840Y75295D01*
X76746Y75241D01*
X76654Y75184D01*
X76564Y75123D01*
X76476Y75059D01*
X76391Y74993D01*
X76308Y74923D01*
X76228Y74850D01*
X76150Y74774D01*
X76075Y74696D01*
X76003Y74615D01*
X75934Y74531D01*
X75868Y74445D01*
X75805Y74357D01*
X75746Y74266D01*
X75689Y74174D01*
X75636Y74079D01*
X75587Y73983D01*
X75541Y73884D01*
X75498Y73785D01*
X75459Y73683D01*
X75424Y73581D01*
X79861Y71492D02*
X79930Y71561D01*
X79996Y71632D01*
X80060Y71705D01*
X80121Y71781D01*
X80179Y71860D01*
X80233Y71940D01*
X80285Y72023D01*
X80333Y72107D01*
X80379Y72193D01*
X80420Y72281D01*
X80459Y72371D01*
X80494Y72462D01*
X80525Y72554D01*
X80553Y72647D01*
X80577Y72741D01*
X80597Y72836D01*
X80614Y72932D01*
X80627Y73029D01*
X80636Y73126D01*
X80642Y73223D01*
X80644Y73320D01*
X79861Y71492D02*
X75423Y66271D01*
X80644Y66271D01*
X453494Y210369D02*
X453494Y212458D01*
X453494Y210369D02*
X453492Y210280D01*
X453486Y210192D01*
X453477Y210104D01*
X453464Y210016D01*
X453447Y209929D01*
X453427Y209843D01*
X453402Y209758D01*
X453375Y209673D01*
X453343Y209590D01*
X453309Y209509D01*
X453270Y209429D01*
X453229Y209351D01*
X453184Y209274D01*
X453136Y209200D01*
X453085Y209127D01*
X453031Y209057D01*
X452973Y208990D01*
X452913Y208924D01*
X452851Y208862D01*
X452785Y208802D01*
X452718Y208744D01*
X452648Y208690D01*
X452575Y208639D01*
X452501Y208591D01*
X452424Y208546D01*
X452346Y208505D01*
X452266Y208466D01*
X452185Y208432D01*
X452102Y208400D01*
X452017Y208373D01*
X451932Y208348D01*
X451846Y208328D01*
X451759Y208311D01*
X451671Y208298D01*
X451583Y208289D01*
X451495Y208283D01*
X451406Y208281D01*
X446184Y208281D01*
X446093Y208283D01*
X446002Y208289D01*
X445911Y208299D01*
X445821Y208313D01*
X445732Y208331D01*
X445643Y208352D01*
X445556Y208378D01*
X445470Y208407D01*
X445385Y208440D01*
X445301Y208477D01*
X445219Y208517D01*
X445140Y208561D01*
X445062Y208608D01*
X444986Y208659D01*
X444912Y208713D01*
X444841Y208770D01*
X444773Y208830D01*
X444707Y208893D01*
X444644Y208959D01*
X444584Y209027D01*
X444527Y209098D01*
X444473Y209172D01*
X444422Y209248D01*
X444375Y209325D01*
X444331Y209405D01*
X444291Y209487D01*
X444254Y209571D01*
X444221Y209655D01*
X444192Y209742D01*
X444166Y209829D01*
X444145Y209918D01*
X444127Y210007D01*
X444113Y210097D01*
X444103Y210188D01*
X444097Y210279D01*
X444095Y210370D01*
X444096Y210369D02*
X444096Y212458D01*
X453494Y215927D02*
X453494Y218537D01*
X453492Y218638D01*
X453486Y218739D01*
X453476Y218840D01*
X453463Y218940D01*
X453445Y219040D01*
X453424Y219139D01*
X453398Y219237D01*
X453369Y219334D01*
X453337Y219430D01*
X453300Y219524D01*
X453260Y219617D01*
X453216Y219709D01*
X453169Y219798D01*
X453118Y219886D01*
X453064Y219972D01*
X453007Y220055D01*
X452947Y220137D01*
X452883Y220215D01*
X452817Y220292D01*
X452747Y220365D01*
X452675Y220436D01*
X452600Y220504D01*
X452522Y220569D01*
X452442Y220631D01*
X452360Y220690D01*
X452275Y220746D01*
X452189Y220798D01*
X452100Y220847D01*
X452009Y220893D01*
X451917Y220934D01*
X451823Y220973D01*
X451728Y221007D01*
X451632Y221038D01*
X451534Y221065D01*
X451436Y221089D01*
X451336Y221108D01*
X451236Y221124D01*
X451136Y221136D01*
X451035Y221144D01*
X450934Y221148D01*
X450832Y221148D01*
X450731Y221144D01*
X450630Y221136D01*
X450530Y221124D01*
X450430Y221108D01*
X450330Y221089D01*
X450232Y221065D01*
X450134Y221038D01*
X450038Y221007D01*
X449943Y220973D01*
X449849Y220934D01*
X449757Y220893D01*
X449666Y220847D01*
X449578Y220798D01*
X449491Y220746D01*
X449406Y220690D01*
X449324Y220631D01*
X449244Y220569D01*
X449166Y220504D01*
X449091Y220436D01*
X449019Y220365D01*
X448949Y220292D01*
X448883Y220215D01*
X448819Y220137D01*
X448759Y220055D01*
X448702Y219972D01*
X448648Y219886D01*
X448597Y219798D01*
X448550Y219709D01*
X448506Y219617D01*
X448466Y219524D01*
X448429Y219430D01*
X448397Y219334D01*
X448368Y219237D01*
X448342Y219139D01*
X448321Y219040D01*
X448303Y218940D01*
X448290Y218840D01*
X448280Y218739D01*
X448274Y218638D01*
X448272Y218537D01*
X444096Y219059D02*
X444096Y215927D01*
X444096Y219059D02*
X444098Y219149D01*
X444104Y219238D01*
X444113Y219328D01*
X444127Y219417D01*
X444144Y219505D01*
X444165Y219592D01*
X444190Y219679D01*
X444219Y219764D01*
X444251Y219848D01*
X444286Y219930D01*
X444326Y220011D01*
X444368Y220090D01*
X444414Y220167D01*
X444464Y220242D01*
X444516Y220315D01*
X444572Y220386D01*
X444630Y220454D01*
X444692Y220519D01*
X444756Y220582D01*
X444823Y220642D01*
X444892Y220699D01*
X444964Y220753D01*
X445038Y220804D01*
X445114Y220852D01*
X445192Y220896D01*
X445272Y220937D01*
X445354Y220975D01*
X445437Y221009D01*
X445522Y221039D01*
X445608Y221066D01*
X445694Y221089D01*
X445782Y221108D01*
X445871Y221123D01*
X445960Y221135D01*
X446049Y221143D01*
X446139Y221147D01*
X446229Y221147D01*
X446319Y221143D01*
X446408Y221135D01*
X446497Y221123D01*
X446586Y221108D01*
X446674Y221089D01*
X446760Y221066D01*
X446846Y221039D01*
X446931Y221009D01*
X447014Y220975D01*
X447096Y220937D01*
X447176Y220896D01*
X447254Y220852D01*
X447330Y220804D01*
X447404Y220753D01*
X447476Y220699D01*
X447545Y220642D01*
X447612Y220582D01*
X447676Y220519D01*
X447738Y220454D01*
X447796Y220386D01*
X447852Y220315D01*
X447904Y220242D01*
X447954Y220167D01*
X448000Y220090D01*
X448042Y220011D01*
X448082Y219930D01*
X448117Y219848D01*
X448149Y219764D01*
X448178Y219679D01*
X448203Y219592D01*
X448224Y219505D01*
X448241Y219417D01*
X448255Y219328D01*
X448264Y219238D01*
X448270Y219149D01*
X448272Y219059D01*
X448273Y219059D02*
X448273Y216971D01*
X278329Y307571D02*
X276241Y307571D01*
X276152Y307573D01*
X276064Y307579D01*
X275976Y307588D01*
X275888Y307601D01*
X275801Y307618D01*
X275715Y307638D01*
X275630Y307663D01*
X275545Y307690D01*
X275462Y307722D01*
X275381Y307756D01*
X275301Y307795D01*
X275223Y307836D01*
X275146Y307881D01*
X275072Y307929D01*
X274999Y307980D01*
X274929Y308034D01*
X274862Y308092D01*
X274796Y308152D01*
X274734Y308214D01*
X274674Y308280D01*
X274616Y308347D01*
X274562Y308417D01*
X274511Y308490D01*
X274463Y308564D01*
X274418Y308641D01*
X274377Y308719D01*
X274338Y308799D01*
X274304Y308880D01*
X274272Y308963D01*
X274245Y309048D01*
X274220Y309133D01*
X274200Y309219D01*
X274183Y309306D01*
X274170Y309394D01*
X274161Y309482D01*
X274155Y309570D01*
X274153Y309659D01*
X274152Y309659D02*
X274152Y314881D01*
X274153Y314881D02*
X274155Y314972D01*
X274161Y315063D01*
X274171Y315154D01*
X274185Y315244D01*
X274202Y315333D01*
X274224Y315421D01*
X274250Y315509D01*
X274279Y315595D01*
X274312Y315680D01*
X274349Y315763D01*
X274389Y315845D01*
X274433Y315925D01*
X274480Y316003D01*
X274531Y316079D01*
X274584Y316152D01*
X274641Y316223D01*
X274702Y316292D01*
X274765Y316357D01*
X274830Y316420D01*
X274899Y316480D01*
X274970Y316538D01*
X275043Y316591D01*
X275119Y316642D01*
X275197Y316689D01*
X275277Y316733D01*
X275359Y316773D01*
X275442Y316810D01*
X275527Y316843D01*
X275613Y316872D01*
X275701Y316898D01*
X275789Y316920D01*
X275878Y316937D01*
X275968Y316951D01*
X276059Y316961D01*
X276150Y316967D01*
X276241Y316969D01*
X278329Y316969D01*
X283886Y316969D02*
X281798Y309659D01*
X287019Y309659D01*
X285453Y311748D02*
X285453Y307571D01*
D12*
X177292Y245170D02*
X165608Y245170D01*
X165608Y248415D01*
X165610Y248528D01*
X165616Y248641D01*
X165626Y248754D01*
X165640Y248867D01*
X165657Y248979D01*
X165679Y249090D01*
X165704Y249200D01*
X165734Y249310D01*
X165767Y249418D01*
X165804Y249525D01*
X165844Y249631D01*
X165889Y249735D01*
X165937Y249838D01*
X165988Y249939D01*
X166043Y250038D01*
X166101Y250135D01*
X166163Y250230D01*
X166228Y250323D01*
X166296Y250413D01*
X166367Y250501D01*
X166442Y250587D01*
X166519Y250670D01*
X166599Y250750D01*
X166682Y250827D01*
X166768Y250902D01*
X166856Y250973D01*
X166946Y251041D01*
X167039Y251106D01*
X167134Y251168D01*
X167231Y251226D01*
X167330Y251281D01*
X167431Y251332D01*
X167534Y251380D01*
X167638Y251425D01*
X167744Y251465D01*
X167851Y251502D01*
X167959Y251535D01*
X168069Y251565D01*
X168179Y251590D01*
X168290Y251612D01*
X168402Y251629D01*
X168515Y251643D01*
X168628Y251653D01*
X168741Y251659D01*
X168854Y251661D01*
X168967Y251659D01*
X169080Y251653D01*
X169193Y251643D01*
X169306Y251629D01*
X169418Y251612D01*
X169529Y251590D01*
X169639Y251565D01*
X169749Y251535D01*
X169857Y251502D01*
X169964Y251465D01*
X170070Y251425D01*
X170174Y251380D01*
X170277Y251332D01*
X170378Y251281D01*
X170477Y251226D01*
X170574Y251168D01*
X170669Y251106D01*
X170762Y251041D01*
X170852Y250973D01*
X170940Y250902D01*
X171026Y250827D01*
X171109Y250750D01*
X171189Y250670D01*
X171266Y250587D01*
X171341Y250501D01*
X171412Y250413D01*
X171480Y250323D01*
X171545Y250230D01*
X171607Y250135D01*
X171665Y250038D01*
X171720Y249939D01*
X171771Y249838D01*
X171819Y249735D01*
X171864Y249631D01*
X171904Y249525D01*
X171941Y249418D01*
X171974Y249310D01*
X172004Y249200D01*
X172029Y249090D01*
X172051Y248979D01*
X172068Y248867D01*
X172082Y248754D01*
X172092Y248641D01*
X172098Y248528D01*
X172100Y248415D01*
X172099Y248415D02*
X172099Y245170D01*
X172099Y249064D02*
X177292Y251661D01*
X168204Y256526D02*
X165608Y259771D01*
X177292Y259771D01*
X177292Y256526D02*
X177292Y263017D01*
X91567Y67183D02*
X79883Y67183D01*
X79883Y70429D01*
X79885Y70542D01*
X79891Y70655D01*
X79901Y70768D01*
X79915Y70881D01*
X79932Y70993D01*
X79954Y71104D01*
X79979Y71214D01*
X80009Y71324D01*
X80042Y71432D01*
X80079Y71539D01*
X80119Y71645D01*
X80164Y71749D01*
X80212Y71852D01*
X80263Y71953D01*
X80318Y72052D01*
X80376Y72149D01*
X80438Y72244D01*
X80503Y72337D01*
X80571Y72427D01*
X80642Y72515D01*
X80717Y72601D01*
X80794Y72684D01*
X80874Y72764D01*
X80957Y72841D01*
X81043Y72916D01*
X81131Y72987D01*
X81221Y73055D01*
X81314Y73120D01*
X81409Y73182D01*
X81506Y73240D01*
X81605Y73295D01*
X81706Y73346D01*
X81809Y73394D01*
X81913Y73439D01*
X82019Y73479D01*
X82126Y73516D01*
X82234Y73549D01*
X82344Y73579D01*
X82454Y73604D01*
X82565Y73626D01*
X82677Y73643D01*
X82790Y73657D01*
X82903Y73667D01*
X83016Y73673D01*
X83129Y73675D01*
X83242Y73673D01*
X83355Y73667D01*
X83468Y73657D01*
X83581Y73643D01*
X83693Y73626D01*
X83804Y73604D01*
X83914Y73579D01*
X84024Y73549D01*
X84132Y73516D01*
X84239Y73479D01*
X84345Y73439D01*
X84449Y73394D01*
X84552Y73346D01*
X84653Y73295D01*
X84752Y73240D01*
X84849Y73182D01*
X84944Y73120D01*
X85037Y73055D01*
X85127Y72987D01*
X85215Y72916D01*
X85301Y72841D01*
X85384Y72764D01*
X85464Y72684D01*
X85541Y72601D01*
X85616Y72515D01*
X85687Y72427D01*
X85755Y72337D01*
X85820Y72244D01*
X85882Y72149D01*
X85940Y72052D01*
X85995Y71953D01*
X86046Y71852D01*
X86094Y71749D01*
X86139Y71645D01*
X86179Y71539D01*
X86216Y71432D01*
X86249Y71324D01*
X86279Y71214D01*
X86304Y71104D01*
X86326Y70993D01*
X86343Y70881D01*
X86357Y70768D01*
X86367Y70655D01*
X86373Y70542D01*
X86375Y70429D01*
X86374Y70429D02*
X86374Y67183D01*
X86374Y71078D02*
X91567Y73674D01*
X82804Y85030D02*
X82697Y85028D01*
X82591Y85022D01*
X82485Y85012D01*
X82379Y84999D01*
X82273Y84981D01*
X82169Y84960D01*
X82065Y84935D01*
X81962Y84906D01*
X81861Y84874D01*
X81761Y84837D01*
X81662Y84797D01*
X81564Y84754D01*
X81468Y84707D01*
X81374Y84656D01*
X81282Y84602D01*
X81192Y84545D01*
X81104Y84485D01*
X81019Y84421D01*
X80936Y84354D01*
X80855Y84284D01*
X80777Y84212D01*
X80701Y84136D01*
X80629Y84058D01*
X80559Y83977D01*
X80492Y83894D01*
X80428Y83809D01*
X80368Y83721D01*
X80311Y83631D01*
X80257Y83539D01*
X80206Y83445D01*
X80159Y83349D01*
X80116Y83251D01*
X80076Y83152D01*
X80039Y83052D01*
X80007Y82951D01*
X79978Y82848D01*
X79953Y82744D01*
X79932Y82640D01*
X79914Y82534D01*
X79901Y82428D01*
X79891Y82322D01*
X79885Y82216D01*
X79883Y82109D01*
X79885Y81988D01*
X79891Y81867D01*
X79901Y81747D01*
X79914Y81626D01*
X79932Y81507D01*
X79953Y81387D01*
X79978Y81269D01*
X80007Y81152D01*
X80040Y81035D01*
X80076Y80920D01*
X80117Y80806D01*
X80160Y80693D01*
X80208Y80581D01*
X80259Y80472D01*
X80314Y80364D01*
X80372Y80257D01*
X80433Y80153D01*
X80498Y80051D01*
X80566Y79951D01*
X80637Y79853D01*
X80711Y79757D01*
X80788Y79664D01*
X80869Y79574D01*
X80952Y79486D01*
X81038Y79401D01*
X81127Y79318D01*
X81218Y79239D01*
X81312Y79162D01*
X81408Y79089D01*
X81506Y79019D01*
X81607Y78952D01*
X81710Y78888D01*
X81815Y78828D01*
X81922Y78770D01*
X82030Y78717D01*
X82140Y78667D01*
X82252Y78621D01*
X82365Y78578D01*
X82480Y78539D01*
X85076Y84056D02*
X84998Y84135D01*
X84918Y84211D01*
X84835Y84284D01*
X84749Y84354D01*
X84662Y84421D01*
X84571Y84485D01*
X84479Y84545D01*
X84385Y84603D01*
X84288Y84657D01*
X84190Y84707D01*
X84090Y84754D01*
X83989Y84798D01*
X83886Y84838D01*
X83781Y84874D01*
X83676Y84906D01*
X83569Y84935D01*
X83462Y84960D01*
X83353Y84982D01*
X83244Y84999D01*
X83135Y85013D01*
X83025Y85022D01*
X82914Y85028D01*
X82804Y85030D01*
X85076Y84057D02*
X91567Y78539D01*
X91567Y85030D01*
X102108Y67183D02*
X113792Y67183D01*
X102108Y67183D02*
X102108Y70429D01*
X102110Y70542D01*
X102116Y70655D01*
X102126Y70768D01*
X102140Y70881D01*
X102157Y70993D01*
X102179Y71104D01*
X102204Y71214D01*
X102234Y71324D01*
X102267Y71432D01*
X102304Y71539D01*
X102344Y71645D01*
X102389Y71749D01*
X102437Y71852D01*
X102488Y71953D01*
X102543Y72052D01*
X102601Y72149D01*
X102663Y72244D01*
X102728Y72337D01*
X102796Y72427D01*
X102867Y72515D01*
X102942Y72601D01*
X103019Y72684D01*
X103099Y72764D01*
X103182Y72841D01*
X103268Y72916D01*
X103356Y72987D01*
X103446Y73055D01*
X103539Y73120D01*
X103634Y73182D01*
X103731Y73240D01*
X103830Y73295D01*
X103931Y73346D01*
X104034Y73394D01*
X104138Y73439D01*
X104244Y73479D01*
X104351Y73516D01*
X104459Y73549D01*
X104569Y73579D01*
X104679Y73604D01*
X104790Y73626D01*
X104902Y73643D01*
X105015Y73657D01*
X105128Y73667D01*
X105241Y73673D01*
X105354Y73675D01*
X105467Y73673D01*
X105580Y73667D01*
X105693Y73657D01*
X105806Y73643D01*
X105918Y73626D01*
X106029Y73604D01*
X106139Y73579D01*
X106249Y73549D01*
X106357Y73516D01*
X106464Y73479D01*
X106570Y73439D01*
X106674Y73394D01*
X106777Y73346D01*
X106878Y73295D01*
X106977Y73240D01*
X107074Y73182D01*
X107169Y73120D01*
X107262Y73055D01*
X107352Y72987D01*
X107440Y72916D01*
X107526Y72841D01*
X107609Y72764D01*
X107689Y72684D01*
X107766Y72601D01*
X107841Y72515D01*
X107912Y72427D01*
X107980Y72337D01*
X108045Y72244D01*
X108107Y72149D01*
X108165Y72052D01*
X108220Y71953D01*
X108271Y71852D01*
X108319Y71749D01*
X108364Y71645D01*
X108404Y71539D01*
X108441Y71432D01*
X108474Y71324D01*
X108504Y71214D01*
X108529Y71104D01*
X108551Y70993D01*
X108568Y70881D01*
X108582Y70768D01*
X108592Y70655D01*
X108598Y70542D01*
X108600Y70429D01*
X108599Y70429D02*
X108599Y67183D01*
X108599Y71078D02*
X113792Y73674D01*
X113792Y78539D02*
X113792Y81785D01*
X113790Y81898D01*
X113784Y82011D01*
X113774Y82124D01*
X113760Y82237D01*
X113743Y82349D01*
X113721Y82460D01*
X113696Y82570D01*
X113666Y82680D01*
X113633Y82788D01*
X113596Y82895D01*
X113556Y83001D01*
X113511Y83105D01*
X113463Y83208D01*
X113412Y83309D01*
X113357Y83408D01*
X113299Y83505D01*
X113237Y83600D01*
X113172Y83693D01*
X113104Y83783D01*
X113033Y83871D01*
X112958Y83957D01*
X112881Y84040D01*
X112801Y84120D01*
X112718Y84197D01*
X112632Y84272D01*
X112544Y84343D01*
X112454Y84411D01*
X112361Y84476D01*
X112266Y84538D01*
X112169Y84596D01*
X112070Y84651D01*
X111969Y84702D01*
X111866Y84750D01*
X111762Y84795D01*
X111656Y84835D01*
X111549Y84872D01*
X111441Y84905D01*
X111331Y84935D01*
X111221Y84960D01*
X111110Y84982D01*
X110998Y84999D01*
X110885Y85013D01*
X110772Y85023D01*
X110659Y85029D01*
X110546Y85031D01*
X110433Y85029D01*
X110320Y85023D01*
X110207Y85013D01*
X110094Y84999D01*
X109982Y84982D01*
X109871Y84960D01*
X109761Y84935D01*
X109651Y84905D01*
X109543Y84872D01*
X109436Y84835D01*
X109330Y84795D01*
X109226Y84750D01*
X109123Y84702D01*
X109022Y84651D01*
X108923Y84596D01*
X108826Y84538D01*
X108731Y84476D01*
X108638Y84411D01*
X108548Y84343D01*
X108460Y84272D01*
X108374Y84197D01*
X108291Y84120D01*
X108211Y84040D01*
X108134Y83957D01*
X108059Y83871D01*
X107988Y83783D01*
X107920Y83693D01*
X107855Y83600D01*
X107793Y83505D01*
X107735Y83408D01*
X107680Y83309D01*
X107629Y83208D01*
X107581Y83105D01*
X107536Y83001D01*
X107496Y82895D01*
X107459Y82788D01*
X107426Y82680D01*
X107396Y82570D01*
X107371Y82460D01*
X107349Y82349D01*
X107332Y82237D01*
X107318Y82124D01*
X107308Y82011D01*
X107302Y81898D01*
X107300Y81785D01*
X102108Y82434D02*
X102108Y78539D01*
X102108Y82434D02*
X102110Y82535D01*
X102116Y82635D01*
X102126Y82735D01*
X102139Y82835D01*
X102157Y82934D01*
X102178Y83033D01*
X102203Y83130D01*
X102232Y83227D01*
X102265Y83322D01*
X102301Y83416D01*
X102341Y83508D01*
X102384Y83599D01*
X102431Y83688D01*
X102481Y83775D01*
X102535Y83861D01*
X102592Y83944D01*
X102652Y84024D01*
X102715Y84103D01*
X102782Y84179D01*
X102851Y84252D01*
X102923Y84322D01*
X102997Y84390D01*
X103074Y84455D01*
X103154Y84516D01*
X103236Y84575D01*
X103320Y84630D01*
X103406Y84682D01*
X103494Y84731D01*
X103584Y84776D01*
X103676Y84818D01*
X103769Y84856D01*
X103864Y84890D01*
X103959Y84921D01*
X104056Y84948D01*
X104154Y84971D01*
X104253Y84991D01*
X104353Y85006D01*
X104453Y85018D01*
X104553Y85026D01*
X104654Y85030D01*
X104754Y85030D01*
X104855Y85026D01*
X104955Y85018D01*
X105055Y85006D01*
X105155Y84991D01*
X105254Y84971D01*
X105352Y84948D01*
X105449Y84921D01*
X105544Y84890D01*
X105639Y84856D01*
X105732Y84818D01*
X105824Y84776D01*
X105914Y84731D01*
X106002Y84682D01*
X106088Y84630D01*
X106172Y84575D01*
X106254Y84516D01*
X106334Y84455D01*
X106411Y84390D01*
X106485Y84322D01*
X106557Y84252D01*
X106626Y84179D01*
X106693Y84103D01*
X106756Y84024D01*
X106816Y83944D01*
X106873Y83861D01*
X106927Y83775D01*
X106977Y83688D01*
X107024Y83599D01*
X107067Y83508D01*
X107107Y83416D01*
X107143Y83322D01*
X107176Y83227D01*
X107205Y83130D01*
X107230Y83033D01*
X107251Y82934D01*
X107269Y82835D01*
X107282Y82735D01*
X107292Y82635D01*
X107298Y82535D01*
X107300Y82434D01*
X107301Y82434D02*
X107301Y79838D01*
D11*
X71954Y85321D02*
X69866Y85321D01*
X69777Y85323D01*
X69689Y85329D01*
X69601Y85338D01*
X69513Y85351D01*
X69426Y85368D01*
X69340Y85388D01*
X69255Y85413D01*
X69170Y85440D01*
X69087Y85472D01*
X69006Y85506D01*
X68926Y85545D01*
X68848Y85586D01*
X68771Y85631D01*
X68697Y85679D01*
X68624Y85730D01*
X68554Y85784D01*
X68487Y85842D01*
X68421Y85902D01*
X68359Y85964D01*
X68299Y86030D01*
X68241Y86097D01*
X68187Y86167D01*
X68136Y86240D01*
X68088Y86314D01*
X68043Y86391D01*
X68002Y86469D01*
X67963Y86549D01*
X67929Y86630D01*
X67897Y86713D01*
X67870Y86798D01*
X67845Y86883D01*
X67825Y86969D01*
X67808Y87056D01*
X67795Y87144D01*
X67786Y87232D01*
X67780Y87320D01*
X67778Y87409D01*
X67777Y87409D02*
X67777Y92631D01*
X67778Y92631D02*
X67780Y92722D01*
X67786Y92813D01*
X67796Y92904D01*
X67810Y92994D01*
X67827Y93083D01*
X67849Y93171D01*
X67875Y93259D01*
X67904Y93345D01*
X67937Y93430D01*
X67974Y93513D01*
X68014Y93595D01*
X68058Y93675D01*
X68105Y93753D01*
X68156Y93829D01*
X68209Y93902D01*
X68266Y93973D01*
X68327Y94042D01*
X68390Y94107D01*
X68455Y94170D01*
X68524Y94230D01*
X68595Y94288D01*
X68668Y94341D01*
X68744Y94392D01*
X68822Y94439D01*
X68902Y94483D01*
X68984Y94523D01*
X69067Y94560D01*
X69152Y94593D01*
X69238Y94622D01*
X69326Y94648D01*
X69414Y94670D01*
X69503Y94687D01*
X69593Y94701D01*
X69684Y94711D01*
X69775Y94717D01*
X69866Y94719D01*
X71954Y94719D01*
X75423Y85321D02*
X78556Y85321D01*
X78645Y85323D01*
X78733Y85329D01*
X78821Y85338D01*
X78909Y85351D01*
X78996Y85368D01*
X79082Y85388D01*
X79167Y85413D01*
X79252Y85440D01*
X79335Y85472D01*
X79416Y85506D01*
X79496Y85545D01*
X79574Y85586D01*
X79651Y85631D01*
X79725Y85679D01*
X79798Y85730D01*
X79868Y85784D01*
X79935Y85842D01*
X80001Y85902D01*
X80063Y85964D01*
X80123Y86030D01*
X80181Y86097D01*
X80235Y86167D01*
X80286Y86240D01*
X80334Y86314D01*
X80379Y86391D01*
X80420Y86469D01*
X80459Y86549D01*
X80493Y86630D01*
X80525Y86713D01*
X80552Y86798D01*
X80577Y86883D01*
X80597Y86969D01*
X80614Y87056D01*
X80627Y87144D01*
X80636Y87232D01*
X80642Y87320D01*
X80644Y87409D01*
X80644Y88454D01*
X80642Y88543D01*
X80636Y88631D01*
X80627Y88719D01*
X80614Y88807D01*
X80597Y88894D01*
X80577Y88980D01*
X80552Y89065D01*
X80525Y89150D01*
X80493Y89233D01*
X80459Y89314D01*
X80420Y89394D01*
X80379Y89472D01*
X80334Y89549D01*
X80286Y89623D01*
X80235Y89696D01*
X80181Y89766D01*
X80123Y89833D01*
X80063Y89899D01*
X80001Y89961D01*
X79935Y90021D01*
X79868Y90079D01*
X79798Y90133D01*
X79725Y90184D01*
X79651Y90232D01*
X79574Y90277D01*
X79496Y90318D01*
X79416Y90357D01*
X79335Y90391D01*
X79252Y90423D01*
X79167Y90450D01*
X79082Y90475D01*
X78996Y90495D01*
X78909Y90512D01*
X78821Y90525D01*
X78733Y90534D01*
X78645Y90540D01*
X78556Y90542D01*
X75423Y90542D01*
X75423Y94719D01*
X80644Y94719D01*
X129644Y299269D02*
X129644Y301358D01*
X129644Y299269D02*
X129642Y299180D01*
X129636Y299092D01*
X129627Y299004D01*
X129614Y298916D01*
X129597Y298829D01*
X129577Y298743D01*
X129552Y298658D01*
X129525Y298573D01*
X129493Y298490D01*
X129459Y298409D01*
X129420Y298329D01*
X129379Y298251D01*
X129334Y298174D01*
X129286Y298100D01*
X129235Y298027D01*
X129181Y297957D01*
X129123Y297890D01*
X129063Y297824D01*
X129001Y297762D01*
X128935Y297702D01*
X128868Y297644D01*
X128798Y297590D01*
X128725Y297539D01*
X128651Y297491D01*
X128574Y297446D01*
X128496Y297405D01*
X128416Y297366D01*
X128335Y297332D01*
X128252Y297300D01*
X128167Y297273D01*
X128082Y297248D01*
X127996Y297228D01*
X127909Y297211D01*
X127821Y297198D01*
X127733Y297189D01*
X127645Y297183D01*
X127556Y297181D01*
X122334Y297181D01*
X122243Y297183D01*
X122152Y297189D01*
X122061Y297199D01*
X121971Y297213D01*
X121882Y297231D01*
X121793Y297252D01*
X121706Y297278D01*
X121620Y297307D01*
X121535Y297340D01*
X121451Y297377D01*
X121369Y297417D01*
X121290Y297461D01*
X121212Y297508D01*
X121136Y297559D01*
X121062Y297613D01*
X120991Y297670D01*
X120923Y297730D01*
X120857Y297793D01*
X120794Y297859D01*
X120734Y297927D01*
X120677Y297998D01*
X120623Y298072D01*
X120572Y298148D01*
X120525Y298225D01*
X120481Y298305D01*
X120441Y298387D01*
X120404Y298471D01*
X120371Y298555D01*
X120342Y298642D01*
X120316Y298729D01*
X120295Y298818D01*
X120277Y298907D01*
X120263Y298997D01*
X120253Y299088D01*
X120247Y299179D01*
X120245Y299270D01*
X120246Y299269D02*
X120246Y301358D01*
X124423Y304827D02*
X124423Y307959D01*
X124425Y308048D01*
X124431Y308136D01*
X124440Y308224D01*
X124453Y308312D01*
X124470Y308399D01*
X124490Y308485D01*
X124515Y308570D01*
X124542Y308655D01*
X124574Y308738D01*
X124608Y308819D01*
X124647Y308899D01*
X124688Y308977D01*
X124733Y309054D01*
X124781Y309128D01*
X124832Y309201D01*
X124886Y309271D01*
X124944Y309338D01*
X125004Y309404D01*
X125066Y309466D01*
X125132Y309526D01*
X125199Y309584D01*
X125269Y309638D01*
X125342Y309689D01*
X125416Y309737D01*
X125493Y309782D01*
X125571Y309823D01*
X125651Y309862D01*
X125732Y309896D01*
X125815Y309928D01*
X125900Y309955D01*
X125985Y309980D01*
X126071Y310000D01*
X126158Y310017D01*
X126246Y310030D01*
X126334Y310039D01*
X126422Y310045D01*
X126511Y310047D01*
X126511Y310048D02*
X127033Y310048D01*
X127134Y310046D01*
X127235Y310040D01*
X127336Y310030D01*
X127436Y310017D01*
X127536Y309999D01*
X127635Y309978D01*
X127733Y309952D01*
X127830Y309923D01*
X127926Y309891D01*
X128020Y309854D01*
X128113Y309814D01*
X128205Y309770D01*
X128294Y309723D01*
X128382Y309672D01*
X128468Y309618D01*
X128551Y309561D01*
X128633Y309501D01*
X128711Y309437D01*
X128788Y309371D01*
X128861Y309301D01*
X128932Y309229D01*
X129000Y309154D01*
X129065Y309076D01*
X129127Y308996D01*
X129186Y308914D01*
X129242Y308829D01*
X129294Y308742D01*
X129343Y308654D01*
X129389Y308563D01*
X129430Y308471D01*
X129469Y308377D01*
X129503Y308282D01*
X129534Y308186D01*
X129561Y308088D01*
X129585Y307990D01*
X129604Y307890D01*
X129620Y307790D01*
X129632Y307690D01*
X129640Y307589D01*
X129644Y307488D01*
X129644Y307386D01*
X129640Y307285D01*
X129632Y307184D01*
X129620Y307084D01*
X129604Y306984D01*
X129585Y306884D01*
X129561Y306786D01*
X129534Y306688D01*
X129503Y306592D01*
X129469Y306497D01*
X129430Y306403D01*
X129389Y306311D01*
X129343Y306220D01*
X129294Y306132D01*
X129242Y306045D01*
X129186Y305960D01*
X129127Y305878D01*
X129065Y305798D01*
X129000Y305720D01*
X128932Y305645D01*
X128861Y305573D01*
X128788Y305503D01*
X128711Y305437D01*
X128633Y305373D01*
X128551Y305313D01*
X128468Y305256D01*
X128382Y305202D01*
X128294Y305151D01*
X128205Y305104D01*
X128113Y305060D01*
X128020Y305020D01*
X127926Y304983D01*
X127830Y304951D01*
X127733Y304922D01*
X127635Y304896D01*
X127536Y304875D01*
X127436Y304857D01*
X127336Y304844D01*
X127235Y304834D01*
X127134Y304828D01*
X127033Y304826D01*
X127033Y304827D02*
X124423Y304827D01*
X124294Y304829D01*
X124166Y304835D01*
X124038Y304845D01*
X123910Y304859D01*
X123782Y304876D01*
X123655Y304898D01*
X123529Y304924D01*
X123404Y304953D01*
X123280Y304986D01*
X123157Y305024D01*
X123035Y305064D01*
X122914Y305109D01*
X122795Y305157D01*
X122677Y305209D01*
X122561Y305265D01*
X122447Y305324D01*
X122335Y305387D01*
X122224Y305453D01*
X122116Y305522D01*
X122010Y305595D01*
X121906Y305671D01*
X121804Y305750D01*
X121705Y305832D01*
X121609Y305917D01*
X121515Y306005D01*
X121424Y306096D01*
X121336Y306190D01*
X121251Y306286D01*
X121169Y306385D01*
X121090Y306487D01*
X121014Y306591D01*
X120941Y306697D01*
X120872Y306805D01*
X120806Y306915D01*
X120743Y307028D01*
X120684Y307142D01*
X120628Y307258D01*
X120576Y307376D01*
X120528Y307495D01*
X120483Y307616D01*
X120443Y307738D01*
X120405Y307861D01*
X120372Y307985D01*
X120343Y308110D01*
X120317Y308236D01*
X120295Y308363D01*
X120278Y308491D01*
X120264Y308619D01*
X120254Y308747D01*
X120248Y308875D01*
X120246Y309004D01*
M02*
