G04 EAGLE Gerber RS-274X export*
G75*
%MOMM*%
%FSLAX34Y34*%
%LPD*%
%INSilkscreen Bottom*%
%IPPOS*%
%AMOC8*
5,1,8,0,0,1.08239X$1,22.5*%
G01*
%ADD10C,0.127000*%
%ADD11C,0.203200*%


D10*
X308719Y399556D02*
X307379Y399556D01*
X307379Y399557D02*
X307308Y399555D01*
X307236Y399549D01*
X307166Y399540D01*
X307096Y399527D01*
X307026Y399510D01*
X306958Y399489D01*
X306891Y399465D01*
X306825Y399437D01*
X306761Y399406D01*
X306698Y399371D01*
X306638Y399333D01*
X306579Y399292D01*
X306523Y399248D01*
X306469Y399201D01*
X306418Y399152D01*
X306370Y399099D01*
X306324Y399044D01*
X306282Y398987D01*
X306242Y398927D01*
X306206Y398866D01*
X306173Y398802D01*
X306144Y398737D01*
X306118Y398671D01*
X306095Y398603D01*
X306076Y398534D01*
X306061Y398464D01*
X306050Y398394D01*
X306042Y398323D01*
X306038Y398252D01*
X306038Y398180D01*
X306042Y398109D01*
X306050Y398038D01*
X306061Y397968D01*
X306076Y397898D01*
X306095Y397829D01*
X306118Y397761D01*
X306144Y397695D01*
X306173Y397630D01*
X306206Y397566D01*
X306242Y397505D01*
X306282Y397445D01*
X306324Y397388D01*
X306370Y397333D01*
X306418Y397280D01*
X306469Y397231D01*
X306523Y397184D01*
X306579Y397140D01*
X306638Y397099D01*
X306698Y397061D01*
X306761Y397026D01*
X306825Y396995D01*
X306891Y396967D01*
X306958Y396943D01*
X307026Y396922D01*
X307096Y396905D01*
X307166Y396892D01*
X307236Y396883D01*
X307308Y396877D01*
X307379Y396875D01*
X308719Y396875D01*
X308719Y401701D01*
X307379Y401701D01*
X307314Y401699D01*
X307250Y401693D01*
X307186Y401683D01*
X307122Y401670D01*
X307060Y401652D01*
X306999Y401631D01*
X306939Y401607D01*
X306881Y401578D01*
X306824Y401546D01*
X306770Y401511D01*
X306718Y401473D01*
X306668Y401431D01*
X306621Y401387D01*
X306577Y401340D01*
X306535Y401290D01*
X306497Y401238D01*
X306462Y401184D01*
X306430Y401127D01*
X306401Y401069D01*
X306377Y401009D01*
X306356Y400948D01*
X306338Y400886D01*
X306325Y400822D01*
X306315Y400758D01*
X306309Y400694D01*
X306307Y400629D01*
X306309Y400564D01*
X306315Y400500D01*
X306325Y400436D01*
X306338Y400372D01*
X306356Y400310D01*
X306377Y400249D01*
X306401Y400189D01*
X306430Y400131D01*
X306462Y400074D01*
X306497Y400020D01*
X306535Y399968D01*
X306577Y399918D01*
X306621Y399871D01*
X306668Y399827D01*
X306718Y399785D01*
X306770Y399747D01*
X306824Y399712D01*
X306881Y399680D01*
X306939Y399651D01*
X306999Y399627D01*
X307060Y399606D01*
X307122Y399588D01*
X307186Y399575D01*
X307250Y399565D01*
X307314Y399559D01*
X307379Y399557D01*
X303562Y400629D02*
X302222Y401701D01*
X302222Y396875D01*
X303562Y396875D02*
X300881Y396875D01*
D11*
X537210Y130175D02*
X537210Y117475D01*
M02*
