G04 EAGLE Gerber RS-274X export*
G75*
%MOMM*%
%FSLAX34Y34*%
%LPD*%
%INSoldermask Top*%
%IPPOS*%
%AMOC8*
5,1,8,0,0,1.08239X$1,22.5*%
G01*
%ADD10C,3.200400*%
%ADD11C,2.082800*%
%ADD12R,1.711200X1.711200*%
%ADD13C,1.711200*%
%ADD14C,2.203200*%
%ADD15R,0.965200X1.727200*%
%ADD16R,1.283200X1.253200*%
%ADD17R,1.253200X1.283200*%
%ADD18R,1.303200X1.203200*%
%ADD19C,1.955800*%


D10*
X25400Y355600D03*
X25400Y12700D03*
X469900Y12700D03*
X469900Y355600D03*
D11*
X381000Y342900D03*
X381000Y317500D03*
X381000Y292100D03*
X381000Y266700D03*
X381000Y241300D03*
X381000Y215900D03*
X381000Y190500D03*
X381000Y165100D03*
X381000Y139700D03*
X381000Y114300D03*
X381000Y88900D03*
X381000Y63500D03*
X228600Y63500D03*
X228600Y88900D03*
X228600Y114300D03*
X228600Y139700D03*
X228600Y165100D03*
X228600Y190500D03*
X228600Y215900D03*
X228600Y241300D03*
X228600Y266700D03*
X228600Y292100D03*
X228600Y317500D03*
X228600Y342900D03*
D12*
X266700Y352425D03*
D13*
X292100Y352425D03*
X317500Y352425D03*
X342900Y352425D03*
D14*
X200660Y340995D03*
X408940Y340995D03*
X408940Y109855D03*
X200660Y109855D03*
D11*
X66294Y205613D03*
X66294Y270637D03*
X111506Y205613D03*
X111506Y270637D03*
D15*
X69850Y299085D03*
X69850Y354965D03*
X107950Y299085D03*
X107950Y354965D03*
D11*
X520700Y123825D03*
X495300Y123825D03*
X520700Y149225D03*
X495300Y149225D03*
X520700Y174625D03*
X495300Y174625D03*
X520700Y200025D03*
X495300Y200025D03*
X520700Y225425D03*
X495300Y225425D03*
X82550Y28575D03*
X107950Y28575D03*
X133350Y28575D03*
X158750Y28575D03*
X184150Y28575D03*
D15*
X69850Y121285D03*
X69850Y177165D03*
X107950Y121285D03*
X107950Y177165D03*
D16*
X158750Y296050D03*
X158750Y313550D03*
D17*
X81775Y82550D03*
X64275Y82550D03*
D16*
X460375Y207150D03*
X460375Y224650D03*
D17*
X288150Y323850D03*
X270650Y323850D03*
D18*
X158750Y265675D03*
X158750Y248675D03*
X98425Y64525D03*
X98425Y81525D03*
X120650Y64525D03*
X120650Y81525D03*
D17*
X81775Y101600D03*
X64275Y101600D03*
D16*
X136525Y296050D03*
X136525Y313550D03*
D19*
X307975Y196850D03*
X307975Y6350D03*
X282575Y196850D03*
X282575Y22225D03*
X257175Y196850D03*
X257175Y38100D03*
X471932Y108354D03*
X471488Y280988D03*
X158750Y53975D03*
X158750Y222250D03*
M02*
