G04 EAGLE Gerber RS-274X export*
G75*
%MOMM*%
%FSLAX34Y34*%
%LPD*%
%IN*%
%IPPOS*%
%AMOC8*
5,1,8,0,0,1.08239X$1,22.5*%
G01*
%ADD10C,0.254000*%


D10*
X0Y24999D02*
X95Y22820D01*
X380Y20658D01*
X852Y18529D01*
X1508Y16449D01*
X2342Y14434D01*
X3349Y12499D01*
X4521Y10660D01*
X5849Y8930D01*
X7322Y7322D01*
X8930Y5849D01*
X10660Y4521D01*
X12499Y3349D01*
X14434Y2342D01*
X16449Y1508D01*
X18529Y852D01*
X20658Y380D01*
X22820Y95D01*
X24999Y0D01*
X901976Y0D01*
X904155Y95D01*
X906317Y380D01*
X908446Y852D01*
X910526Y1508D01*
X912541Y2342D01*
X914476Y3349D01*
X916315Y4521D01*
X918045Y5849D01*
X919653Y7322D01*
X921126Y8930D01*
X922454Y10660D01*
X923626Y12499D01*
X924633Y14434D01*
X925467Y16449D01*
X926123Y18529D01*
X926595Y20658D01*
X926880Y22820D01*
X926975Y24999D01*
X926975Y368601D01*
X926880Y370780D01*
X926595Y372942D01*
X926123Y375071D01*
X925467Y377151D01*
X924633Y379166D01*
X923626Y381101D01*
X922454Y382940D01*
X921126Y384670D01*
X919653Y386278D01*
X918045Y387751D01*
X916315Y389079D01*
X914476Y390251D01*
X912541Y391258D01*
X910526Y392092D01*
X908446Y392748D01*
X906317Y393220D01*
X904155Y393505D01*
X901976Y393600D01*
X24999Y393600D01*
X22820Y393505D01*
X20658Y393220D01*
X18529Y392748D01*
X16449Y392092D01*
X14434Y391258D01*
X12499Y390251D01*
X10660Y389079D01*
X8930Y387751D01*
X7322Y386278D01*
X5849Y384670D01*
X4521Y382940D01*
X3349Y381101D01*
X2342Y379166D01*
X1508Y377151D01*
X852Y375071D01*
X380Y372942D01*
X95Y370780D01*
X0Y368601D01*
X0Y24999D01*
X40386Y367765D02*
X40310Y366697D01*
X40157Y365638D01*
X39930Y364592D01*
X39628Y363564D01*
X39254Y362561D01*
X38809Y361588D01*
X38296Y360648D01*
X37718Y359748D01*
X37076Y358891D01*
X36375Y358082D01*
X35618Y357325D01*
X34809Y356624D01*
X33952Y355982D01*
X33052Y355404D01*
X32112Y354891D01*
X31139Y354446D01*
X30136Y354072D01*
X29109Y353770D01*
X28063Y353543D01*
X27003Y353390D01*
X25935Y353314D01*
X24865Y353314D01*
X23797Y353390D01*
X22738Y353543D01*
X21692Y353770D01*
X20664Y354072D01*
X19661Y354446D01*
X18688Y354891D01*
X17748Y355404D01*
X16848Y355982D01*
X15991Y356624D01*
X15182Y357325D01*
X14425Y358082D01*
X13724Y358891D01*
X13082Y359748D01*
X12504Y360648D01*
X11991Y361588D01*
X11546Y362561D01*
X11172Y363564D01*
X10870Y364592D01*
X10643Y365638D01*
X10490Y366697D01*
X10414Y367765D01*
X10414Y368835D01*
X10490Y369903D01*
X10643Y370963D01*
X10870Y372009D01*
X11172Y373036D01*
X11546Y374039D01*
X11991Y375012D01*
X12504Y375952D01*
X13082Y376852D01*
X13724Y377709D01*
X14425Y378518D01*
X15182Y379275D01*
X15991Y379976D01*
X16848Y380618D01*
X17748Y381196D01*
X18688Y381709D01*
X19661Y382154D01*
X20664Y382528D01*
X21692Y382830D01*
X22738Y383057D01*
X23797Y383210D01*
X24865Y383286D01*
X25935Y383286D01*
X27003Y383210D01*
X28063Y383057D01*
X29109Y382830D01*
X30136Y382528D01*
X31139Y382154D01*
X32112Y381709D01*
X33052Y381196D01*
X33952Y380618D01*
X34809Y379976D01*
X35618Y379275D01*
X36375Y378518D01*
X37076Y377709D01*
X37718Y376852D01*
X38296Y375952D01*
X38809Y375012D01*
X39254Y374039D01*
X39628Y373036D01*
X39930Y372009D01*
X40157Y370963D01*
X40310Y369903D01*
X40386Y368835D01*
X40386Y367765D01*
X40386Y24865D02*
X40310Y23797D01*
X40157Y22738D01*
X39930Y21692D01*
X39628Y20664D01*
X39254Y19661D01*
X38809Y18688D01*
X38296Y17748D01*
X37718Y16848D01*
X37076Y15991D01*
X36375Y15182D01*
X35618Y14425D01*
X34809Y13724D01*
X33952Y13082D01*
X33052Y12504D01*
X32112Y11991D01*
X31139Y11546D01*
X30136Y11172D01*
X29109Y10870D01*
X28063Y10643D01*
X27003Y10490D01*
X25935Y10414D01*
X24865Y10414D01*
X23797Y10490D01*
X22738Y10643D01*
X21692Y10870D01*
X20664Y11172D01*
X19661Y11546D01*
X18688Y11991D01*
X17748Y12504D01*
X16848Y13082D01*
X15991Y13724D01*
X15182Y14425D01*
X14425Y15182D01*
X13724Y15991D01*
X13082Y16848D01*
X12504Y17748D01*
X11991Y18688D01*
X11546Y19661D01*
X11172Y20664D01*
X10870Y21692D01*
X10643Y22738D01*
X10490Y23797D01*
X10414Y24865D01*
X10414Y25935D01*
X10490Y27003D01*
X10643Y28063D01*
X10870Y29109D01*
X11172Y30136D01*
X11546Y31139D01*
X11991Y32112D01*
X12504Y33052D01*
X13082Y33952D01*
X13724Y34809D01*
X14425Y35618D01*
X15182Y36375D01*
X15991Y37076D01*
X16848Y37718D01*
X17748Y38296D01*
X18688Y38809D01*
X19661Y39254D01*
X20664Y39628D01*
X21692Y39930D01*
X22738Y40157D01*
X23797Y40310D01*
X24865Y40386D01*
X25935Y40386D01*
X27003Y40310D01*
X28063Y40157D01*
X29109Y39930D01*
X30136Y39628D01*
X31139Y39254D01*
X32112Y38809D01*
X33052Y38296D01*
X33952Y37718D01*
X34809Y37076D01*
X35618Y36375D01*
X36375Y35618D01*
X37076Y34809D01*
X37718Y33952D01*
X38296Y33052D01*
X38809Y32112D01*
X39254Y31139D01*
X39628Y30136D01*
X39930Y29109D01*
X40157Y28063D01*
X40310Y27003D01*
X40386Y25935D01*
X40386Y24865D01*
X916686Y367765D02*
X916610Y366697D01*
X916457Y365638D01*
X916230Y364592D01*
X915928Y363564D01*
X915554Y362561D01*
X915109Y361588D01*
X914596Y360648D01*
X914018Y359748D01*
X913376Y358891D01*
X912675Y358082D01*
X911918Y357325D01*
X911109Y356624D01*
X910252Y355982D01*
X909352Y355404D01*
X908412Y354891D01*
X907439Y354446D01*
X906436Y354072D01*
X905409Y353770D01*
X904363Y353543D01*
X903303Y353390D01*
X902235Y353314D01*
X901165Y353314D01*
X900097Y353390D01*
X899038Y353543D01*
X897992Y353770D01*
X896964Y354072D01*
X895961Y354446D01*
X894988Y354891D01*
X894048Y355404D01*
X893148Y355982D01*
X892291Y356624D01*
X891482Y357325D01*
X890725Y358082D01*
X890024Y358891D01*
X889382Y359748D01*
X888804Y360648D01*
X888291Y361588D01*
X887846Y362561D01*
X887472Y363564D01*
X887170Y364592D01*
X886943Y365638D01*
X886790Y366697D01*
X886714Y367765D01*
X886714Y368835D01*
X886790Y369903D01*
X886943Y370963D01*
X887170Y372009D01*
X887472Y373036D01*
X887846Y374039D01*
X888291Y375012D01*
X888804Y375952D01*
X889382Y376852D01*
X890024Y377709D01*
X890725Y378518D01*
X891482Y379275D01*
X892291Y379976D01*
X893148Y380618D01*
X894048Y381196D01*
X894988Y381709D01*
X895961Y382154D01*
X896964Y382528D01*
X897992Y382830D01*
X899038Y383057D01*
X900097Y383210D01*
X901165Y383286D01*
X902235Y383286D01*
X903303Y383210D01*
X904363Y383057D01*
X905409Y382830D01*
X906436Y382528D01*
X907439Y382154D01*
X908412Y381709D01*
X909352Y381196D01*
X910252Y380618D01*
X911109Y379976D01*
X911918Y379275D01*
X912675Y378518D01*
X913376Y377709D01*
X914018Y376852D01*
X914596Y375952D01*
X915109Y375012D01*
X915554Y374039D01*
X915928Y373036D01*
X916230Y372009D01*
X916457Y370963D01*
X916610Y369903D01*
X916686Y368835D01*
X916686Y367765D01*
X916686Y24865D02*
X916610Y23797D01*
X916457Y22738D01*
X916230Y21692D01*
X915928Y20664D01*
X915554Y19661D01*
X915109Y18688D01*
X914596Y17748D01*
X914018Y16848D01*
X913376Y15991D01*
X912675Y15182D01*
X911918Y14425D01*
X911109Y13724D01*
X910252Y13082D01*
X909352Y12504D01*
X908412Y11991D01*
X907439Y11546D01*
X906436Y11172D01*
X905409Y10870D01*
X904363Y10643D01*
X903303Y10490D01*
X902235Y10414D01*
X901165Y10414D01*
X900097Y10490D01*
X899038Y10643D01*
X897992Y10870D01*
X896964Y11172D01*
X895961Y11546D01*
X894988Y11991D01*
X894048Y12504D01*
X893148Y13082D01*
X892291Y13724D01*
X891482Y14425D01*
X890725Y15182D01*
X890024Y15991D01*
X889382Y16848D01*
X888804Y17748D01*
X888291Y18688D01*
X887846Y19661D01*
X887472Y20664D01*
X887170Y21692D01*
X886943Y22738D01*
X886790Y23797D01*
X886714Y24865D01*
X886714Y25935D01*
X886790Y27003D01*
X886943Y28063D01*
X887170Y29109D01*
X887472Y30136D01*
X887846Y31139D01*
X888291Y32112D01*
X888804Y33052D01*
X889382Y33952D01*
X890024Y34809D01*
X890725Y35618D01*
X891482Y36375D01*
X892291Y37076D01*
X893148Y37718D01*
X894048Y38296D01*
X894988Y38809D01*
X895961Y39254D01*
X896964Y39628D01*
X897992Y39930D01*
X899038Y40157D01*
X900097Y40310D01*
X901165Y40386D01*
X902235Y40386D01*
X903303Y40310D01*
X904363Y40157D01*
X905409Y39930D01*
X906436Y39628D01*
X907439Y39254D01*
X908412Y38809D01*
X909352Y38296D01*
X910252Y37718D01*
X911109Y37076D01*
X911918Y36375D01*
X912675Y35618D01*
X913376Y34809D01*
X914018Y33952D01*
X914596Y33052D01*
X915109Y32112D01*
X915554Y31139D01*
X915928Y30136D01*
X916230Y29109D01*
X916457Y28063D01*
X916610Y27003D01*
X916686Y25935D01*
X916686Y24865D01*
X245872Y291482D02*
X245797Y290249D01*
X245648Y289022D01*
X245426Y287807D01*
X245130Y286607D01*
X244762Y285427D01*
X244324Y284272D01*
X243817Y283145D01*
X243243Y282051D01*
X242604Y280993D01*
X241902Y279976D01*
X241140Y279004D01*
X240320Y278079D01*
X239446Y277205D01*
X238521Y276386D01*
X237549Y275623D01*
X236532Y274921D01*
X235474Y274282D01*
X234380Y273708D01*
X233253Y273201D01*
X232098Y272763D01*
X230918Y272395D01*
X229718Y272099D01*
X228503Y271877D01*
X227276Y271728D01*
X226043Y271653D01*
X224807Y271653D01*
X223574Y271728D01*
X222347Y271877D01*
X221132Y272099D01*
X219932Y272395D01*
X218752Y272763D01*
X217597Y273201D01*
X216470Y273708D01*
X215376Y274282D01*
X214318Y274921D01*
X213301Y275623D01*
X212329Y276386D01*
X211404Y277205D01*
X210530Y278079D01*
X209711Y279004D01*
X208948Y279976D01*
X208246Y280993D01*
X207607Y282051D01*
X207033Y283145D01*
X206526Y284272D01*
X206088Y285427D01*
X205720Y286607D01*
X205424Y287807D01*
X205202Y289022D01*
X205053Y290249D01*
X204978Y291482D01*
X204978Y292718D01*
X205053Y293951D01*
X205202Y295178D01*
X205424Y296393D01*
X205720Y297593D01*
X206088Y298773D01*
X206526Y299928D01*
X207033Y301055D01*
X207607Y302149D01*
X208246Y303207D01*
X208948Y304224D01*
X209711Y305196D01*
X210530Y306121D01*
X211404Y306995D01*
X212329Y307815D01*
X213301Y308577D01*
X214318Y309279D01*
X215376Y309918D01*
X216470Y310492D01*
X217597Y310999D01*
X218752Y311437D01*
X219932Y311805D01*
X221132Y312101D01*
X222347Y312323D01*
X223574Y312472D01*
X224807Y312547D01*
X226043Y312547D01*
X227276Y312472D01*
X228503Y312323D01*
X229718Y312101D01*
X230918Y311805D01*
X232098Y311437D01*
X233253Y310999D01*
X234380Y310492D01*
X235474Y309918D01*
X236532Y309279D01*
X237549Y308577D01*
X238521Y307815D01*
X239446Y306995D01*
X240320Y306121D01*
X241140Y305196D01*
X241902Y304224D01*
X242604Y303207D01*
X243243Y302149D01*
X243817Y301055D01*
X244324Y299928D01*
X244762Y298773D01*
X245130Y297593D01*
X245426Y296393D01*
X245648Y295178D01*
X245797Y293951D01*
X245872Y292718D01*
X245872Y291482D01*
X183159Y291727D02*
X183094Y290985D01*
X182965Y290251D01*
X182772Y289531D01*
X182517Y288831D01*
X182202Y288156D01*
X181830Y287510D01*
X181402Y286900D01*
X180923Y286329D01*
X180396Y285802D01*
X179825Y285323D01*
X179215Y284895D01*
X178570Y284523D01*
X177894Y284208D01*
X177194Y283953D01*
X176474Y283760D01*
X175740Y283631D01*
X174998Y283566D01*
X174252Y283566D01*
X173510Y283631D01*
X172776Y283760D01*
X172056Y283953D01*
X171356Y284208D01*
X170681Y284523D01*
X170035Y284895D01*
X169425Y285323D01*
X168854Y285802D01*
X168327Y286329D01*
X167848Y286900D01*
X167420Y287510D01*
X167048Y288156D01*
X166733Y288831D01*
X166478Y289531D01*
X166285Y290251D01*
X166156Y290985D01*
X166091Y291727D01*
X166091Y292473D01*
X166156Y293215D01*
X166285Y293949D01*
X166478Y294669D01*
X166733Y295369D01*
X167048Y296045D01*
X167420Y296690D01*
X167848Y297300D01*
X168327Y297871D01*
X168854Y298398D01*
X169425Y298877D01*
X170035Y299305D01*
X170681Y299677D01*
X171356Y299992D01*
X172056Y300247D01*
X172776Y300440D01*
X173510Y300569D01*
X174252Y300634D01*
X174998Y300634D01*
X175740Y300569D01*
X176474Y300440D01*
X177194Y300247D01*
X177894Y299992D01*
X178570Y299677D01*
X179215Y299305D01*
X179825Y298877D01*
X180396Y298398D01*
X180923Y297871D01*
X181402Y297300D01*
X181830Y296690D01*
X182202Y296045D01*
X182517Y295369D01*
X182772Y294669D01*
X182965Y293949D01*
X183094Y293215D01*
X183159Y292473D01*
X183159Y291727D01*
X284759Y291727D02*
X284694Y290985D01*
X284565Y290251D01*
X284372Y289531D01*
X284117Y288831D01*
X283802Y288156D01*
X283430Y287510D01*
X283002Y286900D01*
X282523Y286329D01*
X281996Y285802D01*
X281425Y285323D01*
X280815Y284895D01*
X280170Y284523D01*
X279494Y284208D01*
X278794Y283953D01*
X278074Y283760D01*
X277340Y283631D01*
X276598Y283566D01*
X275852Y283566D01*
X275110Y283631D01*
X274376Y283760D01*
X273656Y283953D01*
X272956Y284208D01*
X272281Y284523D01*
X271635Y284895D01*
X271025Y285323D01*
X270454Y285802D01*
X269927Y286329D01*
X269448Y286900D01*
X269020Y287510D01*
X268648Y288156D01*
X268333Y288831D01*
X268078Y289531D01*
X267885Y290251D01*
X267756Y290985D01*
X267691Y291727D01*
X267691Y292473D01*
X267756Y293215D01*
X267885Y293949D01*
X268078Y294669D01*
X268333Y295369D01*
X268648Y296045D01*
X269020Y296690D01*
X269448Y297300D01*
X269927Y297871D01*
X270454Y298398D01*
X271025Y298877D01*
X271635Y299305D01*
X272281Y299677D01*
X272956Y299992D01*
X273656Y300247D01*
X274376Y300440D01*
X275110Y300569D01*
X275852Y300634D01*
X276598Y300634D01*
X277340Y300569D01*
X278074Y300440D01*
X278794Y300247D01*
X279494Y299992D01*
X280170Y299677D01*
X280815Y299305D01*
X281425Y298877D01*
X281996Y298398D01*
X282523Y297871D01*
X283002Y297300D01*
X283430Y296690D01*
X283802Y296045D01*
X284117Y295369D01*
X284372Y294669D01*
X284565Y293949D01*
X284694Y293215D01*
X284759Y292473D01*
X284759Y291727D01*
X436372Y291482D02*
X436297Y290249D01*
X436148Y289022D01*
X435926Y287807D01*
X435630Y286607D01*
X435262Y285427D01*
X434824Y284272D01*
X434317Y283145D01*
X433743Y282051D01*
X433104Y280993D01*
X432402Y279976D01*
X431640Y279004D01*
X430820Y278079D01*
X429946Y277205D01*
X429021Y276386D01*
X428049Y275623D01*
X427032Y274921D01*
X425974Y274282D01*
X424880Y273708D01*
X423753Y273201D01*
X422598Y272763D01*
X421418Y272395D01*
X420218Y272099D01*
X419003Y271877D01*
X417776Y271728D01*
X416543Y271653D01*
X415307Y271653D01*
X414074Y271728D01*
X412847Y271877D01*
X411632Y272099D01*
X410432Y272395D01*
X409252Y272763D01*
X408097Y273201D01*
X406970Y273708D01*
X405876Y274282D01*
X404818Y274921D01*
X403801Y275623D01*
X402829Y276386D01*
X401904Y277205D01*
X401030Y278079D01*
X400211Y279004D01*
X399448Y279976D01*
X398746Y280993D01*
X398107Y282051D01*
X397533Y283145D01*
X397026Y284272D01*
X396588Y285427D01*
X396220Y286607D01*
X395924Y287807D01*
X395702Y289022D01*
X395553Y290249D01*
X395478Y291482D01*
X395478Y292718D01*
X395553Y293951D01*
X395702Y295178D01*
X395924Y296393D01*
X396220Y297593D01*
X396588Y298773D01*
X397026Y299928D01*
X397533Y301055D01*
X398107Y302149D01*
X398746Y303207D01*
X399448Y304224D01*
X400211Y305196D01*
X401030Y306121D01*
X401904Y306995D01*
X402829Y307815D01*
X403801Y308577D01*
X404818Y309279D01*
X405876Y309918D01*
X406970Y310492D01*
X408097Y310999D01*
X409252Y311437D01*
X410432Y311805D01*
X411632Y312101D01*
X412847Y312323D01*
X414074Y312472D01*
X415307Y312547D01*
X416543Y312547D01*
X417776Y312472D01*
X419003Y312323D01*
X420218Y312101D01*
X421418Y311805D01*
X422598Y311437D01*
X423753Y310999D01*
X424880Y310492D01*
X425974Y309918D01*
X427032Y309279D01*
X428049Y308577D01*
X429021Y307815D01*
X429946Y306995D01*
X430820Y306121D01*
X431640Y305196D01*
X432402Y304224D01*
X433104Y303207D01*
X433743Y302149D01*
X434317Y301055D01*
X434824Y299928D01*
X435262Y298773D01*
X435630Y297593D01*
X435926Y296393D01*
X436148Y295178D01*
X436297Y293951D01*
X436372Y292718D01*
X436372Y291482D01*
X373659Y291727D02*
X373594Y290985D01*
X373465Y290251D01*
X373272Y289531D01*
X373017Y288831D01*
X372702Y288156D01*
X372330Y287510D01*
X371902Y286900D01*
X371423Y286329D01*
X370896Y285802D01*
X370325Y285323D01*
X369715Y284895D01*
X369070Y284523D01*
X368394Y284208D01*
X367694Y283953D01*
X366974Y283760D01*
X366240Y283631D01*
X365498Y283566D01*
X364752Y283566D01*
X364010Y283631D01*
X363276Y283760D01*
X362556Y283953D01*
X361856Y284208D01*
X361181Y284523D01*
X360535Y284895D01*
X359925Y285323D01*
X359354Y285802D01*
X358827Y286329D01*
X358348Y286900D01*
X357920Y287510D01*
X357548Y288156D01*
X357233Y288831D01*
X356978Y289531D01*
X356785Y290251D01*
X356656Y290985D01*
X356591Y291727D01*
X356591Y292473D01*
X356656Y293215D01*
X356785Y293949D01*
X356978Y294669D01*
X357233Y295369D01*
X357548Y296045D01*
X357920Y296690D01*
X358348Y297300D01*
X358827Y297871D01*
X359354Y298398D01*
X359925Y298877D01*
X360535Y299305D01*
X361181Y299677D01*
X361856Y299992D01*
X362556Y300247D01*
X363276Y300440D01*
X364010Y300569D01*
X364752Y300634D01*
X365498Y300634D01*
X366240Y300569D01*
X366974Y300440D01*
X367694Y300247D01*
X368394Y299992D01*
X369070Y299677D01*
X369715Y299305D01*
X370325Y298877D01*
X370896Y298398D01*
X371423Y297871D01*
X371902Y297300D01*
X372330Y296690D01*
X372702Y296045D01*
X373017Y295369D01*
X373272Y294669D01*
X373465Y293949D01*
X373594Y293215D01*
X373659Y292473D01*
X373659Y291727D01*
X475259Y291727D02*
X475194Y290985D01*
X475065Y290251D01*
X474872Y289531D01*
X474617Y288831D01*
X474302Y288156D01*
X473930Y287510D01*
X473502Y286900D01*
X473023Y286329D01*
X472496Y285802D01*
X471925Y285323D01*
X471315Y284895D01*
X470670Y284523D01*
X469994Y284208D01*
X469294Y283953D01*
X468574Y283760D01*
X467840Y283631D01*
X467098Y283566D01*
X466352Y283566D01*
X465610Y283631D01*
X464876Y283760D01*
X464156Y283953D01*
X463456Y284208D01*
X462781Y284523D01*
X462135Y284895D01*
X461525Y285323D01*
X460954Y285802D01*
X460427Y286329D01*
X459948Y286900D01*
X459520Y287510D01*
X459148Y288156D01*
X458833Y288831D01*
X458578Y289531D01*
X458385Y290251D01*
X458256Y290985D01*
X458191Y291727D01*
X458191Y292473D01*
X458256Y293215D01*
X458385Y293949D01*
X458578Y294669D01*
X458833Y295369D01*
X459148Y296045D01*
X459520Y296690D01*
X459948Y297300D01*
X460427Y297871D01*
X460954Y298398D01*
X461525Y298877D01*
X462135Y299305D01*
X462781Y299677D01*
X463456Y299992D01*
X464156Y300247D01*
X464876Y300440D01*
X465610Y300569D01*
X466352Y300634D01*
X467098Y300634D01*
X467840Y300569D01*
X468574Y300440D01*
X469294Y300247D01*
X469994Y299992D01*
X470670Y299677D01*
X471315Y299305D01*
X471925Y298877D01*
X472496Y298398D01*
X473023Y297871D01*
X473502Y297300D01*
X473930Y296690D01*
X474302Y296045D01*
X474617Y295369D01*
X474872Y294669D01*
X475065Y293949D01*
X475194Y293215D01*
X475259Y292473D01*
X475259Y291727D01*
X626872Y291482D02*
X626797Y290249D01*
X626648Y289022D01*
X626426Y287807D01*
X626130Y286607D01*
X625762Y285427D01*
X625324Y284272D01*
X624817Y283145D01*
X624243Y282051D01*
X623604Y280993D01*
X622902Y279976D01*
X622140Y279004D01*
X621320Y278079D01*
X620446Y277205D01*
X619521Y276386D01*
X618549Y275623D01*
X617532Y274921D01*
X616474Y274282D01*
X615380Y273708D01*
X614253Y273201D01*
X613098Y272763D01*
X611918Y272395D01*
X610718Y272099D01*
X609503Y271877D01*
X608276Y271728D01*
X607043Y271653D01*
X605807Y271653D01*
X604574Y271728D01*
X603347Y271877D01*
X602132Y272099D01*
X600932Y272395D01*
X599752Y272763D01*
X598597Y273201D01*
X597470Y273708D01*
X596376Y274282D01*
X595318Y274921D01*
X594301Y275623D01*
X593329Y276386D01*
X592404Y277205D01*
X591530Y278079D01*
X590711Y279004D01*
X589948Y279976D01*
X589246Y280993D01*
X588607Y282051D01*
X588033Y283145D01*
X587526Y284272D01*
X587088Y285427D01*
X586720Y286607D01*
X586424Y287807D01*
X586202Y289022D01*
X586053Y290249D01*
X585978Y291482D01*
X585978Y292718D01*
X586053Y293951D01*
X586202Y295178D01*
X586424Y296393D01*
X586720Y297593D01*
X587088Y298773D01*
X587526Y299928D01*
X588033Y301055D01*
X588607Y302149D01*
X589246Y303207D01*
X589948Y304224D01*
X590711Y305196D01*
X591530Y306121D01*
X592404Y306995D01*
X593329Y307815D01*
X594301Y308577D01*
X595318Y309279D01*
X596376Y309918D01*
X597470Y310492D01*
X598597Y310999D01*
X599752Y311437D01*
X600932Y311805D01*
X602132Y312101D01*
X603347Y312323D01*
X604574Y312472D01*
X605807Y312547D01*
X607043Y312547D01*
X608276Y312472D01*
X609503Y312323D01*
X610718Y312101D01*
X611918Y311805D01*
X613098Y311437D01*
X614253Y310999D01*
X615380Y310492D01*
X616474Y309918D01*
X617532Y309279D01*
X618549Y308577D01*
X619521Y307815D01*
X620446Y306995D01*
X621320Y306121D01*
X622140Y305196D01*
X622902Y304224D01*
X623604Y303207D01*
X624243Y302149D01*
X624817Y301055D01*
X625324Y299928D01*
X625762Y298773D01*
X626130Y297593D01*
X626426Y296393D01*
X626648Y295178D01*
X626797Y293951D01*
X626872Y292718D01*
X626872Y291482D01*
X564159Y291727D02*
X564094Y290985D01*
X563965Y290251D01*
X563772Y289531D01*
X563517Y288831D01*
X563202Y288156D01*
X562830Y287510D01*
X562402Y286900D01*
X561923Y286329D01*
X561396Y285802D01*
X560825Y285323D01*
X560215Y284895D01*
X559570Y284523D01*
X558894Y284208D01*
X558194Y283953D01*
X557474Y283760D01*
X556740Y283631D01*
X555998Y283566D01*
X555252Y283566D01*
X554510Y283631D01*
X553776Y283760D01*
X553056Y283953D01*
X552356Y284208D01*
X551681Y284523D01*
X551035Y284895D01*
X550425Y285323D01*
X549854Y285802D01*
X549327Y286329D01*
X548848Y286900D01*
X548420Y287510D01*
X548048Y288156D01*
X547733Y288831D01*
X547478Y289531D01*
X547285Y290251D01*
X547156Y290985D01*
X547091Y291727D01*
X547091Y292473D01*
X547156Y293215D01*
X547285Y293949D01*
X547478Y294669D01*
X547733Y295369D01*
X548048Y296045D01*
X548420Y296690D01*
X548848Y297300D01*
X549327Y297871D01*
X549854Y298398D01*
X550425Y298877D01*
X551035Y299305D01*
X551681Y299677D01*
X552356Y299992D01*
X553056Y300247D01*
X553776Y300440D01*
X554510Y300569D01*
X555252Y300634D01*
X555998Y300634D01*
X556740Y300569D01*
X557474Y300440D01*
X558194Y300247D01*
X558894Y299992D01*
X559570Y299677D01*
X560215Y299305D01*
X560825Y298877D01*
X561396Y298398D01*
X561923Y297871D01*
X562402Y297300D01*
X562830Y296690D01*
X563202Y296045D01*
X563517Y295369D01*
X563772Y294669D01*
X563965Y293949D01*
X564094Y293215D01*
X564159Y292473D01*
X564159Y291727D01*
X665759Y291727D02*
X665694Y290985D01*
X665565Y290251D01*
X665372Y289531D01*
X665117Y288831D01*
X664802Y288156D01*
X664430Y287510D01*
X664002Y286900D01*
X663523Y286329D01*
X662996Y285802D01*
X662425Y285323D01*
X661815Y284895D01*
X661170Y284523D01*
X660494Y284208D01*
X659794Y283953D01*
X659074Y283760D01*
X658340Y283631D01*
X657598Y283566D01*
X656852Y283566D01*
X656110Y283631D01*
X655376Y283760D01*
X654656Y283953D01*
X653956Y284208D01*
X653281Y284523D01*
X652635Y284895D01*
X652025Y285323D01*
X651454Y285802D01*
X650927Y286329D01*
X650448Y286900D01*
X650020Y287510D01*
X649648Y288156D01*
X649333Y288831D01*
X649078Y289531D01*
X648885Y290251D01*
X648756Y290985D01*
X648691Y291727D01*
X648691Y292473D01*
X648756Y293215D01*
X648885Y293949D01*
X649078Y294669D01*
X649333Y295369D01*
X649648Y296045D01*
X650020Y296690D01*
X650448Y297300D01*
X650927Y297871D01*
X651454Y298398D01*
X652025Y298877D01*
X652635Y299305D01*
X653281Y299677D01*
X653956Y299992D01*
X654656Y300247D01*
X655376Y300440D01*
X656110Y300569D01*
X656852Y300634D01*
X657598Y300634D01*
X658340Y300569D01*
X659074Y300440D01*
X659794Y300247D01*
X660494Y299992D01*
X661170Y299677D01*
X661815Y299305D01*
X662425Y298877D01*
X662996Y298398D01*
X663523Y297871D01*
X664002Y297300D01*
X664430Y296690D01*
X664802Y296045D01*
X665117Y295369D01*
X665372Y294669D01*
X665565Y293949D01*
X665694Y293215D01*
X665759Y292473D01*
X665759Y291727D01*
X817372Y291482D02*
X817297Y290249D01*
X817148Y289022D01*
X816926Y287807D01*
X816630Y286607D01*
X816262Y285427D01*
X815824Y284272D01*
X815317Y283145D01*
X814743Y282051D01*
X814104Y280993D01*
X813402Y279976D01*
X812640Y279004D01*
X811820Y278079D01*
X810946Y277205D01*
X810021Y276386D01*
X809049Y275623D01*
X808032Y274921D01*
X806974Y274282D01*
X805880Y273708D01*
X804753Y273201D01*
X803598Y272763D01*
X802418Y272395D01*
X801218Y272099D01*
X800003Y271877D01*
X798776Y271728D01*
X797543Y271653D01*
X796307Y271653D01*
X795074Y271728D01*
X793847Y271877D01*
X792632Y272099D01*
X791432Y272395D01*
X790252Y272763D01*
X789097Y273201D01*
X787970Y273708D01*
X786876Y274282D01*
X785818Y274921D01*
X784801Y275623D01*
X783829Y276386D01*
X782904Y277205D01*
X782030Y278079D01*
X781211Y279004D01*
X780448Y279976D01*
X779746Y280993D01*
X779107Y282051D01*
X778533Y283145D01*
X778026Y284272D01*
X777588Y285427D01*
X777220Y286607D01*
X776924Y287807D01*
X776702Y289022D01*
X776553Y290249D01*
X776478Y291482D01*
X776478Y292718D01*
X776553Y293951D01*
X776702Y295178D01*
X776924Y296393D01*
X777220Y297593D01*
X777588Y298773D01*
X778026Y299928D01*
X778533Y301055D01*
X779107Y302149D01*
X779746Y303207D01*
X780448Y304224D01*
X781211Y305196D01*
X782030Y306121D01*
X782904Y306995D01*
X783829Y307815D01*
X784801Y308577D01*
X785818Y309279D01*
X786876Y309918D01*
X787970Y310492D01*
X789097Y310999D01*
X790252Y311437D01*
X791432Y311805D01*
X792632Y312101D01*
X793847Y312323D01*
X795074Y312472D01*
X796307Y312547D01*
X797543Y312547D01*
X798776Y312472D01*
X800003Y312323D01*
X801218Y312101D01*
X802418Y311805D01*
X803598Y311437D01*
X804753Y310999D01*
X805880Y310492D01*
X806974Y309918D01*
X808032Y309279D01*
X809049Y308577D01*
X810021Y307815D01*
X810946Y306995D01*
X811820Y306121D01*
X812640Y305196D01*
X813402Y304224D01*
X814104Y303207D01*
X814743Y302149D01*
X815317Y301055D01*
X815824Y299928D01*
X816262Y298773D01*
X816630Y297593D01*
X816926Y296393D01*
X817148Y295178D01*
X817297Y293951D01*
X817372Y292718D01*
X817372Y291482D01*
X754659Y291727D02*
X754594Y290985D01*
X754465Y290251D01*
X754272Y289531D01*
X754017Y288831D01*
X753702Y288156D01*
X753330Y287510D01*
X752902Y286900D01*
X752423Y286329D01*
X751896Y285802D01*
X751325Y285323D01*
X750715Y284895D01*
X750070Y284523D01*
X749394Y284208D01*
X748694Y283953D01*
X747974Y283760D01*
X747240Y283631D01*
X746498Y283566D01*
X745752Y283566D01*
X745010Y283631D01*
X744276Y283760D01*
X743556Y283953D01*
X742856Y284208D01*
X742181Y284523D01*
X741535Y284895D01*
X740925Y285323D01*
X740354Y285802D01*
X739827Y286329D01*
X739348Y286900D01*
X738920Y287510D01*
X738548Y288156D01*
X738233Y288831D01*
X737978Y289531D01*
X737785Y290251D01*
X737656Y290985D01*
X737591Y291727D01*
X737591Y292473D01*
X737656Y293215D01*
X737785Y293949D01*
X737978Y294669D01*
X738233Y295369D01*
X738548Y296045D01*
X738920Y296690D01*
X739348Y297300D01*
X739827Y297871D01*
X740354Y298398D01*
X740925Y298877D01*
X741535Y299305D01*
X742181Y299677D01*
X742856Y299992D01*
X743556Y300247D01*
X744276Y300440D01*
X745010Y300569D01*
X745752Y300634D01*
X746498Y300634D01*
X747240Y300569D01*
X747974Y300440D01*
X748694Y300247D01*
X749394Y299992D01*
X750070Y299677D01*
X750715Y299305D01*
X751325Y298877D01*
X751896Y298398D01*
X752423Y297871D01*
X752902Y297300D01*
X753330Y296690D01*
X753702Y296045D01*
X754017Y295369D01*
X754272Y294669D01*
X754465Y293949D01*
X754594Y293215D01*
X754659Y292473D01*
X754659Y291727D01*
X856259Y291727D02*
X856194Y290985D01*
X856065Y290251D01*
X855872Y289531D01*
X855617Y288831D01*
X855302Y288156D01*
X854930Y287510D01*
X854502Y286900D01*
X854023Y286329D01*
X853496Y285802D01*
X852925Y285323D01*
X852315Y284895D01*
X851670Y284523D01*
X850994Y284208D01*
X850294Y283953D01*
X849574Y283760D01*
X848840Y283631D01*
X848098Y283566D01*
X847352Y283566D01*
X846610Y283631D01*
X845876Y283760D01*
X845156Y283953D01*
X844456Y284208D01*
X843781Y284523D01*
X843135Y284895D01*
X842525Y285323D01*
X841954Y285802D01*
X841427Y286329D01*
X840948Y286900D01*
X840520Y287510D01*
X840148Y288156D01*
X839833Y288831D01*
X839578Y289531D01*
X839385Y290251D01*
X839256Y290985D01*
X839191Y291727D01*
X839191Y292473D01*
X839256Y293215D01*
X839385Y293949D01*
X839578Y294669D01*
X839833Y295369D01*
X840148Y296045D01*
X840520Y296690D01*
X840948Y297300D01*
X841427Y297871D01*
X841954Y298398D01*
X842525Y298877D01*
X843135Y299305D01*
X843781Y299677D01*
X844456Y299992D01*
X845156Y300247D01*
X845876Y300440D01*
X846610Y300569D01*
X847352Y300634D01*
X848098Y300634D01*
X848840Y300569D01*
X849574Y300440D01*
X850294Y300247D01*
X850994Y299992D01*
X851670Y299677D01*
X852315Y299305D01*
X852925Y298877D01*
X853496Y298398D01*
X854023Y297871D01*
X854502Y297300D01*
X854930Y296690D01*
X855302Y296045D01*
X855617Y295369D01*
X855872Y294669D01*
X856065Y293949D01*
X856194Y293215D01*
X856259Y292473D01*
X856259Y291727D01*
X245872Y100982D02*
X245797Y99749D01*
X245648Y98522D01*
X245426Y97307D01*
X245130Y96107D01*
X244762Y94927D01*
X244324Y93772D01*
X243817Y92645D01*
X243243Y91551D01*
X242604Y90493D01*
X241902Y89476D01*
X241140Y88504D01*
X240320Y87579D01*
X239446Y86705D01*
X238521Y85886D01*
X237549Y85123D01*
X236532Y84421D01*
X235474Y83782D01*
X234380Y83208D01*
X233253Y82701D01*
X232098Y82263D01*
X230918Y81895D01*
X229718Y81599D01*
X228503Y81377D01*
X227276Y81228D01*
X226043Y81153D01*
X224807Y81153D01*
X223574Y81228D01*
X222347Y81377D01*
X221132Y81599D01*
X219932Y81895D01*
X218752Y82263D01*
X217597Y82701D01*
X216470Y83208D01*
X215376Y83782D01*
X214318Y84421D01*
X213301Y85123D01*
X212329Y85886D01*
X211404Y86705D01*
X210530Y87579D01*
X209711Y88504D01*
X208948Y89476D01*
X208246Y90493D01*
X207607Y91551D01*
X207033Y92645D01*
X206526Y93772D01*
X206088Y94927D01*
X205720Y96107D01*
X205424Y97307D01*
X205202Y98522D01*
X205053Y99749D01*
X204978Y100982D01*
X204978Y102218D01*
X205053Y103451D01*
X205202Y104678D01*
X205424Y105893D01*
X205720Y107093D01*
X206088Y108273D01*
X206526Y109428D01*
X207033Y110555D01*
X207607Y111649D01*
X208246Y112707D01*
X208948Y113724D01*
X209711Y114696D01*
X210530Y115621D01*
X211404Y116495D01*
X212329Y117315D01*
X213301Y118077D01*
X214318Y118779D01*
X215376Y119418D01*
X216470Y119992D01*
X217597Y120499D01*
X218752Y120937D01*
X219932Y121305D01*
X221132Y121601D01*
X222347Y121823D01*
X223574Y121972D01*
X224807Y122047D01*
X226043Y122047D01*
X227276Y121972D01*
X228503Y121823D01*
X229718Y121601D01*
X230918Y121305D01*
X232098Y120937D01*
X233253Y120499D01*
X234380Y119992D01*
X235474Y119418D01*
X236532Y118779D01*
X237549Y118077D01*
X238521Y117315D01*
X239446Y116495D01*
X240320Y115621D01*
X241140Y114696D01*
X241902Y113724D01*
X242604Y112707D01*
X243243Y111649D01*
X243817Y110555D01*
X244324Y109428D01*
X244762Y108273D01*
X245130Y107093D01*
X245426Y105893D01*
X245648Y104678D01*
X245797Y103451D01*
X245872Y102218D01*
X245872Y100982D01*
X183159Y101227D02*
X183094Y100485D01*
X182965Y99751D01*
X182772Y99031D01*
X182517Y98331D01*
X182202Y97656D01*
X181830Y97010D01*
X181402Y96400D01*
X180923Y95829D01*
X180396Y95302D01*
X179825Y94823D01*
X179215Y94395D01*
X178570Y94023D01*
X177894Y93708D01*
X177194Y93453D01*
X176474Y93260D01*
X175740Y93131D01*
X174998Y93066D01*
X174252Y93066D01*
X173510Y93131D01*
X172776Y93260D01*
X172056Y93453D01*
X171356Y93708D01*
X170681Y94023D01*
X170035Y94395D01*
X169425Y94823D01*
X168854Y95302D01*
X168327Y95829D01*
X167848Y96400D01*
X167420Y97010D01*
X167048Y97656D01*
X166733Y98331D01*
X166478Y99031D01*
X166285Y99751D01*
X166156Y100485D01*
X166091Y101227D01*
X166091Y101973D01*
X166156Y102715D01*
X166285Y103449D01*
X166478Y104169D01*
X166733Y104869D01*
X167048Y105545D01*
X167420Y106190D01*
X167848Y106800D01*
X168327Y107371D01*
X168854Y107898D01*
X169425Y108377D01*
X170035Y108805D01*
X170681Y109177D01*
X171356Y109492D01*
X172056Y109747D01*
X172776Y109940D01*
X173510Y110069D01*
X174252Y110134D01*
X174998Y110134D01*
X175740Y110069D01*
X176474Y109940D01*
X177194Y109747D01*
X177894Y109492D01*
X178570Y109177D01*
X179215Y108805D01*
X179825Y108377D01*
X180396Y107898D01*
X180923Y107371D01*
X181402Y106800D01*
X181830Y106190D01*
X182202Y105545D01*
X182517Y104869D01*
X182772Y104169D01*
X182965Y103449D01*
X183094Y102715D01*
X183159Y101973D01*
X183159Y101227D01*
X284759Y101227D02*
X284694Y100485D01*
X284565Y99751D01*
X284372Y99031D01*
X284117Y98331D01*
X283802Y97656D01*
X283430Y97010D01*
X283002Y96400D01*
X282523Y95829D01*
X281996Y95302D01*
X281425Y94823D01*
X280815Y94395D01*
X280170Y94023D01*
X279494Y93708D01*
X278794Y93453D01*
X278074Y93260D01*
X277340Y93131D01*
X276598Y93066D01*
X275852Y93066D01*
X275110Y93131D01*
X274376Y93260D01*
X273656Y93453D01*
X272956Y93708D01*
X272281Y94023D01*
X271635Y94395D01*
X271025Y94823D01*
X270454Y95302D01*
X269927Y95829D01*
X269448Y96400D01*
X269020Y97010D01*
X268648Y97656D01*
X268333Y98331D01*
X268078Y99031D01*
X267885Y99751D01*
X267756Y100485D01*
X267691Y101227D01*
X267691Y101973D01*
X267756Y102715D01*
X267885Y103449D01*
X268078Y104169D01*
X268333Y104869D01*
X268648Y105545D01*
X269020Y106190D01*
X269448Y106800D01*
X269927Y107371D01*
X270454Y107898D01*
X271025Y108377D01*
X271635Y108805D01*
X272281Y109177D01*
X272956Y109492D01*
X273656Y109747D01*
X274376Y109940D01*
X275110Y110069D01*
X275852Y110134D01*
X276598Y110134D01*
X277340Y110069D01*
X278074Y109940D01*
X278794Y109747D01*
X279494Y109492D01*
X280170Y109177D01*
X280815Y108805D01*
X281425Y108377D01*
X281996Y107898D01*
X282523Y107371D01*
X283002Y106800D01*
X283430Y106190D01*
X283802Y105545D01*
X284117Y104869D01*
X284372Y104169D01*
X284565Y103449D01*
X284694Y102715D01*
X284759Y101973D01*
X284759Y101227D01*
X436372Y100982D02*
X436297Y99749D01*
X436148Y98522D01*
X435926Y97307D01*
X435630Y96107D01*
X435262Y94927D01*
X434824Y93772D01*
X434317Y92645D01*
X433743Y91551D01*
X433104Y90493D01*
X432402Y89476D01*
X431640Y88504D01*
X430820Y87579D01*
X429946Y86705D01*
X429021Y85886D01*
X428049Y85123D01*
X427032Y84421D01*
X425974Y83782D01*
X424880Y83208D01*
X423753Y82701D01*
X422598Y82263D01*
X421418Y81895D01*
X420218Y81599D01*
X419003Y81377D01*
X417776Y81228D01*
X416543Y81153D01*
X415307Y81153D01*
X414074Y81228D01*
X412847Y81377D01*
X411632Y81599D01*
X410432Y81895D01*
X409252Y82263D01*
X408097Y82701D01*
X406970Y83208D01*
X405876Y83782D01*
X404818Y84421D01*
X403801Y85123D01*
X402829Y85886D01*
X401904Y86705D01*
X401030Y87579D01*
X400211Y88504D01*
X399448Y89476D01*
X398746Y90493D01*
X398107Y91551D01*
X397533Y92645D01*
X397026Y93772D01*
X396588Y94927D01*
X396220Y96107D01*
X395924Y97307D01*
X395702Y98522D01*
X395553Y99749D01*
X395478Y100982D01*
X395478Y102218D01*
X395553Y103451D01*
X395702Y104678D01*
X395924Y105893D01*
X396220Y107093D01*
X396588Y108273D01*
X397026Y109428D01*
X397533Y110555D01*
X398107Y111649D01*
X398746Y112707D01*
X399448Y113724D01*
X400211Y114696D01*
X401030Y115621D01*
X401904Y116495D01*
X402829Y117315D01*
X403801Y118077D01*
X404818Y118779D01*
X405876Y119418D01*
X406970Y119992D01*
X408097Y120499D01*
X409252Y120937D01*
X410432Y121305D01*
X411632Y121601D01*
X412847Y121823D01*
X414074Y121972D01*
X415307Y122047D01*
X416543Y122047D01*
X417776Y121972D01*
X419003Y121823D01*
X420218Y121601D01*
X421418Y121305D01*
X422598Y120937D01*
X423753Y120499D01*
X424880Y119992D01*
X425974Y119418D01*
X427032Y118779D01*
X428049Y118077D01*
X429021Y117315D01*
X429946Y116495D01*
X430820Y115621D01*
X431640Y114696D01*
X432402Y113724D01*
X433104Y112707D01*
X433743Y111649D01*
X434317Y110555D01*
X434824Y109428D01*
X435262Y108273D01*
X435630Y107093D01*
X435926Y105893D01*
X436148Y104678D01*
X436297Y103451D01*
X436372Y102218D01*
X436372Y100982D01*
X373659Y101227D02*
X373594Y100485D01*
X373465Y99751D01*
X373272Y99031D01*
X373017Y98331D01*
X372702Y97656D01*
X372330Y97010D01*
X371902Y96400D01*
X371423Y95829D01*
X370896Y95302D01*
X370325Y94823D01*
X369715Y94395D01*
X369070Y94023D01*
X368394Y93708D01*
X367694Y93453D01*
X366974Y93260D01*
X366240Y93131D01*
X365498Y93066D01*
X364752Y93066D01*
X364010Y93131D01*
X363276Y93260D01*
X362556Y93453D01*
X361856Y93708D01*
X361181Y94023D01*
X360535Y94395D01*
X359925Y94823D01*
X359354Y95302D01*
X358827Y95829D01*
X358348Y96400D01*
X357920Y97010D01*
X357548Y97656D01*
X357233Y98331D01*
X356978Y99031D01*
X356785Y99751D01*
X356656Y100485D01*
X356591Y101227D01*
X356591Y101973D01*
X356656Y102715D01*
X356785Y103449D01*
X356978Y104169D01*
X357233Y104869D01*
X357548Y105545D01*
X357920Y106190D01*
X358348Y106800D01*
X358827Y107371D01*
X359354Y107898D01*
X359925Y108377D01*
X360535Y108805D01*
X361181Y109177D01*
X361856Y109492D01*
X362556Y109747D01*
X363276Y109940D01*
X364010Y110069D01*
X364752Y110134D01*
X365498Y110134D01*
X366240Y110069D01*
X366974Y109940D01*
X367694Y109747D01*
X368394Y109492D01*
X369070Y109177D01*
X369715Y108805D01*
X370325Y108377D01*
X370896Y107898D01*
X371423Y107371D01*
X371902Y106800D01*
X372330Y106190D01*
X372702Y105545D01*
X373017Y104869D01*
X373272Y104169D01*
X373465Y103449D01*
X373594Y102715D01*
X373659Y101973D01*
X373659Y101227D01*
X475259Y101227D02*
X475194Y100485D01*
X475065Y99751D01*
X474872Y99031D01*
X474617Y98331D01*
X474302Y97656D01*
X473930Y97010D01*
X473502Y96400D01*
X473023Y95829D01*
X472496Y95302D01*
X471925Y94823D01*
X471315Y94395D01*
X470670Y94023D01*
X469994Y93708D01*
X469294Y93453D01*
X468574Y93260D01*
X467840Y93131D01*
X467098Y93066D01*
X466352Y93066D01*
X465610Y93131D01*
X464876Y93260D01*
X464156Y93453D01*
X463456Y93708D01*
X462781Y94023D01*
X462135Y94395D01*
X461525Y94823D01*
X460954Y95302D01*
X460427Y95829D01*
X459948Y96400D01*
X459520Y97010D01*
X459148Y97656D01*
X458833Y98331D01*
X458578Y99031D01*
X458385Y99751D01*
X458256Y100485D01*
X458191Y101227D01*
X458191Y101973D01*
X458256Y102715D01*
X458385Y103449D01*
X458578Y104169D01*
X458833Y104869D01*
X459148Y105545D01*
X459520Y106190D01*
X459948Y106800D01*
X460427Y107371D01*
X460954Y107898D01*
X461525Y108377D01*
X462135Y108805D01*
X462781Y109177D01*
X463456Y109492D01*
X464156Y109747D01*
X464876Y109940D01*
X465610Y110069D01*
X466352Y110134D01*
X467098Y110134D01*
X467840Y110069D01*
X468574Y109940D01*
X469294Y109747D01*
X469994Y109492D01*
X470670Y109177D01*
X471315Y108805D01*
X471925Y108377D01*
X472496Y107898D01*
X473023Y107371D01*
X473502Y106800D01*
X473930Y106190D01*
X474302Y105545D01*
X474617Y104869D01*
X474872Y104169D01*
X475065Y103449D01*
X475194Y102715D01*
X475259Y101973D01*
X475259Y101227D01*
X626872Y100982D02*
X626797Y99749D01*
X626648Y98522D01*
X626426Y97307D01*
X626130Y96107D01*
X625762Y94927D01*
X625324Y93772D01*
X624817Y92645D01*
X624243Y91551D01*
X623604Y90493D01*
X622902Y89476D01*
X622140Y88504D01*
X621320Y87579D01*
X620446Y86705D01*
X619521Y85886D01*
X618549Y85123D01*
X617532Y84421D01*
X616474Y83782D01*
X615380Y83208D01*
X614253Y82701D01*
X613098Y82263D01*
X611918Y81895D01*
X610718Y81599D01*
X609503Y81377D01*
X608276Y81228D01*
X607043Y81153D01*
X605807Y81153D01*
X604574Y81228D01*
X603347Y81377D01*
X602132Y81599D01*
X600932Y81895D01*
X599752Y82263D01*
X598597Y82701D01*
X597470Y83208D01*
X596376Y83782D01*
X595318Y84421D01*
X594301Y85123D01*
X593329Y85886D01*
X592404Y86705D01*
X591530Y87579D01*
X590711Y88504D01*
X589948Y89476D01*
X589246Y90493D01*
X588607Y91551D01*
X588033Y92645D01*
X587526Y93772D01*
X587088Y94927D01*
X586720Y96107D01*
X586424Y97307D01*
X586202Y98522D01*
X586053Y99749D01*
X585978Y100982D01*
X585978Y102218D01*
X586053Y103451D01*
X586202Y104678D01*
X586424Y105893D01*
X586720Y107093D01*
X587088Y108273D01*
X587526Y109428D01*
X588033Y110555D01*
X588607Y111649D01*
X589246Y112707D01*
X589948Y113724D01*
X590711Y114696D01*
X591530Y115621D01*
X592404Y116495D01*
X593329Y117315D01*
X594301Y118077D01*
X595318Y118779D01*
X596376Y119418D01*
X597470Y119992D01*
X598597Y120499D01*
X599752Y120937D01*
X600932Y121305D01*
X602132Y121601D01*
X603347Y121823D01*
X604574Y121972D01*
X605807Y122047D01*
X607043Y122047D01*
X608276Y121972D01*
X609503Y121823D01*
X610718Y121601D01*
X611918Y121305D01*
X613098Y120937D01*
X614253Y120499D01*
X615380Y119992D01*
X616474Y119418D01*
X617532Y118779D01*
X618549Y118077D01*
X619521Y117315D01*
X620446Y116495D01*
X621320Y115621D01*
X622140Y114696D01*
X622902Y113724D01*
X623604Y112707D01*
X624243Y111649D01*
X624817Y110555D01*
X625324Y109428D01*
X625762Y108273D01*
X626130Y107093D01*
X626426Y105893D01*
X626648Y104678D01*
X626797Y103451D01*
X626872Y102218D01*
X626872Y100982D01*
X564159Y101227D02*
X564094Y100485D01*
X563965Y99751D01*
X563772Y99031D01*
X563517Y98331D01*
X563202Y97656D01*
X562830Y97010D01*
X562402Y96400D01*
X561923Y95829D01*
X561396Y95302D01*
X560825Y94823D01*
X560215Y94395D01*
X559570Y94023D01*
X558894Y93708D01*
X558194Y93453D01*
X557474Y93260D01*
X556740Y93131D01*
X555998Y93066D01*
X555252Y93066D01*
X554510Y93131D01*
X553776Y93260D01*
X553056Y93453D01*
X552356Y93708D01*
X551681Y94023D01*
X551035Y94395D01*
X550425Y94823D01*
X549854Y95302D01*
X549327Y95829D01*
X548848Y96400D01*
X548420Y97010D01*
X548048Y97656D01*
X547733Y98331D01*
X547478Y99031D01*
X547285Y99751D01*
X547156Y100485D01*
X547091Y101227D01*
X547091Y101973D01*
X547156Y102715D01*
X547285Y103449D01*
X547478Y104169D01*
X547733Y104869D01*
X548048Y105545D01*
X548420Y106190D01*
X548848Y106800D01*
X549327Y107371D01*
X549854Y107898D01*
X550425Y108377D01*
X551035Y108805D01*
X551681Y109177D01*
X552356Y109492D01*
X553056Y109747D01*
X553776Y109940D01*
X554510Y110069D01*
X555252Y110134D01*
X555998Y110134D01*
X556740Y110069D01*
X557474Y109940D01*
X558194Y109747D01*
X558894Y109492D01*
X559570Y109177D01*
X560215Y108805D01*
X560825Y108377D01*
X561396Y107898D01*
X561923Y107371D01*
X562402Y106800D01*
X562830Y106190D01*
X563202Y105545D01*
X563517Y104869D01*
X563772Y104169D01*
X563965Y103449D01*
X564094Y102715D01*
X564159Y101973D01*
X564159Y101227D01*
X665759Y101227D02*
X665694Y100485D01*
X665565Y99751D01*
X665372Y99031D01*
X665117Y98331D01*
X664802Y97656D01*
X664430Y97010D01*
X664002Y96400D01*
X663523Y95829D01*
X662996Y95302D01*
X662425Y94823D01*
X661815Y94395D01*
X661170Y94023D01*
X660494Y93708D01*
X659794Y93453D01*
X659074Y93260D01*
X658340Y93131D01*
X657598Y93066D01*
X656852Y93066D01*
X656110Y93131D01*
X655376Y93260D01*
X654656Y93453D01*
X653956Y93708D01*
X653281Y94023D01*
X652635Y94395D01*
X652025Y94823D01*
X651454Y95302D01*
X650927Y95829D01*
X650448Y96400D01*
X650020Y97010D01*
X649648Y97656D01*
X649333Y98331D01*
X649078Y99031D01*
X648885Y99751D01*
X648756Y100485D01*
X648691Y101227D01*
X648691Y101973D01*
X648756Y102715D01*
X648885Y103449D01*
X649078Y104169D01*
X649333Y104869D01*
X649648Y105545D01*
X650020Y106190D01*
X650448Y106800D01*
X650927Y107371D01*
X651454Y107898D01*
X652025Y108377D01*
X652635Y108805D01*
X653281Y109177D01*
X653956Y109492D01*
X654656Y109747D01*
X655376Y109940D01*
X656110Y110069D01*
X656852Y110134D01*
X657598Y110134D01*
X658340Y110069D01*
X659074Y109940D01*
X659794Y109747D01*
X660494Y109492D01*
X661170Y109177D01*
X661815Y108805D01*
X662425Y108377D01*
X662996Y107898D01*
X663523Y107371D01*
X664002Y106800D01*
X664430Y106190D01*
X664802Y105545D01*
X665117Y104869D01*
X665372Y104169D01*
X665565Y103449D01*
X665694Y102715D01*
X665759Y101973D01*
X665759Y101227D01*
X817372Y100982D02*
X817297Y99749D01*
X817148Y98522D01*
X816926Y97307D01*
X816630Y96107D01*
X816262Y94927D01*
X815824Y93772D01*
X815317Y92645D01*
X814743Y91551D01*
X814104Y90493D01*
X813402Y89476D01*
X812640Y88504D01*
X811820Y87579D01*
X810946Y86705D01*
X810021Y85886D01*
X809049Y85123D01*
X808032Y84421D01*
X806974Y83782D01*
X805880Y83208D01*
X804753Y82701D01*
X803598Y82263D01*
X802418Y81895D01*
X801218Y81599D01*
X800003Y81377D01*
X798776Y81228D01*
X797543Y81153D01*
X796307Y81153D01*
X795074Y81228D01*
X793847Y81377D01*
X792632Y81599D01*
X791432Y81895D01*
X790252Y82263D01*
X789097Y82701D01*
X787970Y83208D01*
X786876Y83782D01*
X785818Y84421D01*
X784801Y85123D01*
X783829Y85886D01*
X782904Y86705D01*
X782030Y87579D01*
X781211Y88504D01*
X780448Y89476D01*
X779746Y90493D01*
X779107Y91551D01*
X778533Y92645D01*
X778026Y93772D01*
X777588Y94927D01*
X777220Y96107D01*
X776924Y97307D01*
X776702Y98522D01*
X776553Y99749D01*
X776478Y100982D01*
X776478Y102218D01*
X776553Y103451D01*
X776702Y104678D01*
X776924Y105893D01*
X777220Y107093D01*
X777588Y108273D01*
X778026Y109428D01*
X778533Y110555D01*
X779107Y111649D01*
X779746Y112707D01*
X780448Y113724D01*
X781211Y114696D01*
X782030Y115621D01*
X782904Y116495D01*
X783829Y117315D01*
X784801Y118077D01*
X785818Y118779D01*
X786876Y119418D01*
X787970Y119992D01*
X789097Y120499D01*
X790252Y120937D01*
X791432Y121305D01*
X792632Y121601D01*
X793847Y121823D01*
X795074Y121972D01*
X796307Y122047D01*
X797543Y122047D01*
X798776Y121972D01*
X800003Y121823D01*
X801218Y121601D01*
X802418Y121305D01*
X803598Y120937D01*
X804753Y120499D01*
X805880Y119992D01*
X806974Y119418D01*
X808032Y118779D01*
X809049Y118077D01*
X810021Y117315D01*
X810946Y116495D01*
X811820Y115621D01*
X812640Y114696D01*
X813402Y113724D01*
X814104Y112707D01*
X814743Y111649D01*
X815317Y110555D01*
X815824Y109428D01*
X816262Y108273D01*
X816630Y107093D01*
X816926Y105893D01*
X817148Y104678D01*
X817297Y103451D01*
X817372Y102218D01*
X817372Y100982D01*
X754659Y101227D02*
X754594Y100485D01*
X754465Y99751D01*
X754272Y99031D01*
X754017Y98331D01*
X753702Y97656D01*
X753330Y97010D01*
X752902Y96400D01*
X752423Y95829D01*
X751896Y95302D01*
X751325Y94823D01*
X750715Y94395D01*
X750070Y94023D01*
X749394Y93708D01*
X748694Y93453D01*
X747974Y93260D01*
X747240Y93131D01*
X746498Y93066D01*
X745752Y93066D01*
X745010Y93131D01*
X744276Y93260D01*
X743556Y93453D01*
X742856Y93708D01*
X742181Y94023D01*
X741535Y94395D01*
X740925Y94823D01*
X740354Y95302D01*
X739827Y95829D01*
X739348Y96400D01*
X738920Y97010D01*
X738548Y97656D01*
X738233Y98331D01*
X737978Y99031D01*
X737785Y99751D01*
X737656Y100485D01*
X737591Y101227D01*
X737591Y101973D01*
X737656Y102715D01*
X737785Y103449D01*
X737978Y104169D01*
X738233Y104869D01*
X738548Y105545D01*
X738920Y106190D01*
X739348Y106800D01*
X739827Y107371D01*
X740354Y107898D01*
X740925Y108377D01*
X741535Y108805D01*
X742181Y109177D01*
X742856Y109492D01*
X743556Y109747D01*
X744276Y109940D01*
X745010Y110069D01*
X745752Y110134D01*
X746498Y110134D01*
X747240Y110069D01*
X747974Y109940D01*
X748694Y109747D01*
X749394Y109492D01*
X750070Y109177D01*
X750715Y108805D01*
X751325Y108377D01*
X751896Y107898D01*
X752423Y107371D01*
X752902Y106800D01*
X753330Y106190D01*
X753702Y105545D01*
X754017Y104869D01*
X754272Y104169D01*
X754465Y103449D01*
X754594Y102715D01*
X754659Y101973D01*
X754659Y101227D01*
X856259Y101227D02*
X856194Y100485D01*
X856065Y99751D01*
X855872Y99031D01*
X855617Y98331D01*
X855302Y97656D01*
X854930Y97010D01*
X854502Y96400D01*
X854023Y95829D01*
X853496Y95302D01*
X852925Y94823D01*
X852315Y94395D01*
X851670Y94023D01*
X850994Y93708D01*
X850294Y93453D01*
X849574Y93260D01*
X848840Y93131D01*
X848098Y93066D01*
X847352Y93066D01*
X846610Y93131D01*
X845876Y93260D01*
X845156Y93453D01*
X844456Y93708D01*
X843781Y94023D01*
X843135Y94395D01*
X842525Y94823D01*
X841954Y95302D01*
X841427Y95829D01*
X840948Y96400D01*
X840520Y97010D01*
X840148Y97656D01*
X839833Y98331D01*
X839578Y99031D01*
X839385Y99751D01*
X839256Y100485D01*
X839191Y101227D01*
X839191Y101973D01*
X839256Y102715D01*
X839385Y103449D01*
X839578Y104169D01*
X839833Y104869D01*
X840148Y105545D01*
X840520Y106190D01*
X840948Y106800D01*
X841427Y107371D01*
X841954Y107898D01*
X842525Y108377D01*
X843135Y108805D01*
X843781Y109177D01*
X844456Y109492D01*
X845156Y109747D01*
X845876Y109940D01*
X846610Y110069D01*
X847352Y110134D01*
X848098Y110134D01*
X848840Y110069D01*
X849574Y109940D01*
X850294Y109747D01*
X850994Y109492D01*
X851670Y109177D01*
X852315Y108805D01*
X852925Y108377D01*
X853496Y107898D01*
X854023Y107371D01*
X854502Y106800D01*
X854930Y106190D01*
X855302Y105545D01*
X855617Y104869D01*
X855872Y104169D01*
X856065Y103449D01*
X856194Y102715D01*
X856259Y101973D01*
X856259Y101227D01*
M02*
