G04 EAGLE Gerber RS-274X export*
G75*
%MOMM*%
%FSLAX34Y34*%
%LPD*%
%INSolderpaste Bottom*%
%IPPOS*%
%AMOC8*
5,1,8,0,0,1.08239X$1,22.5*%
G01*
%ADD10R,1.400000X1.000000*%
%ADD11R,1.000000X1.400000*%
%ADD12R,1.100000X1.000000*%
%ADD13R,0.800000X1.000000*%


D10*
X160225Y257175D03*
X138225Y266675D03*
X138225Y247675D03*
X550750Y247650D03*
X528750Y257150D03*
X528750Y238150D03*
X169750Y57150D03*
X147750Y66650D03*
X147750Y47650D03*
X550750Y69850D03*
X528750Y79350D03*
X528750Y60350D03*
D11*
X63500Y290400D03*
X54000Y268400D03*
X73000Y268400D03*
D10*
X106250Y314325D03*
X84250Y323825D03*
X84250Y304825D03*
D12*
X107950Y291075D03*
X107950Y274075D03*
X114300Y334400D03*
X114300Y351400D03*
D13*
X288925Y342425D03*
X288925Y362425D03*
X479425Y342425D03*
X479425Y362425D03*
X669925Y342425D03*
X669925Y362425D03*
X733425Y362425D03*
X733425Y342425D03*
X288925Y151925D03*
X288925Y171925D03*
X479425Y151925D03*
X479425Y171925D03*
X669925Y151925D03*
X669925Y171925D03*
X860425Y151925D03*
X860425Y171925D03*
D12*
X73025Y64525D03*
X73025Y81525D03*
X50800Y64525D03*
X50800Y81525D03*
M02*
