G04 EAGLE Gerber RS-274X export*
G75*
%MOMM*%
%FSLAX34Y34*%
%LPD*%
%INSoldermask Top*%
%IPPOS*%
%AMOC8*
5,1,8,0,0,1.08239X$1,22.5*%
G01*
%ADD10C,3.200400*%
%ADD11C,4.292600*%
%ADD12C,1.910081*%
%ADD13C,2.235200*%
%ADD14C,3.429000*%
%ADD15C,2.082800*%
%ADD16C,1.503200*%


D10*
X25400Y368300D03*
X25400Y25400D03*
X901700Y368300D03*
X901700Y25400D03*
D11*
X225425Y292100D03*
D12*
X174625Y292100D03*
X276225Y292100D03*
D13*
X212725Y241300D03*
X238125Y241300D03*
D14*
X187325Y317500D03*
X250825Y342900D03*
D11*
X415925Y292100D03*
D12*
X365125Y292100D03*
X466725Y292100D03*
D13*
X403225Y241300D03*
X428625Y241300D03*
D14*
X377825Y317500D03*
X441325Y342900D03*
D11*
X606425Y292100D03*
D12*
X555625Y292100D03*
X657225Y292100D03*
D13*
X593725Y241300D03*
X619125Y241300D03*
D14*
X568325Y317500D03*
X631825Y342900D03*
D11*
X796925Y292100D03*
D12*
X746125Y292100D03*
X847725Y292100D03*
D13*
X784225Y241300D03*
X809625Y241300D03*
D14*
X758825Y317500D03*
X822325Y342900D03*
D11*
X225425Y101600D03*
D12*
X174625Y101600D03*
X276225Y101600D03*
D13*
X212725Y50800D03*
X238125Y50800D03*
D14*
X187325Y127000D03*
X250825Y152400D03*
D11*
X415925Y101600D03*
D12*
X365125Y101600D03*
X466725Y101600D03*
D13*
X403225Y50800D03*
X428625Y50800D03*
D14*
X377825Y127000D03*
X441325Y152400D03*
D11*
X606425Y101600D03*
D12*
X555625Y101600D03*
X657225Y101600D03*
D13*
X593725Y50800D03*
X619125Y50800D03*
D14*
X568325Y127000D03*
X631825Y152400D03*
D11*
X796925Y101600D03*
D12*
X746125Y101600D03*
X847725Y101600D03*
D13*
X784225Y50800D03*
X809625Y50800D03*
D14*
X758825Y127000D03*
X822325Y152400D03*
D15*
X76200Y136525D03*
X50800Y136525D03*
X76200Y161925D03*
X50800Y161925D03*
X76200Y187325D03*
X50800Y187325D03*
X76200Y212725D03*
X50800Y212725D03*
X76200Y238125D03*
X50800Y238125D03*
D16*
X120650Y254000D03*
X94719Y254000D03*
X504825Y317500D03*
X504825Y203200D03*
X133350Y187325D03*
X133350Y142875D03*
X314325Y158750D03*
X314325Y374650D03*
X120650Y95250D03*
X73025Y95250D03*
X111125Y111125D03*
X50800Y111125D03*
X695325Y241300D03*
X695325Y50800D03*
X327025Y241300D03*
X327025Y50800D03*
X708025Y260350D03*
X708025Y28575D03*
X133350Y215369D03*
X133350Y333375D03*
X47625Y295275D03*
X47625Y320675D03*
X88900Y339725D03*
X88900Y273050D03*
X504825Y127000D03*
X504825Y180975D03*
X517525Y279400D03*
X517525Y104775D03*
X146050Y288925D03*
X146050Y85725D03*
X508000Y79375D03*
X508000Y22225D03*
X130175Y22225D03*
X130175Y66675D03*
M02*
