M48
;GenerationSoftware,Autodesk,EAGLE,9.6.2*%
;CreationDate,2021-01-24T08:44:45Z*%
FMAT,2
ICI,OFF
METRIC,TZ,000.000
T4C1.000
T3C1.016
T2C2.000
T1C2.997
%
G90
M71
T1
X46990Y1270
X2540Y1270
X46990Y35560
X2540Y35560
T2
X20066Y34100
X40894Y34100
X40894Y10985
X20066Y10985
T3
X49530Y17463
X49530Y20003
X52070Y22542
X49530Y22542
X8255Y2857
X10795Y2857
X13335Y2857
X22860Y11430
X15875Y2857
X18415Y2857
X38100Y34290
X38100Y31750
X38100Y29210
X38100Y26670
X38100Y24130
X38100Y21590
X38100Y19050
X38100Y16510
X38100Y13970
X38100Y11430
X38100Y8890
X38100Y6350
X22860Y6350
X22860Y8890
X52070Y20003
X22860Y13970
X22860Y16510
X22860Y19050
X22860Y21590
X22860Y24130
X22860Y26670
X22860Y29210
X22860Y31750
X22860Y34290
X6629Y20561
X6629Y27064
X11151Y20561
X11151Y27064
X52070Y12382
X49530Y12382
X52070Y14922
X49530Y14922
X52070Y17463
T4
X30797Y635
X28257Y19685
X28257Y2223
X25717Y19685
X25717Y3810
X47193Y10835
X47149Y28099
X15875Y22225
X15875Y5398
X29210Y35243
X30797Y19685
X31750Y35243
X34290Y35243
X26670Y35243
M30